<svg width="80" height="80" viewBox="0 0 80 80" fill="none" xmlns="http://www.w3.org/2000/svg">
<path fill-rule="evenodd" clip-rule="evenodd" d="M57 77.9995C56.4486 77.9995 56 77.5509 56 76.9995C56 76.4481 56.4486 75.9995 57 75.9995C57.5514 75.9995 58 76.4481 58 76.9995C58 77.5509 57.5514 77.9995 57 77.9995Z" fill="#CACAFB"/>
<path fill-rule="evenodd" clip-rule="evenodd" d="M61 5.99951C60.4486 5.99951 60 5.55091 60 4.99951C60 4.44806 60.4486 3.99951 61 3.99951C61.5514 3.99951 62 4.44806 62 4.99951C62 5.55091 61.5514 5.99951 61 5.99951Z" fill="#CACAFB"/>
<path fill-rule="evenodd" clip-rule="evenodd" d="M27 77.9995C26.4486 77.9995 26 77.5509 26 76.9995C26 76.4481 26.4486 75.9995 27 75.9995C27.5514 75.9995 28 76.4481 28 76.9995C28 77.5509 27.5514 77.9995 27 77.9995Z" fill="#CACAFB"/>
<path d="M44.9933 9.88289C44.9355 9.38555 44.5128 8.99951 44 8.99951C43.4477 8.99951 43 9.44723 43 9.99951V13.9995L43.0067 14.1161C43.0645 14.6135 43.4872 14.9995 44 14.9995C44.5523 14.9995 45 14.5518 45 13.9995V9.99951L44.9933 9.88289Z" fill="#E1000F"/>
<path d="M20 34.9995C20 34.4472 19.5523 33.9995 19 33.9995H13L12.8834 34.0062C12.386 34.064 12 34.4867 12 34.9995C12 35.5518 12.4477 35.9995 13 35.9995H19L19.1166 35.9928C19.614 35.935 20 35.5123 20 34.9995Z" fill="#E1000F"/>
<path fill-rule="evenodd" clip-rule="evenodd" d="M40 33.9995C38.3431 33.9995 37 35.3427 37 36.9995C37 38.6564 38.3431 39.9995 40 39.9995C41.6569 39.9995 43 38.6564 43 36.9995C43 35.3427 41.6569 33.9995 40 33.9995ZM40 35.9995C40.5523 35.9995 41 36.4472 41 36.9995C41 37.5518 40.5523 37.9995 40 37.9995C39.4477 37.9995 39 37.5518 39 36.9995C39 36.4472 39.4477 35.9995 40 35.9995Z" fill="#E1000F"/>
<path d="M19 37.9995C19.5523 37.9995 20 38.4472 20 38.9995C20 39.5123 19.614 39.935 19.1166 39.9928L19 39.9995H13C12.4477 39.9995 12 39.5518 12 38.9995C12 38.4867 12.386 38.064 12.8834 38.0062L13 37.9995H19Z" fill="#E1000F"/>
<path d="M32 34.9995C32 34.4472 31.5523 33.9995 31 33.9995H25L24.8834 34.0062C24.386 34.064 24 34.4867 24 34.9995C24 35.5518 24.4477 35.9995 25 35.9995H31L31.1166 35.9928C31.614 35.935 32 35.5123 32 34.9995Z" fill="#E1000F"/>
<path d="M31 37.9995C31.5523 37.9995 32 38.4472 32 38.9995C32 39.5123 31.614 39.935 31.1166 39.9928L31 39.9995H25C24.4477 39.9995 24 39.5518 24 38.9995C24 38.4867 24.386 38.064 24.8834 38.0062L25 37.9995H31Z" fill="#E1000F"/>
<path d="M56 34.9995C56 34.4472 55.5523 33.9995 55 33.9995H49L48.8834 34.0062C48.386 34.064 48 34.4867 48 34.9995C48 35.5518 48.4477 35.9995 49 35.9995H55L55.1166 35.9928C55.614 35.935 56 35.5123 56 34.9995Z" fill="#E1000F"/>
<path d="M55 37.9995C55.5523 37.9995 56 38.4472 56 38.9995C56 39.5123 55.614 39.935 55.1166 39.9928L55 39.9995H49C48.4477 39.9995 48 39.5518 48 38.9995C48 38.4867 48.386 38.064 48.8834 38.0062L49 37.9995H55Z" fill="#E1000F"/>
<path d="M68 34.9995C68 34.4472 67.5523 33.9995 67 33.9995H61L60.8834 34.0062C60.386 34.064 60 34.4867 60 34.9995C60 35.5518 60.4477 35.9995 61 35.9995H67L67.1166 35.9928C67.614 35.935 68 35.5123 68 34.9995Z" fill="#E1000F"/>
<path d="M67 37.9995C67.5523 37.9995 68 38.4472 68 38.9995C68 39.5123 67.614 39.935 67.1166 39.9928L67 39.9995H61C60.4477 39.9995 60 39.5518 60 38.9995C60 38.4867 60.386 38.064 60.8834 38.0062L61 37.9995H67Z" fill="#E1000F"/>
<path d="M40.9933 9.88289C40.9355 9.38555 40.5128 8.99951 40 8.99951C39.4477 8.99951 39 9.44723 39 9.99951V13.9995L39.0067 14.1161C39.0645 14.6135 39.4872 14.9995 40 14.9995C40.5523 14.9995 41 14.5518 41 13.9995V9.99951L40.9933 9.88289Z" fill="#000091"/>
<path d="M40.9933 16.8829C40.9355 16.3856 40.5128 15.9995 40 15.9995C39.4477 15.9995 39 16.4472 39 16.9995V19.9995H17L16.8834 20.0062C16.386 20.064 16 20.4867 16 20.9995V25.9995H3L2.88338 26.0062C2.38604 26.064 2 26.4867 2 26.9995C2 27.5518 2.44772 27.9995 3 27.9995H77L77.1166 27.9928C77.614 27.935 78 27.5123 78 26.9995C78 26.4472 77.5523 25.9995 77 25.9995H64V20.9995L63.9933 20.8829C63.9355 20.3856 63.5128 19.9995 63 19.9995C62.4477 19.9995 62 20.4472 62 20.9995V25.9995H18V21.9995H53L53.1166 21.9928C53.614 21.935 54 21.5123 54 20.9995C54 20.4472 53.5523 19.9995 53 19.9995H41V16.9995L40.9933 16.8829Z" fill="#000091"/>
<path d="M25 43.9995C25.5128 43.9995 25.9355 44.3856 25.9933 44.8829L26 44.9995V64.9995C26 65.5518 25.5523 65.9995 25 65.9995C24.4872 65.9995 24.0645 65.6135 24.0067 65.1161L24 64.9995V44.9995C24 44.4472 24.4477 43.9995 25 43.9995Z" fill="#000091"/>
<path d="M21.9933 48.8829C21.9355 48.3856 21.5128 47.9995 21 47.9995C20.4477 47.9995 20 48.4472 20 48.9995V67.9995H12V48.9995L11.9933 48.8829C11.9355 48.3856 11.5128 47.9995 11 47.9995C10.4477 47.9995 10 48.4472 10 48.9995V67.9995H7L6.88338 68.0062C6.38604 68.064 6 68.4867 6 68.9995C6 69.5518 6.44772 69.9995 7 69.9995H21C21.069 69.9995 21.1364 69.9925 21.2015 69.9792C21.6572 69.8859 22 69.4828 22 68.9995V48.9995L21.9933 48.8829Z" fill="#000091"/>
<path d="M15 43.9995C15.5128 43.9995 15.9355 44.3856 15.9933 44.8829L16 44.9995V60.9995C16 61.5518 15.5523 61.9995 15 61.9995C14.4872 61.9995 14.0645 61.6135 14.0067 61.1161L14 60.9995V44.9995C14 44.4472 14.4477 43.9995 15 43.9995Z" fill="#000091"/>
<path d="M59 19.9995C59.5523 19.9995 60 20.4472 60 20.9995C60 21.5123 59.614 21.935 59.1166 21.9928L59 21.9995H57C56.4477 21.9995 56 21.5518 56 20.9995C56 20.4867 56.386 20.064 56.8834 20.0062L57 19.9995H59Z" fill="#000091"/>
<path d="M7 29.9995C7.51284 29.9995 7.93551 30.3856 7.99327 30.8829L8 30.9995V64.9995C8 65.5518 7.55228 65.9995 7 65.9995C6.48716 65.9995 6.06449 65.6135 6.00673 65.1161L6 64.9995V30.9995C6 30.4472 6.44772 29.9995 7 29.9995Z" fill="#000091"/>
<path fill-rule="evenodd" clip-rule="evenodd" d="M47.9933 48.8829C47.9355 48.3856 47.5128 47.9995 47 47.9995H33L32.8834 48.0062C32.386 48.064 32 48.4867 32 48.9995V63.9995H29L28.8834 64.0062C28.386 64.064 28 64.4867 28 64.9995C28 65.5518 28.4477 65.9995 29 65.9995H51L51.1166 65.9928C51.614 65.935 52 65.5123 52 64.9995C52 64.4472 51.5523 63.9995 51 63.9995H48V48.9995L47.9933 48.8829ZM39 63.9995H34V49.9985H46V63.9995H41V54.9995L40.9933 54.8829C40.9355 54.3856 40.5128 53.9995 40 53.9995C39.4477 53.9995 39 54.4472 39 54.9995V63.9995Z" fill="#000091"/>
<path d="M45 43.9995C45.5523 43.9995 46 44.4472 46 44.9995C46 45.5123 45.614 45.935 45.1166 45.9928L45 45.9995H35C34.4477 45.9995 34 45.5518 34 44.9995C34 44.4867 34.386 44.064 34.8834 44.0062L35 43.9995H45Z" fill="#000091"/>
<path d="M55 43.9995C54.4872 43.9995 54.0645 44.3856 54.0067 44.8829L54 44.9995V64.9995C54 65.5518 54.4477 65.9995 55 65.9995C55.5128 65.9995 55.9355 65.6135 55.9933 65.1161L56 64.9995V44.9995C56 44.4472 55.5523 43.9995 55 43.9995Z" fill="#000091"/>
<path d="M58.0067 48.8829C58.0645 48.3856 58.4872 47.9995 59 47.9995C59.5523 47.9995 60 48.4472 60 48.9995V60.9995L59.9933 61.1161C59.9355 61.6135 59.5128 61.9995 59 61.9995C58.4477 61.9995 58 61.5518 58 60.9995V48.9995L58.0067 48.8829Z" fill="#000091"/>
<path d="M65 43.9995C64.4872 43.9995 64.0645 44.3856 64.0067 44.8829L64 44.9995V64.9995C64 65.5518 64.4477 65.9995 65 65.9995C65.5128 65.9995 65.9355 65.6135 65.9933 65.1161L66 64.9995V44.9995C66 44.4472 65.5523 43.9995 65 43.9995Z" fill="#000091"/>
<path d="M68.0067 48.8829C68.0645 48.3856 68.4872 47.9995 69 47.9995C69.5523 47.9995 70 48.4472 70 48.9995V68.9995C70 69.039 69.9977 69.0779 69.9933 69.1161C69.94 69.5752 69.5757 69.9394 69.1167 69.9928C69.0784 69.9972 69.0395 69.9995 69 69.9995H25C24.4477 69.9995 24 69.5518 24 68.9995C24 68.4867 24.386 68.064 24.8834 68.0062L25 67.9995H68V48.9995L68.0067 48.8829Z" fill="#000091"/>
<path d="M73 29.9995C73.5128 29.9995 73.9355 30.3856 73.9933 30.8829L74 30.9995V68.9995C74 69.5518 73.5523 69.9995 73 69.9995C72.4872 69.9995 72.0645 69.6135 72.0067 69.1161L72 68.9995V30.9995C72 30.4472 72.4477 29.9995 73 29.9995Z" fill="#000091"/>
</svg>
