<svg width="327" height="255" viewBox="0 0 327 255" fill="none" xmlns="http://www.w3.org/2000/svg">
<g clip-path="url(#clip0_1103_48787)">
<rect x="-0.454897" y="0.454897" width="406.678" height="253.832" rx="9.55284" transform="matrix(-1 0 0 1 325.678 0)" fill="#E8EDFF" stroke="black" stroke-width="0.909794"/>
<rect x="-0.454897" y="0.454897" width="406.678" height="253.832" rx="9.55284" transform="matrix(-1 0 0 1 325.678 0)" fill="#E8EDFF" stroke="black" stroke-width="0.909794"/>
<path d="M326.133 10.0077C326.133 4.73185 321.856 0.454897 316.58 0.454897H-70.992C-76.2679 0.454897 -80.5449 4.73184 -80.5449 10.0077V20.4704H326.133V10.0077Z" fill="white" stroke="black" stroke-width="0.909794"/>
<g clip-path="url(#clip1_1103_48787)">
<path d="M226.665 132.74H99.2943C84.2203 132.74 72.0005 144.96 72.0005 160.034C72.0005 175.108 84.2203 187.327 99.2943 187.327H226.665C241.739 187.327 253.959 175.108 253.959 160.034C253.959 144.96 241.739 132.74 226.665 132.74Z" fill="#000091"/>
<path d="M110.898 177.692V168.845C111.409 167.984 112.216 166.828 113.776 166.828C115.309 166.828 116.169 167.85 116.169 169.49V177.692H119.638V169.356C119.638 169.167 119.638 168.952 119.611 168.764C120.149 167.877 120.982 166.828 122.434 166.828C123.967 166.828 124.855 167.85 124.855 169.49V177.692H128.297V169.356C128.297 165.537 126.092 163.601 123.295 163.601C121.171 163.601 119.853 164.73 118.858 165.967C117.971 164.408 116.411 163.601 114.636 163.601C112.969 163.601 111.813 164.273 110.898 165.161V164.139H107.483V177.692H110.898ZM138.649 178.229C143.059 178.229 146.071 174.976 146.071 170.915C146.071 166.855 143.059 163.601 138.649 163.601C134.239 163.601 131.228 166.855 131.228 170.915C131.228 174.976 134.239 178.229 138.649 178.229ZM138.703 175.003C136.444 175.003 134.777 173.282 134.777 170.915C134.777 168.549 136.444 166.828 138.703 166.828C140.881 166.828 142.522 168.549 142.522 170.915C142.522 173.255 140.881 175.003 138.703 175.003ZM152.606 177.692V168.845C153.117 167.984 154.031 166.828 155.752 166.828C157.419 166.828 158.414 167.957 158.414 169.759V177.692H161.883V169.625C161.883 165.618 159.543 163.601 156.612 163.601C154.811 163.601 153.547 164.3 152.606 165.215V164.139H149.19V177.692H152.606ZM176.888 178.229C178.474 178.229 180.061 177.503 180.921 176.428V177.692H184.363V168.925C184.363 165.941 182.346 163.601 178.42 163.601C175.973 163.601 173.957 164.623 172.747 166.29L175.274 168.199C175.893 167.151 176.995 166.586 178.313 166.586C179.846 166.586 180.921 167.5 180.921 168.925V169.275L176.834 169.974C173.903 170.458 172.316 172.045 172.316 174.115C172.316 176.67 174.172 178.229 176.888 178.229ZM177.587 175.487C176.431 175.487 175.704 174.841 175.704 173.981C175.704 173.12 176.269 172.529 177.721 172.287L180.921 171.722V173.577C180.222 174.68 179.12 175.487 177.587 175.487ZM195.603 177.692L200.551 164.139H196.867L193.372 173.819L189.849 164.139H186.192L191.113 177.692H195.603ZM204.424 161.773C205.634 161.773 206.629 160.751 206.629 159.541C206.629 158.331 205.634 157.309 204.424 157.309C203.213 157.309 202.192 158.331 202.192 159.541C202.192 160.751 203.213 161.773 204.424 161.773ZM206.118 177.692V164.139H202.703V177.692H206.118ZM214.265 178.229C216.82 178.229 219.106 176.67 219.159 173.819C219.159 169.006 212.84 169.947 212.84 167.635C212.84 166.882 213.378 166.398 214.4 166.398C215.475 166.398 216.363 167.07 217.062 167.957L219.348 165.914C218.353 164.596 216.47 163.601 214.373 163.601C211.576 163.601 209.56 165.376 209.56 167.769C209.56 172.663 215.879 171.668 215.879 174.035C215.879 174.841 215.287 175.433 214.212 175.433C212.921 175.433 211.926 174.68 211.092 173.631L208.834 175.729C210.124 177.261 211.845 178.229 214.265 178.229Z" fill="white"/>
<path d="M124.989 158.402C127.607 158.402 128.897 157.022 128.897 154.243V142.734H126.352V154.369C126.352 155.659 125.76 156.143 124.631 156.143C124.38 156.143 124.165 156.126 123.985 156.09V158.331C124.236 158.402 124.577 158.402 124.989 158.402ZM136.355 155.642C138.058 155.642 139.456 154.942 140.299 153.813L138.668 152.522C138.184 153.168 137.377 153.598 136.391 153.598C134.849 153.598 133.809 152.719 133.666 151.232H139.994C140.066 150.927 140.138 150.443 140.138 149.941C140.138 147.574 138.488 145.889 135.978 145.889C133.021 145.889 131.335 148.094 131.335 150.765C131.335 153.401 133.146 155.642 136.355 155.642ZM137.879 149.511H133.809C134.114 148.327 134.867 147.79 135.978 147.79C137.18 147.79 137.843 148.614 137.879 149.511ZM151.145 155.642C152.31 155.642 153.224 155.283 153.941 154.656V155.283H156.236V141.838H153.941V146.875C153.224 146.248 152.31 145.889 151.145 145.889C148.294 145.889 146.555 148.13 146.555 150.765C146.555 153.401 148.294 155.642 151.145 155.642ZM151.467 153.49C149.926 153.49 148.94 152.343 148.94 150.765C148.94 149.188 149.926 148.041 151.467 148.041C152.507 148.041 153.332 148.489 153.941 149.385V152.146C153.35 153.024 152.525 153.49 151.467 153.49ZM163.263 155.642C166.203 155.642 168.211 153.472 168.211 150.765C168.211 148.058 166.203 145.889 163.263 145.889C160.323 145.889 158.316 148.058 158.316 150.765C158.316 153.472 160.323 155.642 163.263 155.642ZM163.299 153.49C161.793 153.49 160.682 152.343 160.682 150.765C160.682 149.188 161.793 148.041 163.299 148.041C164.751 148.041 165.845 149.188 165.845 150.765C165.845 152.325 164.751 153.49 163.299 153.49ZM172.567 155.283V149.385C172.908 148.811 173.518 148.041 174.665 148.041C175.776 148.041 176.44 148.793 176.44 149.995V155.283H178.752V149.905C178.752 147.234 177.193 145.889 175.239 145.889C174.037 145.889 173.195 146.355 172.567 146.965V146.248H170.291V155.283H172.567ZM183.61 155.283V149.385C183.951 148.811 184.561 148.041 185.708 148.041C186.819 148.041 187.483 148.793 187.483 149.995V155.283H189.795V149.905C189.795 147.234 188.236 145.889 186.282 145.889C185.08 145.889 184.238 146.355 183.61 146.965V146.248H181.334V155.283H183.61ZM196.751 155.642C198.454 155.642 199.852 154.942 200.695 153.813L199.064 152.522C198.579 153.168 197.773 153.598 196.787 153.598C195.245 153.598 194.205 152.719 194.062 151.232H200.39C200.462 150.927 200.534 150.443 200.534 149.941C200.534 147.574 198.884 145.889 196.374 145.889C193.417 145.889 191.731 148.094 191.731 150.765C191.731 153.401 193.542 155.642 196.751 155.642ZM198.275 149.511H194.205C194.51 148.327 195.263 147.79 196.374 147.79C197.576 147.79 198.239 148.614 198.275 149.511Z" fill="white"/>
<path d="M243.366 203.601L246.461 203.078L246.001 199.727H244.694V198.356H246.964L243.586 197.473L242.229 202.784L236.949 201.404V204.587H242.373V209.331L244.26 209.012L243.366 203.601Z" fill="#000091"/>
<path d="M247.179 195.843H248.534V192.87H242.373V198.356H236.949V201.404L242.229 202.784L243.586 197.473L246.965 198.356H247.179V195.843Z" fill="#E1000F"/>
<path d="M248.535 202.24H247.18V199.727H246.002L246.462 203.078L246.765 205.281L248.535 205.032V204.587H253.959V198.356H251.008V199.727H248.535V202.24Z" fill="#66CCFF"/>
<path d="M251.006 198.356H248.527V195.849H247.172V198.356H244.693V199.726H247.172V202.233H248.527V199.726H251.006V198.356Z" fill="white"/>
<path d="M188.516 197.827C188.913 198.343 189.441 198.648 189.98 198.648C190.508 198.648 190.829 198.362 190.829 197.875C190.829 196.682 187.808 196.949 187.808 194.725C187.808 193.665 188.667 192.786 189.923 192.786C190.914 192.786 191.679 193.235 192.236 193.913L191.254 194.801C190.867 194.295 190.433 193.97 189.932 193.97C189.47 193.97 189.168 194.276 189.168 194.667C189.168 195.861 192.189 195.584 192.189 197.847C192.17 199.088 191.207 199.852 189.998 199.852C188.884 199.852 188.129 199.441 187.544 198.734L188.516 197.827Z" fill="black"/>
<path d="M193.689 192.977H197.541V194.132H195.03V195.679H197.164V196.834H195.03V198.505H197.541V199.661H193.689V192.977Z" fill="black"/>
<path d="M200.533 194.132V195.803H201.289C201.855 195.803 202.185 195.498 202.185 194.954C202.185 194.448 201.855 194.132 201.289 194.132H200.533ZM199.193 192.977H201.213C202.667 192.977 203.564 193.732 203.564 194.973C203.564 195.775 203.177 196.376 202.506 196.701L204.583 199.661H202.978L201.223 196.959H200.533V199.661H199.193V192.977Z" fill="black"/>
<path d="M205.847 192.977L207.802 198.2L209.756 192.977H211.181L208.68 199.661H206.924L204.422 192.977H205.847Z" fill="black"/>
<path d="M212.293 192.977H213.634V199.661H212.293V192.977Z" fill="black"/>
<path d="M220.251 197.665L221.308 198.486C220.704 199.317 219.722 199.851 218.523 199.851C216.437 199.851 215.012 198.228 215.012 196.319C215.012 194.409 216.437 192.786 218.523 192.786C219.722 192.786 220.704 193.33 221.308 194.142L220.251 194.973C219.874 194.428 219.279 194.056 218.523 194.056C217.277 194.056 216.39 195.04 216.39 196.319C216.39 197.598 217.277 198.582 218.523 198.582C219.279 198.582 219.874 198.209 220.251 197.665Z" fill="black"/>
<path d="M222.563 192.977H226.415V194.132H223.904V195.679H226.038V196.834H223.904V198.505H226.415V199.66H222.563V192.977Z" fill="black"/>
<path d="M228.445 197.827C228.842 198.343 229.37 198.648 229.908 198.648C230.437 198.648 230.758 198.362 230.758 197.875C230.758 196.682 227.737 196.949 227.737 194.725C227.737 193.665 228.596 192.786 229.852 192.786C230.843 192.786 231.607 193.235 232.165 193.913L231.183 194.801C230.796 194.295 230.361 193.97 229.861 193.97C229.399 193.97 229.096 194.276 229.096 194.667C229.096 195.861 232.117 195.584 232.117 197.847C232.098 199.088 231.136 199.852 229.927 199.852C228.813 199.852 228.058 199.441 227.473 198.734L228.445 197.827Z" fill="black"/>
<path d="M189.478 204.271V205.941H190.375C190.941 205.941 191.281 205.636 191.281 205.092C191.281 204.586 190.941 204.271 190.375 204.271H189.478ZM188.138 203.115H190.318C191.772 203.115 192.66 203.87 192.66 205.111C192.66 206.342 191.772 207.097 190.318 207.097H189.478V209.799H188.138V203.115Z" fill="black"/>
<path d="M197.758 203.115H199.099V207.183C199.099 208.939 198.079 209.99 196.418 209.99C194.766 209.99 193.746 208.939 193.746 207.183V203.115H195.087V207.297C195.087 208.195 195.587 208.72 196.427 208.72C197.248 208.72 197.758 208.195 197.758 207.297V203.115Z" fill="black"/>
<path d="M202.193 206.896V208.644H202.948C203.571 208.644 203.949 208.309 203.949 207.756C203.949 207.202 203.571 206.896 202.948 206.896H202.193ZM202.193 204.271V205.731H202.759C203.269 205.731 203.562 205.474 203.562 204.996C203.562 204.548 203.269 204.271 202.759 204.271H202.193ZM200.853 203.116H202.731C204.109 203.116 204.94 203.803 204.94 204.929C204.94 205.464 204.695 205.932 204.242 206.247C204.94 206.562 205.327 207.135 205.327 207.832C205.327 209.054 204.393 209.799 202.873 209.799H200.853V203.116Z" fill="black"/>
<path d="M206.792 203.115H208.132V208.567H210.643V209.799H206.792V203.115Z" fill="black"/>
<path d="M211.917 203.115H213.257V209.799H211.917V203.115Z" fill="black"/>
<path d="M219.875 207.803L220.932 208.624C220.328 209.455 219.347 209.99 218.148 209.99C216.061 209.99 214.636 208.367 214.636 206.457C214.636 204.547 216.061 202.924 218.148 202.924C219.347 202.924 220.328 203.469 220.932 204.28L219.875 205.111C219.498 204.567 218.903 204.194 218.148 204.194C216.901 204.194 216.014 205.178 216.014 206.457C216.014 207.736 216.901 208.72 218.148 208.72C218.903 208.72 219.498 208.347 219.875 207.803Z" fill="black"/>
<path d="M222.592 207.966C222.989 208.481 223.518 208.787 224.056 208.787C224.584 208.787 224.905 208.5 224.905 208.013C224.905 206.82 221.884 207.087 221.884 204.863C221.884 203.803 222.744 202.924 223.999 202.924C224.99 202.924 225.755 203.373 226.312 204.051L225.33 204.939C224.943 204.433 224.509 204.108 224.009 204.108C223.546 204.108 223.244 204.414 223.244 204.805C223.244 205.999 226.265 205.722 226.265 207.985C226.246 209.226 225.283 209.99 224.075 209.99C222.961 209.99 222.205 209.579 221.62 208.873L222.592 207.966Z" fill="black"/>
<path d="M230.529 206.087V207.809H229.296V206.087H227.594V204.84H229.296V203.119H230.529V204.84H232.222V206.087H230.529Z" fill="black"/>
</g>
<path d="M44.6238 77.219H51.6293C57.2845 77.219 61.1057 73.1176 61.1057 68.303C61.1057 63.4884 57.2845 59.387 51.6293 59.387H44.6238V77.219ZM51.6802 62.6732C54.9919 62.6732 57.3864 65.1187 57.3864 68.303C57.3864 71.4618 54.9919 73.9328 51.6802 73.9328H48.2412V62.6732H51.6802ZM70.3496 63.8705C66.1719 63.8705 63.3187 66.9529 63.3187 70.7995C63.3187 74.6461 66.1719 77.7285 70.3496 77.7285C74.5274 77.7285 77.3805 74.6461 77.3805 70.7995C77.3805 66.9529 74.5274 63.8705 70.3496 63.8705ZM70.4006 74.6716C68.2607 74.6716 66.6813 73.0412 66.6813 70.7995C66.6813 68.5578 68.2607 66.9274 70.4006 66.9274C72.464 66.9274 74.0179 68.5578 74.0179 70.7995C74.0179 73.0157 72.464 74.6716 70.4006 74.6716ZM80.3314 77.219H83.5666V68.838C84.0506 68.0228 84.9167 66.9274 86.5471 66.9274C88.1265 66.9274 89.0945 67.9973 89.0945 69.7041V77.219H92.3552V69.5767C92.3552 65.7811 90.1389 63.8705 87.3622 63.8705C85.6555 63.8705 84.4582 64.5328 83.5666 65.399V64.38H80.3314V77.219ZM96.0288 77.219H99.2641V68.838C99.7481 68.0228 100.614 66.9274 102.245 66.9274C103.824 66.9274 104.792 67.9973 104.792 69.7041V77.219H108.053V69.5767C108.053 65.7811 105.836 63.8705 103.06 63.8705C101.353 63.8705 100.156 64.5328 99.2641 65.399V64.38H96.0288V77.219ZM123.546 75.1301L121.228 73.296C120.54 74.213 119.318 74.8244 117.917 74.8244C115.904 74.8244 114.427 73.8564 114.121 71.4618H123.113C123.215 71.0288 123.317 70.3664 123.317 69.6531C123.317 66.2905 120.973 63.8705 117.407 63.8705C113.204 63.8705 110.809 67.0038 110.809 70.7995C110.809 74.5442 113.382 77.7285 117.942 77.7285C120.362 77.7285 122.349 76.735 123.546 75.1301ZM117.331 66.5198C119.139 66.5198 120.082 67.819 120.133 69.1182H114.223C114.579 67.4369 115.675 66.5198 117.331 66.5198ZM125.795 77.219H136.545V74.3149H129.845L136.367 67.284V64.38H125.999V67.284H132.316L125.795 74.3149V77.219ZM144.944 64.38L149.606 77.219H153.86L158.547 64.38H155.057L151.746 73.5507L148.409 64.38H144.944ZM166.55 63.8705C162.372 63.8705 159.519 66.9529 159.519 70.7995C159.519 74.6461 162.372 77.7285 166.55 77.7285C170.727 77.7285 173.581 74.6461 173.581 70.7995C173.581 66.9529 170.727 63.8705 166.55 63.8705ZM166.601 74.6716C164.461 74.6716 162.881 73.0412 162.881 70.7995C162.881 68.5578 164.461 66.9274 166.601 66.9274C168.664 66.9274 170.218 68.5578 170.218 70.7995C170.218 73.0157 168.664 74.6716 166.601 74.6716ZM177.197 72.5317C177.197 75.6651 178.726 77.4737 181.936 77.4737C183.005 77.4737 183.77 77.3464 184.407 77.0661V74.2385C183.973 74.4168 183.388 74.5187 182.496 74.5187C181.222 74.5187 180.458 73.9583 180.458 72.5317V67.284H184.381V64.38H180.458V61.1702H177.197V64.38H174.803V67.284H177.197V72.5317ZM187.278 77.219H190.514V68.9908C190.998 68.1756 192.017 67.3095 193.596 67.3095C194.182 67.3095 194.615 67.3859 195.022 67.4878V64.3036C194.717 64.2017 194.335 64.1252 193.902 64.1252C192.45 64.1252 191.354 64.7876 190.514 65.6537V64.38H187.278V77.219ZM208.9 75.1301L206.582 73.296C205.894 74.213 204.671 74.8244 203.27 74.8244C201.258 74.8244 199.78 73.8564 199.475 71.4618H208.467C208.569 71.0288 208.671 70.3664 208.671 69.6531C208.671 66.2905 206.327 63.8705 202.761 63.8705C198.557 63.8705 196.163 67.0038 196.163 70.7995C196.163 74.5442 198.736 77.7285 203.296 77.7285C205.716 77.7285 207.703 76.735 208.9 75.1301ZM202.684 66.5198C204.493 66.5198 205.435 67.819 205.486 69.1182H199.576C199.933 67.4369 201.028 66.5198 202.684 66.5198ZM222.316 77.6011C223.819 77.6011 225.347 76.9643 226.162 75.9708V77.219H229.397V68.9144C229.397 66.0868 227.487 63.8705 223.768 63.8705C221.424 63.8705 219.539 64.8385 218.393 66.4179L220.762 68.2266C221.449 67.284 222.417 66.6981 223.666 66.6981C225.143 66.6981 226.162 67.5643 226.162 68.9144V69.2456L222.239 69.9079C219.488 70.3664 217.985 71.8185 217.985 73.7545C217.985 76.1236 219.743 77.6011 222.316 77.6011ZM221.195 73.6017C221.195 72.812 221.755 72.2515 223.105 72.0223L226.162 71.5128V73.3214C225.525 74.3404 224.455 75.0282 222.978 75.0282C221.882 75.0282 221.195 74.4678 221.195 73.6017ZM231.144 64.38L235.805 77.219H240.06L244.747 64.38H241.257L237.945 73.5507L234.608 64.38H231.144ZM248.415 62.1383C249.561 62.1383 250.504 61.1702 250.504 60.0239C250.504 58.8775 249.561 57.9095 248.415 57.9095C247.269 57.9095 246.301 58.8775 246.301 60.0239C246.301 61.1702 247.269 62.1383 248.415 62.1383ZM246.785 77.219H250.02V64.38H246.785V77.219ZM252.604 75.3594C253.827 76.8114 255.458 77.7285 257.75 77.7285C260.17 77.7285 262.336 76.251 262.387 73.5507C262.387 69.1182 256.247 69.8824 256.247 67.6916C256.247 67.0293 256.731 66.4689 257.75 66.4689C258.744 66.4689 259.584 67.1312 260.247 67.9464L262.387 66.0613C261.469 64.813 259.686 63.8705 257.725 63.8705C255.05 63.8705 253.139 65.5773 253.139 67.8445C253.139 72.3534 259.279 71.5128 259.279 73.7545C259.279 74.5187 258.744 75.1301 257.699 75.1301C256.476 75.1301 255.534 74.4168 254.744 73.4233L252.604 75.3594ZM42.8152 107.359C44.0379 108.811 45.6683 109.728 47.961 109.728C50.381 109.728 52.5463 108.251 52.5973 105.551C52.5973 101.118 46.458 101.882 46.458 99.6916C46.458 99.0293 46.942 98.4689 47.961 98.4689C48.9545 98.4689 49.7951 99.1312 50.4574 99.9464L52.5973 98.0613C51.6802 96.813 49.897 95.8705 47.9355 95.8705C45.2607 95.8705 43.3501 97.5773 43.3501 99.8445C43.3501 104.353 49.4894 103.513 49.4894 105.754C49.4894 106.519 48.9545 107.13 47.91 107.13C46.6873 107.13 45.7447 106.417 44.955 105.423L42.8152 107.359ZM64.036 103.666C64.036 105.525 63.068 106.672 61.3103 106.672C59.5271 106.672 58.559 105.525 58.559 103.666V96.38H55.2983V103.513C55.2983 107.359 57.5146 109.728 61.2848 109.728C65.055 109.728 67.2967 107.359 67.2967 103.513V96.38H64.036V103.666ZM70.878 109.219H74.1133V100.991C74.5973 100.176 75.6162 99.3095 77.1956 99.3095C77.7815 99.3095 78.2146 99.3859 78.6222 99.4878V96.3036C78.3165 96.2017 77.9344 96.1252 77.5013 96.1252C76.0493 96.1252 74.9539 96.7876 74.1133 97.6537V96.38H70.878V109.219ZM94.2578 106.672C92.0925 106.672 90.5386 105.067 90.5386 102.799C90.5386 100.558 92.0925 98.9274 94.2068 98.9274C95.5315 98.9274 96.5505 99.5133 97.1619 100.405L99.6838 98.4689C98.4865 96.8895 96.6014 95.8705 94.2578 95.8705C89.8253 95.8705 87.176 99.0548 87.176 102.799C87.176 106.544 89.8253 109.728 94.2578 109.728C96.6014 109.728 98.4865 108.71 99.6838 107.13L97.1619 105.194C96.5505 106.086 95.5315 106.672 94.2578 106.672ZM113.421 107.13L111.103 105.296C110.415 106.213 109.193 106.824 107.792 106.824C105.779 106.824 104.302 105.856 103.996 103.462H112.988C113.09 103.029 113.192 102.366 113.192 101.653C113.192 98.2905 110.848 95.8705 107.282 95.8705C103.079 95.8705 100.684 99.0038 100.684 102.799C100.684 106.544 103.257 109.728 107.817 109.728C110.237 109.728 112.224 108.735 113.421 107.13ZM107.206 98.5198C109.014 98.5198 109.957 99.819 110.008 101.118H104.098C104.454 99.4369 105.55 98.5198 107.206 98.5198ZM117.144 104.532C117.144 107.665 118.672 109.474 121.882 109.474C122.952 109.474 123.716 109.346 124.353 109.066V106.239C123.92 106.417 123.334 106.519 122.442 106.519C121.169 106.519 120.404 105.958 120.404 104.532V99.284H124.328V96.38H120.404V93.1702H117.144V96.38H114.749V99.284H117.144V104.532ZM128.239 104.532C128.239 107.665 129.767 109.474 132.977 109.474C134.047 109.474 134.811 109.346 135.448 109.066V106.239C135.015 106.417 134.429 106.519 133.538 106.519C132.264 106.519 131.5 105.958 131.5 104.532V99.284H135.423V96.38H131.5V93.1702H128.239V96.38H125.844V99.284H128.239V104.532ZM149.891 107.13L147.573 105.296C146.885 106.213 145.663 106.824 144.262 106.824C142.249 106.824 140.772 105.856 140.466 103.462H149.458C149.56 103.029 149.662 102.366 149.662 101.653C149.662 98.2905 147.318 95.8705 143.752 95.8705C139.549 95.8705 137.154 99.0038 137.154 102.799C137.154 106.544 139.727 109.728 144.287 109.728C146.707 109.728 148.694 108.735 149.891 107.13ZM143.676 98.5198C145.484 98.5198 146.427 99.819 146.478 101.118H140.568C140.924 99.4369 142.02 98.5198 143.676 98.5198ZM158.772 102.799C158.772 106.544 161.243 109.728 165.294 109.728C167.026 109.728 168.274 109.194 169.268 108.2V109.219H172.529V90.1133H169.268V97.399C168.274 96.4055 167.026 95.8705 165.294 95.8705C161.243 95.8705 158.772 99.0548 158.772 102.799ZM162.161 102.799C162.161 100.558 163.562 98.9274 165.752 98.9274C167.204 98.9274 168.402 99.5388 169.268 100.711V104.888C168.402 106.06 167.204 106.672 165.752 106.672C163.562 106.672 162.161 105.041 162.161 102.799ZM183.871 94.342L186.928 90.1133H183.412L180.763 94.342H183.871ZM188.227 107.13L185.909 105.296C185.221 106.213 183.998 106.824 182.597 106.824C180.585 106.824 179.107 105.856 178.802 103.462H187.794C187.896 103.029 187.998 102.366 187.998 101.653C187.998 98.2905 185.654 95.8705 182.088 95.8705C177.885 95.8705 175.49 99.0038 175.49 102.799C175.49 106.544 178.063 109.728 182.623 109.728C185.043 109.728 187.03 108.735 188.227 107.13ZM182.011 98.5198C183.82 98.5198 184.763 99.819 184.813 101.118H178.903C179.26 99.4369 180.356 98.5198 182.011 98.5198ZM191.159 109.219H194.394V100.838C194.878 100.023 195.643 98.9274 197.12 98.9274C198.572 98.9274 199.413 99.8954 199.413 101.449V109.219H202.674V101.322C202.674 101.118 202.674 100.94 202.648 100.762C203.158 99.8954 203.922 98.9274 205.323 98.9274C206.775 98.9274 207.616 99.8954 207.616 101.449V109.219H210.876V101.322C210.876 97.7046 208.787 95.8705 206.138 95.8705C203.973 95.8705 202.75 96.8385 201.833 97.9594C200.992 96.5838 199.566 95.8705 197.935 95.8705C196.356 95.8705 195.261 96.5074 194.394 97.348V96.38H191.159V109.219ZM218.186 109.601C219.689 109.601 221.217 108.964 222.033 107.971V109.219H225.268V100.914C225.268 98.0868 223.357 95.8705 219.638 95.8705C217.294 95.8705 215.409 96.8385 214.263 98.4179L216.632 100.227C217.32 99.284 218.288 98.6981 219.536 98.6981C221.014 98.6981 222.033 99.5643 222.033 100.914V101.246L218.11 101.908C215.358 102.366 213.855 103.818 213.855 105.754C213.855 108.124 215.613 109.601 218.186 109.601ZM217.065 105.602C217.065 104.812 217.626 104.252 218.976 104.022L222.033 103.513V105.321C221.396 106.34 220.326 107.028 218.848 107.028C217.753 107.028 217.065 106.468 217.065 105.602ZM228.972 109.219H232.208V100.991C232.692 100.176 233.711 99.3095 235.29 99.3095C235.876 99.3095 236.309 99.3859 236.717 99.4878V96.3036C236.411 96.2017 236.029 96.1252 235.596 96.1252C234.144 96.1252 233.048 96.7876 232.208 97.6537V96.38H228.972V109.219ZM244.939 106.672C242.774 106.672 241.22 105.067 241.22 102.799C241.22 100.558 242.774 98.9274 244.888 98.9274C246.213 98.9274 247.232 99.5133 247.843 100.405L250.365 98.4689C249.168 96.8895 247.282 95.8705 244.939 95.8705C240.506 95.8705 237.857 99.0548 237.857 102.799C237.857 106.544 240.506 109.728 244.939 109.728C247.282 109.728 249.168 108.71 250.365 107.13L247.843 105.194C247.232 106.086 246.213 106.672 244.939 106.672ZM252.78 109.219H256.015V100.838C256.499 100.023 257.365 98.9274 258.996 98.9274C260.601 98.9274 261.543 99.9973 261.543 101.704V109.219H264.804V101.577C264.804 97.7811 262.588 95.8705 259.811 95.8705C258.104 95.8705 256.907 96.5328 256.015 97.399V90.1133H252.78V109.219ZM280.297 107.13L277.979 105.296C277.292 106.213 276.069 106.824 274.668 106.824C272.655 106.824 271.178 105.856 270.872 103.462H279.864C279.966 103.029 280.068 102.366 280.068 101.653C280.068 98.2905 277.725 95.8705 274.158 95.8705C269.955 95.8705 267.56 99.0038 267.56 102.799C267.56 106.544 270.133 109.728 274.693 109.728C277.113 109.728 279.1 108.735 280.297 107.13ZM274.082 98.5198C275.89 98.5198 276.833 99.819 276.884 101.118H270.974C271.331 99.4369 272.426 98.5198 274.082 98.5198Z" fill="black"/>
</g>
<defs>
<clipPath id="clip0_1103_48787">
<rect width="327" height="255" fill="white"/>
</clipPath>
<clipPath id="clip1_1103_48787">
<rect width="181.959" height="77.3325" fill="white" transform="translate(72 132.74)"/>
</clipPath>
</defs>
</svg>
