<svg width="328" height="256" viewBox="0 0 328 256" fill="none" xmlns="http://www.w3.org/2000/svg">
<g clip-path="url(#clip0_1414_52536)">
<rect x="1.36701" y="0.954409" width="406.678" height="253.832" rx="9.55284" fill="#E8EDFF" stroke="black" stroke-width="0.909794"/>
<rect x="1.36701" y="0.954409" width="406.678" height="253.832" rx="9.55284" fill="#E8EDFF" stroke="black" stroke-width="0.909794"/>
<path d="M1.36701 10.5072C1.36701 5.23136 5.64396 0.954409 10.9198 0.954409H398.492C403.768 0.954409 408.045 5.23136 408.045 10.5072V20.9699H1.36701V10.5072Z" fill="white" stroke="black" stroke-width="0.909794"/>
<circle cx="18" cy="12" r="4" fill="#D9D9D9"/>
<circle cx="34" cy="12" r="4" fill="#D9D9D9"/>
<circle cx="50" cy="12" r="4" fill="#27A658"/>
<g clip-path="url(#clip1_1414_52536)">
<path d="M228.207 133.239H100.836C85.7618 133.239 73.542 145.459 73.542 160.533C73.542 175.607 85.7618 187.827 100.836 187.827H228.207C243.281 187.827 255.501 175.607 255.501 160.533C255.501 145.459 243.281 133.239 228.207 133.239Z" fill="#000091"/>
<path d="M112.44 178.191V169.344C112.95 168.484 113.757 167.327 115.317 167.327C116.85 167.327 117.71 168.349 117.71 169.99V178.191H121.179V169.855C121.179 169.667 121.179 169.452 121.152 169.264C121.69 168.376 122.523 167.327 123.976 167.327C125.508 167.327 126.396 168.349 126.396 169.99V178.191H129.838V169.855C129.838 166.037 127.633 164.101 124.836 164.101C122.712 164.101 121.394 165.23 120.399 166.467C119.512 164.907 117.952 164.101 116.177 164.101C114.51 164.101 113.354 164.773 112.44 165.66V164.638H109.024V178.191H112.44ZM140.19 178.729C144.6 178.729 147.612 175.475 147.612 171.415C147.612 167.354 144.6 164.101 140.19 164.101C135.78 164.101 132.769 167.354 132.769 171.415C132.769 175.475 135.78 178.729 140.19 178.729ZM140.244 175.502C137.985 175.502 136.318 173.781 136.318 171.415C136.318 169.048 137.985 167.327 140.244 167.327C142.422 167.327 144.063 169.048 144.063 171.415C144.063 173.754 142.422 175.502 140.244 175.502ZM154.147 178.191V169.344C154.658 168.484 155.572 167.327 157.293 167.327C158.96 167.327 159.955 168.457 159.955 170.259V178.191H163.424V170.124C163.424 166.117 161.084 164.101 158.153 164.101C156.352 164.101 155.088 164.8 154.147 165.714V164.638H150.732V178.191H154.147ZM178.429 178.729C180.015 178.729 181.602 178.003 182.462 176.927V178.191H185.904V169.425C185.904 166.44 183.887 164.101 179.961 164.101C177.514 164.101 175.498 165.122 174.288 166.79L176.815 168.699C177.434 167.65 178.536 167.085 179.854 167.085C181.387 167.085 182.462 168 182.462 169.425V169.774L178.375 170.474C175.444 170.958 173.857 172.544 173.857 174.615C173.857 177.169 175.713 178.729 178.429 178.729ZM179.128 175.986C177.972 175.986 177.246 175.341 177.246 174.48C177.246 173.62 177.81 173.028 179.262 172.786L182.462 172.222V174.077C181.763 175.179 180.661 175.986 179.128 175.986ZM197.144 178.191L202.092 164.638H198.408L194.913 174.319L191.39 164.638H187.733L192.654 178.191H197.144ZM205.965 162.272C207.175 162.272 208.17 161.25 208.17 160.04C208.17 158.83 207.175 157.808 205.965 157.808C204.754 157.808 203.733 158.83 203.733 160.04C203.733 161.25 204.754 162.272 205.965 162.272ZM207.659 178.191V164.638H204.244V178.191H207.659ZM215.806 178.729C218.361 178.729 220.647 177.169 220.7 174.319C220.7 169.506 214.381 170.447 214.381 168.134C214.381 167.381 214.919 166.897 215.941 166.897C217.016 166.897 217.904 167.569 218.603 168.457L220.889 166.413C219.894 165.096 218.011 164.101 215.914 164.101C213.117 164.101 211.101 165.875 211.101 168.269C211.101 173.163 217.42 172.168 217.42 174.534C217.42 175.341 216.828 175.932 215.753 175.932C214.462 175.932 213.467 175.179 212.633 174.131L210.375 176.228C211.665 177.761 213.386 178.729 215.806 178.729Z" fill="white"/>
<path d="M126.53 158.902C129.148 158.902 130.438 157.521 130.438 154.743V143.234H127.893V154.868C127.893 156.159 127.301 156.643 126.172 156.643C125.921 156.643 125.706 156.625 125.526 156.589V158.83C125.777 158.902 126.118 158.902 126.53 158.902ZM137.896 156.141C139.599 156.141 140.997 155.442 141.84 154.312L140.209 153.022C139.725 153.667 138.918 154.097 137.932 154.097C136.39 154.097 135.35 153.219 135.207 151.731H141.535C141.607 151.426 141.679 150.942 141.679 150.44C141.679 148.074 140.029 146.389 137.52 146.389C134.562 146.389 132.876 148.594 132.876 151.265C132.876 153.9 134.687 156.141 137.896 156.141ZM139.42 150.01H135.35C135.655 148.827 136.408 148.289 137.52 148.289C138.721 148.289 139.384 149.114 139.42 150.01ZM152.686 156.141C153.851 156.141 154.765 155.783 155.482 155.155V155.783H157.777V142.337H155.482V147.375C154.765 146.747 153.851 146.389 152.686 146.389C149.835 146.389 148.096 148.63 148.096 151.265C148.096 153.9 149.835 156.141 152.686 156.141ZM153.008 153.99C151.467 153.99 150.481 152.842 150.481 151.265C150.481 149.687 151.467 148.54 153.008 148.54C154.048 148.54 154.873 148.988 155.482 149.885V152.645C154.891 153.524 154.066 153.99 153.008 153.99ZM164.804 156.141C167.744 156.141 169.752 153.972 169.752 151.265C169.752 148.558 167.744 146.389 164.804 146.389C161.864 146.389 159.857 148.558 159.857 151.265C159.857 153.972 161.864 156.141 164.804 156.141ZM164.84 153.99C163.334 153.99 162.223 152.842 162.223 151.265C162.223 149.687 163.334 148.54 164.84 148.54C166.292 148.54 167.386 149.687 167.386 151.265C167.386 152.825 166.292 153.99 164.84 153.99ZM174.108 155.783V149.885C174.449 149.311 175.059 148.54 176.206 148.54C177.317 148.54 177.981 149.293 177.981 150.494V155.783H180.293V150.404C180.293 147.733 178.734 146.389 176.78 146.389C175.578 146.389 174.736 146.855 174.108 147.464V146.747H171.832V155.783H174.108ZM185.151 155.783V149.885C185.492 149.311 186.102 148.54 187.249 148.54C188.36 148.54 189.024 149.293 189.024 150.494V155.783H191.336V150.404C191.336 147.733 189.777 146.389 187.823 146.389C186.621 146.389 185.779 146.855 185.151 147.464V146.747H182.875V155.783H185.151ZM198.292 156.141C199.995 156.141 201.393 155.442 202.236 154.312L200.605 153.022C200.12 153.667 199.314 154.097 198.328 154.097C196.786 154.097 195.746 153.219 195.603 151.731H201.931C202.003 151.426 202.075 150.942 202.075 150.44C202.075 148.074 200.425 146.389 197.915 146.389C194.958 146.389 193.272 148.594 193.272 151.265C193.272 153.9 195.083 156.141 198.292 156.141ZM199.816 150.01H195.746C196.051 148.827 196.804 148.289 197.915 148.289C199.117 148.289 199.78 149.114 199.816 150.01Z" fill="white"/>
<path d="M244.907 204.101L248.002 203.578L247.542 200.226H246.235V198.856H248.505L245.127 197.973L243.77 203.284L238.49 201.904V205.086H243.914V209.83L245.801 209.511L244.907 204.101Z" fill="#000091"/>
<path d="M248.72 196.342H250.075V193.37H243.914V198.855H238.49V201.904L243.77 203.284L245.127 197.972L248.506 198.855H248.72V196.342Z" fill="#E1000F"/>
<path d="M250.076 202.739H248.721V200.226H247.543L248.003 203.578L248.306 205.781L250.076 205.532V205.086H255.501V198.855H252.549V200.226H250.076V202.739Z" fill="#66CCFF"/>
<path d="M252.547 198.855H250.068V196.348H248.713V198.855H246.234V200.226H248.713V202.733H250.068V200.226H252.547V198.855Z" fill="white"/>
<path d="M190.057 198.327C190.454 198.842 190.982 199.148 191.521 199.148C192.049 199.148 192.37 198.862 192.37 198.375C192.37 197.181 189.349 197.449 189.349 195.224C189.349 194.164 190.208 193.286 191.464 193.286C192.455 193.286 193.22 193.735 193.777 194.413L192.795 195.3C192.408 194.794 191.974 194.47 191.473 194.47C191.011 194.47 190.709 194.775 190.709 195.167C190.709 196.36 193.73 196.083 193.73 198.346C193.711 199.587 192.748 200.351 191.539 200.351C190.425 200.351 189.67 199.941 189.085 199.234L190.057 198.327Z" fill="black"/>
<path d="M195.23 193.477H199.082V194.632H196.571V196.179H198.705V197.334H196.571V199.005H199.082V200.16H195.23V193.477Z" fill="black"/>
<path d="M202.075 194.632V196.303H202.83C203.397 196.303 203.727 195.997 203.727 195.453C203.727 194.947 203.397 194.632 202.83 194.632H202.075ZM200.734 193.477H202.755C204.208 193.477 205.105 194.231 205.105 195.472C205.105 196.274 204.718 196.876 204.048 197.2L206.125 200.16H204.52L202.764 197.458H202.075V200.16H200.734V193.477Z" fill="black"/>
<path d="M207.388 193.477L209.343 198.699L211.297 193.477H212.722L210.221 200.16H208.465L205.963 193.477H207.388Z" fill="black"/>
<path d="M213.835 193.477H215.175V200.16H213.835V193.477Z" fill="black"/>
<path d="M221.792 198.165L222.849 198.986C222.245 199.816 221.264 200.351 220.065 200.351C217.978 200.351 216.553 198.728 216.553 196.818C216.553 194.909 217.978 193.286 220.065 193.286C221.264 193.286 222.245 193.83 222.849 194.642L221.792 195.472C221.415 194.928 220.82 194.556 220.065 194.556C218.818 194.556 217.931 195.539 217.931 196.818C217.931 198.098 218.818 199.081 220.065 199.081C220.82 199.081 221.415 198.709 221.792 198.165Z" fill="black"/>
<path d="M224.104 193.477H227.956V194.632H225.445V196.179H227.579V197.334H225.445V199.005H227.956V200.16H224.104V193.477Z" fill="black"/>
<path d="M229.986 198.327C230.383 198.842 230.911 199.148 231.449 199.148C231.978 199.148 232.299 198.862 232.299 198.375C232.299 197.181 229.278 197.449 229.278 195.224C229.278 194.164 230.137 193.286 231.393 193.286C232.384 193.286 233.149 193.735 233.706 194.413L232.724 195.3C232.337 194.794 231.902 194.47 231.402 194.47C230.94 194.47 230.637 194.775 230.637 195.167C230.637 196.36 233.658 196.083 233.658 198.346C233.64 199.587 232.677 200.351 231.468 200.351C230.354 200.351 229.599 199.941 229.014 199.234L229.986 198.327Z" fill="black"/>
<path d="M191.019 204.77V206.441H191.916C192.482 206.441 192.822 206.135 192.822 205.591C192.822 205.085 192.482 204.77 191.916 204.77H191.019ZM189.679 203.615H191.859C193.313 203.615 194.201 204.369 194.201 205.61C194.201 206.842 193.313 207.596 191.859 207.596H191.019V210.298H189.679V203.615Z" fill="black"/>
<path d="M199.299 203.615H200.64V207.682C200.64 209.439 199.62 210.489 197.959 210.489C196.307 210.489 195.287 209.439 195.287 207.682V203.615H196.628V207.797C196.628 208.694 197.128 209.219 197.968 209.219C198.789 209.219 199.299 208.694 199.299 207.797V203.615Z" fill="black"/>
<path d="M203.734 207.396V209.143H204.489C205.112 209.143 205.49 208.809 205.49 208.255C205.49 207.701 205.112 207.396 204.489 207.396H203.734ZM203.734 204.77V206.231H204.3C204.81 206.231 205.103 205.973 205.103 205.496C205.103 205.047 204.81 204.77 204.3 204.77H203.734ZM202.394 203.615H204.272C205.65 203.615 206.481 204.302 206.481 205.429C206.481 205.964 206.236 206.432 205.783 206.747C206.481 207.062 206.868 207.634 206.868 208.331C206.868 209.554 205.934 210.298 204.414 210.298H202.394V203.615Z" fill="black"/>
<path d="M208.333 203.615H209.674V209.067H212.185V210.298H208.333V203.615Z" fill="black"/>
<path d="M213.457 203.615H214.798V210.298H213.457V203.615Z" fill="black"/>
<path d="M221.416 208.303L222.473 209.124C221.869 209.954 220.888 210.489 219.689 210.489C217.602 210.489 216.177 208.866 216.177 206.956C216.177 205.047 217.602 203.424 219.689 203.424C220.888 203.424 221.869 203.968 222.473 204.78L221.416 205.61C221.039 205.066 220.444 204.694 219.689 204.694C218.442 204.694 217.555 205.677 217.555 206.956C217.555 208.236 218.442 209.219 219.689 209.219C220.444 209.219 221.039 208.847 221.416 208.303Z" fill="black"/>
<path d="M224.133 208.465C224.53 208.981 225.059 209.286 225.597 209.286C226.125 209.286 226.446 209 226.446 208.513C226.446 207.319 223.425 207.587 223.425 205.362C223.425 204.302 224.285 203.424 225.54 203.424C226.531 203.424 227.296 203.873 227.853 204.551L226.871 205.438C226.484 204.932 226.05 204.608 225.55 204.608C225.087 204.608 224.785 204.913 224.785 205.305C224.785 206.498 227.806 206.221 227.806 208.484C227.787 209.725 226.824 210.489 225.616 210.489C224.502 210.489 223.747 210.079 223.161 209.372L224.133 208.465Z" fill="black"/>
<path d="M232.071 206.587V208.308H230.838V206.587H229.136V205.34H230.838V203.618H232.071V205.34H233.764V206.587H232.071Z" fill="black"/>
</g>
<path d="M45.2088 77.7185H52.2142C57.8695 77.7185 61.6906 73.6172 61.6906 68.8025C61.6906 63.9879 57.8695 59.8865 52.2142 59.8865H45.2088V77.7185ZM52.2652 63.1727C55.5768 63.1727 57.9714 65.6182 57.9714 68.8025C57.9714 71.9613 55.5768 74.4323 52.2652 74.4323H48.8261V63.1727H52.2652ZM70.9346 64.37C66.7568 64.37 63.9037 67.4524 63.9037 71.299C63.9037 75.1456 66.7568 78.228 70.9346 78.228C75.1124 78.228 77.9655 75.1456 77.9655 71.299C77.9655 67.4524 75.1124 64.37 70.9346 64.37ZM70.9855 75.1711C68.8457 75.1711 67.2663 73.5407 67.2663 71.299C67.2663 69.0573 68.8457 67.4269 70.9855 67.4269C73.049 67.4269 74.6029 69.0573 74.6029 71.299C74.6029 73.5153 73.049 75.1711 70.9855 75.1711ZM80.9163 77.7185H84.1515V69.3375C84.6355 68.5223 85.5017 67.4269 87.132 67.4269C88.7114 67.4269 89.6794 68.4968 89.6794 70.2036V77.7185H92.9401V70.0762C92.9401 66.2806 90.7239 64.37 87.9472 64.37C86.2404 64.37 85.0431 65.0323 84.1515 65.8985V64.8795H80.9163V77.7185ZM96.6138 77.7185H99.849V69.3375C100.333 68.5223 101.199 67.4269 102.83 67.4269C104.409 67.4269 105.377 68.4968 105.377 70.2036V77.7185H108.638V70.0762C108.638 66.2806 106.421 64.37 103.645 64.37C101.938 64.37 100.741 65.0323 99.849 65.8985V64.8795H96.6138V77.7185ZM124.131 75.6296L121.813 73.7955C121.125 74.7125 119.903 75.3239 118.502 75.3239C116.489 75.3239 115.012 74.3559 114.706 71.9613H123.698C123.8 71.5283 123.902 70.8659 123.902 70.1527C123.902 66.7901 121.558 64.37 117.992 64.37C113.789 64.37 111.394 67.5033 111.394 71.299C111.394 75.0437 113.967 78.228 118.527 78.228C120.947 78.228 122.934 77.2345 124.131 75.6296ZM117.916 67.0193C119.724 67.0193 120.667 68.3185 120.718 69.6177H114.808C115.164 67.9364 116.26 67.0193 117.916 67.0193ZM126.38 77.7185H137.13V74.8144H130.43L136.952 67.7836V64.8795H126.584V67.7836H132.901L126.38 74.8144V77.7185ZM145.529 64.8795L150.191 77.7185H154.445L159.132 64.8795H155.642L152.331 74.0502L148.994 64.8795H145.529ZM167.135 64.37C162.957 64.37 160.104 67.4524 160.104 71.299C160.104 75.1456 162.957 78.228 167.135 78.228C171.312 78.228 174.166 75.1456 174.166 71.299C174.166 67.4524 171.312 64.37 167.135 64.37ZM167.186 75.1711C165.046 75.1711 163.466 73.5407 163.466 71.299C163.466 69.0573 165.046 67.4269 167.186 67.4269C169.249 67.4269 170.803 69.0573 170.803 71.299C170.803 73.5153 169.249 75.1711 167.186 75.1711ZM177.782 73.0312C177.782 76.1646 179.311 77.9732 182.52 77.9732C183.59 77.9732 184.355 77.8459 184.991 77.5657V74.738C184.558 74.9163 183.973 75.0182 183.081 75.0182C181.807 75.0182 181.043 74.4578 181.043 73.0312V67.7836H184.966V64.8795H181.043V61.6697H177.782V64.8795H175.388V67.7836H177.782V73.0312ZM187.863 77.7185H191.099V69.4903C191.583 68.6752 192.601 67.809 194.181 67.809C194.767 67.809 195.2 67.8855 195.607 67.9874V64.8031C195.302 64.7012 194.92 64.6248 194.487 64.6248C193.035 64.6248 191.939 65.2871 191.099 66.1532V64.8795H187.863V77.7185ZM209.485 75.6296L207.167 73.7955C206.479 74.7125 205.256 75.3239 203.855 75.3239C201.843 75.3239 200.365 74.3559 200.059 71.9613H209.052C209.154 71.5283 209.256 70.8659 209.256 70.1527C209.256 66.7901 206.912 64.37 203.346 64.37C199.142 64.37 196.748 67.5033 196.748 71.299C196.748 75.0437 199.321 78.228 203.881 78.228C206.301 78.228 208.288 77.2345 209.485 75.6296ZM203.269 67.0193C205.078 67.0193 206.02 68.3185 206.071 69.6177H200.161C200.518 67.9364 201.613 67.0193 203.269 67.0193ZM222.901 78.1006C224.403 78.1006 225.932 77.4638 226.747 76.4703V77.7185H229.982V69.4139C229.982 66.5863 228.072 64.37 224.353 64.37C222.009 64.37 220.124 65.338 218.977 66.9174L221.347 68.7261C222.034 67.7836 223.002 67.1976 224.251 67.1976C225.728 67.1976 226.747 68.0638 226.747 69.4139V69.7451L222.824 70.4074C220.073 70.8659 218.57 72.318 218.57 74.254C218.57 76.6231 220.328 78.1006 222.901 78.1006ZM221.78 74.1012C221.78 73.3115 222.34 72.751 223.69 72.5218L226.747 72.0123V73.8209C226.11 74.8399 225.04 75.5277 223.563 75.5277C222.467 75.5277 221.78 74.9673 221.78 74.1012ZM231.729 64.8795L236.39 77.7185H240.644L245.332 64.8795H241.842L238.53 74.0502L235.193 64.8795H231.729ZM249 62.6378C250.146 62.6378 251.089 61.6697 251.089 60.5234C251.089 59.3771 250.146 58.409 249 58.409C247.854 58.409 246.885 59.3771 246.885 60.5234C246.885 61.6697 247.854 62.6378 249 62.6378ZM247.369 77.7185H250.605V64.8795H247.369V77.7185ZM253.189 75.8589C254.412 77.3109 256.042 78.228 258.335 78.228C260.755 78.228 262.921 76.7505 262.971 74.0502C262.971 69.6177 256.832 70.3819 256.832 68.1911C256.832 67.5288 257.316 66.9684 258.335 66.9684C259.329 66.9684 260.169 67.6307 260.832 68.4459L262.971 66.5608C262.054 65.3126 260.271 64.37 258.31 64.37C255.635 64.37 253.724 66.0768 253.724 68.344C253.724 72.8529 259.864 72.0123 259.864 74.254C259.864 75.0182 259.329 75.6296 258.284 75.6296C257.061 75.6296 256.119 74.9163 255.329 73.9228L253.189 75.8589ZM43.4001 107.859C44.6229 109.311 46.2532 110.228 48.5459 110.228C50.966 110.228 53.1313 108.75 53.1822 106.05C53.1822 101.618 47.043 102.382 47.043 100.191C47.043 99.5288 47.527 98.9684 48.5459 98.9684C49.5394 98.9684 50.3801 99.6307 51.0424 100.446L53.1822 98.5608C52.2652 97.3126 50.482 96.37 48.5205 96.37C45.8457 96.37 43.9351 98.0768 43.9351 100.344C43.9351 104.853 50.0744 104.012 50.0744 106.254C50.0744 107.018 49.5394 107.63 48.495 107.63C47.2722 107.63 46.3297 106.916 45.54 105.923L43.4001 107.859ZM64.621 104.165C64.621 106.025 63.6529 107.171 61.8952 107.171C60.112 107.171 59.144 106.025 59.144 104.165V96.8795H55.8833V104.012C55.8833 107.859 58.0996 110.228 61.8697 110.228C65.6399 110.228 67.8817 107.859 67.8817 104.012V96.8795H64.621V104.165ZM71.463 109.719H74.6982V101.49C75.1822 100.675 76.2012 99.809 77.7806 99.809C78.3665 99.809 78.7996 99.8855 79.2072 99.9874V96.8031C78.9015 96.7012 78.5193 96.6248 78.0863 96.6248C76.6343 96.6248 75.5389 97.2871 74.6982 98.1532V96.8795H71.463V109.719ZM94.8428 107.171C92.6774 107.171 91.1235 105.566 91.1235 103.299C91.1235 101.057 92.6774 99.4269 94.7918 99.4269C96.1165 99.4269 97.1354 100.013 97.7468 100.904L100.269 98.9684C99.0715 97.389 97.1864 96.37 94.8428 96.37C90.4102 96.37 87.7609 99.5543 87.7609 103.299C87.7609 107.044 90.4102 110.228 94.8428 110.228C97.1864 110.228 99.0715 109.209 100.269 107.63L97.7468 105.694C97.1354 106.585 96.1165 107.171 94.8428 107.171ZM114.006 107.63L111.688 105.795C111 106.713 109.778 107.324 108.377 107.324C106.364 107.324 104.887 106.356 104.581 103.961H113.573C113.675 103.528 113.777 102.866 113.777 102.153C113.777 98.7901 111.433 96.37 107.867 96.37C103.664 96.37 101.269 99.5033 101.269 103.299C101.269 107.044 103.842 110.228 108.402 110.228C110.822 110.228 112.809 109.234 114.006 107.63ZM107.791 99.0193C109.599 99.0193 110.542 100.319 110.593 101.618H104.683C105.039 99.9364 106.135 99.0193 107.791 99.0193ZM117.729 105.031C117.729 108.165 119.257 109.973 122.467 109.973C123.537 109.973 124.301 109.846 124.938 109.566V106.738C124.505 106.916 123.919 107.018 123.027 107.018C121.754 107.018 120.989 106.458 120.989 105.031V99.7836H124.912V96.8795H120.989V93.6697H117.729V96.8795H115.334V99.7836H117.729V105.031ZM128.824 105.031C128.824 108.165 130.352 109.973 133.562 109.973C134.632 109.973 135.396 109.846 136.033 109.566V106.738C135.6 106.916 135.014 107.018 134.123 107.018C132.849 107.018 132.085 106.458 132.085 105.031V99.7836H136.008V96.8795H132.085V93.6697H128.824V96.8795H126.429V99.7836H128.824V105.031ZM150.476 107.63L148.158 105.795C147.47 106.713 146.248 107.324 144.846 107.324C142.834 107.324 141.357 106.356 141.051 103.961H150.043C150.145 103.528 150.247 102.866 150.247 102.153C150.247 98.7901 147.903 96.37 144.337 96.37C140.134 96.37 137.739 99.5033 137.739 103.299C137.739 107.044 140.312 110.228 144.872 110.228C147.292 110.228 149.279 109.234 150.476 107.63ZM144.261 99.0193C146.069 99.0193 147.012 100.319 147.063 101.618H141.153C141.509 99.9364 142.605 99.0193 144.261 99.0193ZM159.357 103.299C159.357 107.044 161.828 110.228 165.879 110.228C167.611 110.228 168.859 109.693 169.853 108.7V109.719H173.114V90.6128H169.853V97.8985C168.859 96.905 167.611 96.37 165.879 96.37C161.828 96.37 159.357 99.5543 159.357 103.299ZM162.746 103.299C162.746 101.057 164.147 99.4269 166.337 99.4269C167.789 99.4269 168.987 100.038 169.853 101.21V105.388C168.987 106.56 167.789 107.171 166.337 107.171C164.147 107.171 162.746 105.541 162.746 103.299ZM184.456 94.8416L187.513 90.6128H183.997L181.348 94.8416H184.456ZM188.812 107.63L186.494 105.795C185.806 106.713 184.583 107.324 183.182 107.324C181.17 107.324 179.692 106.356 179.387 103.961H188.379C188.481 103.528 188.583 102.866 188.583 102.153C188.583 98.7901 186.239 96.37 182.673 96.37C178.469 96.37 176.075 99.5033 176.075 103.299C176.075 107.044 178.648 110.228 183.208 110.228C185.628 110.228 187.615 109.234 188.812 107.63ZM182.596 99.0193C184.405 99.0193 185.348 100.319 185.398 101.618H179.488C179.845 99.9364 180.94 99.0193 182.596 99.0193ZM191.744 109.719H194.979V101.337C195.463 100.522 196.228 99.4269 197.705 99.4269C199.157 99.4269 199.998 100.395 199.998 101.949V109.719H203.258V101.821C203.258 101.618 203.258 101.439 203.233 101.261C203.742 100.395 204.507 99.4269 205.908 99.4269C207.36 99.4269 208.2 100.395 208.2 101.949V109.719H211.461V101.821C211.461 98.2042 209.372 96.37 206.723 96.37C204.558 96.37 203.335 97.338 202.418 98.4589C201.577 97.0833 200.151 96.37 198.52 96.37C196.941 96.37 195.845 97.0069 194.979 97.8475V96.8795H191.744V109.719ZM218.771 110.101C220.274 110.101 221.802 109.464 222.618 108.47V109.719H225.853V101.414C225.853 98.5863 223.942 96.37 220.223 96.37C217.879 96.37 215.994 97.338 214.848 98.9174L217.217 100.726C217.905 99.7836 218.873 99.1976 220.121 99.1976C221.599 99.1976 222.618 100.064 222.618 101.414V101.745L218.694 102.407C215.943 102.866 214.44 104.318 214.44 106.254C214.44 108.623 216.198 110.101 218.771 110.101ZM217.65 106.101C217.65 105.311 218.21 104.751 219.561 104.522L222.618 104.012V105.821C221.981 106.84 220.911 107.528 219.433 107.528C218.338 107.528 217.65 106.967 217.65 106.101ZM229.557 109.719H232.793V101.49C233.277 100.675 234.296 99.809 235.875 99.809C236.461 99.809 236.894 99.8855 237.302 99.9874V96.8031C236.996 96.7012 236.614 96.6248 236.181 96.6248C234.729 96.6248 233.633 97.2871 232.793 98.1532V96.8795H229.557V109.719ZM245.524 107.171C243.358 107.171 241.805 105.566 241.805 103.299C241.805 101.057 243.358 99.4269 245.473 99.4269C246.798 99.4269 247.816 100.013 248.428 100.904L250.95 98.9684C249.753 97.389 247.867 96.37 245.524 96.37C241.091 96.37 238.442 99.5543 238.442 103.299C238.442 107.044 241.091 110.228 245.524 110.228C247.867 110.228 249.753 109.209 250.95 107.63L248.428 105.694C247.816 106.585 246.798 107.171 245.524 107.171ZM253.365 109.719H256.6V101.337C257.084 100.522 257.95 99.4269 259.581 99.4269C261.185 99.4269 262.128 100.497 262.128 102.204V109.719H265.389V102.076C265.389 98.2806 263.172 96.37 260.396 96.37C258.689 96.37 257.492 97.0323 256.6 97.8985V90.6128H253.365V109.719ZM280.882 107.63L278.564 105.795C277.876 106.713 276.654 107.324 275.253 107.324C273.24 107.324 271.763 106.356 271.457 103.961H280.449C280.551 103.528 280.653 102.866 280.653 102.153C280.653 98.7901 278.31 96.37 274.743 96.37C270.54 96.37 268.145 99.5033 268.145 103.299C268.145 107.044 270.718 110.228 275.278 110.228C277.698 110.228 279.685 109.234 280.882 107.63ZM274.667 99.0193C276.475 99.0193 277.418 100.319 277.469 101.618H271.559C271.915 99.9364 273.011 99.0193 274.667 99.0193Z" fill="black"/>
</g>
<defs>
<clipPath id="clip0_1414_52536">
<rect width="327" height="255" fill="white" transform="matrix(-1 0 0 1 327.5 0.499512)"/>
</clipPath>
<clipPath id="clip1_1414_52536">
<rect width="181.959" height="77.3325" fill="white" transform="translate(73.541 133.239)"/>
</clipPath>
</defs>
</svg>
