<?xml version="1.0" encoding="UTF-8"?>
<svg width="282px" height="319px" viewBox="0 0 282 319" version="1.1" xmlns="http://www.w3.org/2000/svg" xmlns:xlink="http://www.w3.org/1999/xlink">
    <title>Illustration</title>
    <g id="Page-1" stroke="none" stroke-width="1" fill="none" fill-rule="evenodd">
        <g id="Desktop-HD" transform="translate(-936.000000, -210.000000)">
            <g id="Contenu" transform="translate(222.000000, 210.000000)">
                <g id="Illustration" transform="translate(714.000000, 0.000000)">
                    <path d="M36.2053571,314.6 C37.4233423,314.6 38.4107143,315.584974 38.4107143,316.8 C38.4107143,318.015026 37.4233423,319 36.2053571,319 C34.987372,319 34,318.015026 34,316.8 C34,315.584974 34.987372,314.6 36.2053571,314.6 Z M52.3779762,314.6 C53.5959613,314.6 54.5833333,315.584974 54.5833333,316.8 C54.5833333,318.015026 53.5959613,319 52.3779762,319 C51.1599911,319 50.172619,318.015026 50.172619,316.8 C50.172619,315.584974 51.1599911,314.6 52.3779762,314.6 Z M68.5505952,314.6 C69.7685798,314.6 70.7559524,315.584974 70.7559524,316.8 C70.7559524,318.015026 69.7685798,319 68.5505952,319 C67.3326101,319 66.3452381,318.015026 66.3452381,316.8 C66.3452381,315.584974 67.3326101,314.6 68.5505952,314.6 Z M84.7232143,314.6 C85.9411989,314.6 86.9285714,315.584974 86.9285714,316.8 C86.9285714,318.015026 85.9411989,319 84.7232143,319 C83.5052297,319 82.5178571,318.015026 82.5178571,316.8 C82.5178571,315.584974 83.5052297,314.6 84.7232143,314.6 Z M100.895833,314.6 C102.113818,314.6 103.10119,315.584974 103.10119,316.8 C103.10119,318.015026 102.113818,319 100.895833,319 C99.6778488,319 98.6904762,318.015026 98.6904762,316.8 C98.6904762,315.584974 99.6778488,314.6 100.895833,314.6 Z M117.068452,314.6 C118.286437,314.6 119.27381,315.584974 119.27381,316.8 C119.27381,318.015026 118.286437,319 117.068452,319 C115.850468,319 114.863095,318.015026 114.863095,316.8 C114.863095,315.584974 115.850468,314.6 117.068452,314.6 Z M133.241071,314.6 C134.459056,314.6 135.446429,315.584974 135.446429,316.8 C135.446429,318.015026 134.459056,319 133.241071,319 C132.023087,319 131.035714,318.015026 131.035714,316.8 C131.035714,315.584974 132.023087,314.6 133.241071,314.6 Z M149.41369,314.6 C150.631675,314.6 151.619048,315.584974 151.619048,316.8 C151.619048,318.015026 150.631675,319 149.41369,319 C148.195706,319 147.208333,318.015026 147.208333,316.8 C147.208333,315.584974 148.195706,314.6 149.41369,314.6 Z M165.58631,314.6 C166.804294,314.6 167.791667,315.584974 167.791667,316.8 C167.791667,318.015026 166.804294,319 165.58631,319 C164.368325,319 163.380952,318.015026 163.380952,316.8 C163.380952,315.584974 164.368325,314.6 165.58631,314.6 Z M181.758929,314.50774 C182.976913,314.50774 183.964286,315.492714 183.964286,316.70774 C183.964286,317.922766 182.976913,318.90774 181.758929,318.90774 C180.540944,318.90774 179.553571,317.922766 179.553571,316.70774 C179.553571,315.492714 180.540944,314.50774 181.758929,314.50774 Z M197.931548,314.50774 C199.149532,314.50774 200.136905,315.492714 200.136905,316.70774 C200.136905,317.922766 199.149532,318.90774 197.931548,318.90774 C196.713563,318.90774 195.72619,317.922766 195.72619,316.70774 C195.72619,315.492714 196.713563,314.50774 197.931548,314.50774 Z M214.104167,314.50774 C215.322151,314.50774 216.309524,315.492714 216.309524,316.70774 C216.309524,317.922766 215.322151,318.90774 214.104167,318.90774 C212.886182,318.90774 211.89881,317.922766 211.89881,316.70774 C211.89881,315.492714 212.886182,314.50774 214.104167,314.50774 Z M230.276786,314.50774 C231.49477,314.50774 232.482143,315.492714 232.482143,316.70774 C232.482143,317.922766 231.49477,318.90774 230.276786,318.90774 C229.058801,318.90774 228.071429,317.922766 228.071429,316.70774 C228.071429,315.492714 229.058801,314.50774 230.276786,314.50774 Z M246.449405,314.50774 C247.667389,314.50774 248.654762,315.492714 248.654762,316.70774 C248.654762,317.922766 247.667389,318.90774 246.449405,318.90774 C245.23142,318.90774 244.244048,317.922766 244.244048,316.70774 C244.244048,315.492714 245.23142,314.50774 246.449405,314.50774 Z M262.622024,314.50774 C263.840008,314.50774 264.827381,315.492714 264.827381,316.70774 C264.827381,317.922766 263.840008,318.90774 262.622024,318.90774 C261.404039,318.90774 260.416667,317.922766 260.416667,316.70774 C260.416667,315.492714 261.404039,314.50774 262.622024,314.50774 Z M278.794643,314.50774 C280.012627,314.50774 281,315.492714 281,316.70774 C281,317.922766 280.012627,318.90774 278.794643,318.90774 C277.576658,318.90774 276.589286,317.922766 276.589286,316.70774 C276.589286,315.492714 277.576658,314.50774 278.794643,314.50774 Z M165.58631,298.466667 C166.804294,298.466667 167.791667,299.451641 167.791667,300.666667 C167.791667,301.881693 166.804294,302.866667 165.58631,302.866667 C164.368325,302.866667 163.380952,301.881693 163.380952,300.666667 C163.380952,299.451641 164.368325,298.466667 165.58631,298.466667 Z M181.758929,298.374406 C182.976913,298.374406 183.964286,299.35938 183.964286,300.574406 C183.964286,301.789432 182.976913,302.774406 181.758929,302.774406 C180.540944,302.774406 179.553571,301.789432 179.553571,300.574406 C179.553571,299.35938 180.540944,298.374406 181.758929,298.374406 Z M197.931548,298.374406 C199.149532,298.374406 200.136905,299.35938 200.136905,300.574406 C200.136905,301.789432 199.149532,302.774406 197.931548,302.774406 C196.713563,302.774406 195.72619,301.789432 195.72619,300.574406 C195.72619,299.35938 196.713563,298.374406 197.931548,298.374406 Z M214.104167,298.374406 C215.322151,298.374406 216.309524,299.35938 216.309524,300.574406 C216.309524,301.789432 215.322151,302.774406 214.104167,302.774406 C212.886182,302.774406 211.89881,301.789432 211.89881,300.574406 C211.89881,299.35938 212.886182,298.374406 214.104167,298.374406 Z M36.2053571,298.466667 C37.4233423,298.466667 38.4107143,299.451641 38.4107143,300.666667 C38.4107143,301.881693 37.4233423,302.866667 36.2053571,302.866667 C34.987372,302.866667 34,301.881693 34,300.666667 C34,299.451641 34.987372,298.466667 36.2053571,298.466667 Z M68.5505952,298.466667 C69.7685798,298.466667 70.7559524,299.451641 70.7559524,300.666667 C70.7559524,301.881693 69.7685798,302.866667 68.5505952,302.866667 C67.3326101,302.866667 66.3452381,301.881693 66.3452381,300.666667 C66.3452381,299.451641 67.3326101,298.466667 68.5505952,298.466667 Z M100.895833,298.466667 C102.113818,298.466667 103.10119,299.451641 103.10119,300.666667 C103.10119,301.881693 102.113818,302.866667 100.895833,302.866667 C99.6778488,302.866667 98.6904762,301.881693 98.6904762,300.666667 C98.6904762,299.451641 99.6778488,298.466667 100.895833,298.466667 Z M133.241071,298.466667 C134.459056,298.466667 135.446429,299.451641 135.446429,300.666667 C135.446429,301.881693 134.459056,302.866667 133.241071,302.866667 C132.023087,302.866667 131.035714,301.881693 131.035714,300.666667 C131.035714,299.451641 132.023087,298.466667 133.241071,298.466667 Z M149.41369,298.466667 C150.631675,298.466667 151.619048,299.451641 151.619048,300.666667 C151.619048,301.881693 150.631675,302.866667 149.41369,302.866667 C148.195706,302.866667 147.208333,301.881693 147.208333,300.666667 C147.208333,299.451641 148.195706,298.466667 149.41369,298.466667 Z M246.449405,298.374406 C247.667389,298.374406 248.654762,299.35938 248.654762,300.574406 C248.654762,301.789432 247.667389,302.774406 246.449405,302.774406 C245.23142,302.774406 244.244048,301.789432 244.244048,300.574406 C244.244048,299.35938 245.23142,298.374406 246.449405,298.374406 Z M52.3779762,298.466667 C53.5959613,298.466667 54.5833333,299.451641 54.5833333,300.666667 C54.5833333,301.881693 53.5959613,302.866667 52.3779762,302.866667 C51.1599911,302.866667 50.172619,301.881693 50.172619,300.666667 C50.172619,299.451641 51.1599911,298.466667 52.3779762,298.466667 Z M262.622024,298.374406 C263.840008,298.374406 264.827381,299.35938 264.827381,300.574406 C264.827381,301.789432 263.840008,302.774406 262.622024,302.774406 C261.404039,302.774406 260.416667,301.789432 260.416667,300.574406 C260.416667,299.35938 261.404039,298.374406 262.622024,298.374406 Z M84.7232143,298.466667 C85.9411989,298.466667 86.9285714,299.451641 86.9285714,300.666667 C86.9285714,301.881693 85.9411989,302.866667 84.7232143,302.866667 C83.5052297,302.866667 82.5178571,301.881693 82.5178571,300.666667 C82.5178571,299.451641 83.5052297,298.466667 84.7232143,298.466667 Z M278.794643,298.374406 C280.012627,298.374406 281,299.35938 281,300.574406 C281,301.789432 280.012627,302.774406 278.794643,302.774406 C277.576658,302.774406 276.589286,301.789432 276.589286,300.574406 C276.589286,299.35938 277.576658,298.374406 278.794643,298.374406 Z M117.068452,298.466667 C118.286437,298.466667 119.27381,299.451641 119.27381,300.666667 C119.27381,301.881693 118.286437,302.866667 117.068452,302.866667 C115.850468,302.866667 114.863095,301.881693 114.863095,300.666667 C114.863095,299.451641 115.850468,298.466667 117.068452,298.466667 Z M230.276786,298.374406 C231.49477,298.374406 232.482143,299.35938 232.482143,300.574406 C232.482143,301.789432 231.49477,302.774406 230.276786,302.774406 C229.058801,302.774406 228.071429,301.789432 228.071429,300.574406 C228.071429,299.35938 229.058801,298.374406 230.276786,298.374406 Z M68.5505952,282.333333 C69.7685798,282.333333 70.7559524,283.318307 70.7559524,284.533333 C70.7559524,285.748359 69.7685798,286.733333 68.5505952,286.733333 C67.3326101,286.733333 66.3452381,285.748359 66.3452381,284.533333 C66.3452381,283.318307 67.3326101,282.333333 68.5505952,282.333333 Z M100.895833,282.333333 C102.113818,282.333333 103.10119,283.318307 103.10119,284.533333 C103.10119,285.748359 102.113818,286.733333 100.895833,286.733333 C99.6778488,286.733333 98.6904762,285.748359 98.6904762,284.533333 C98.6904762,283.318307 99.6778488,282.333333 100.895833,282.333333 Z M117.068452,282.333333 C118.286437,282.333333 119.27381,283.318307 119.27381,284.533333 C119.27381,285.748359 118.286437,286.733333 117.068452,286.733333 C115.850468,286.733333 114.863095,285.748359 114.863095,284.533333 C114.863095,283.318307 115.850468,282.333333 117.068452,282.333333 Z M133.241071,282.333333 C134.459056,282.333333 135.446429,283.318307 135.446429,284.533333 C135.446429,285.748359 134.459056,286.733333 133.241071,286.733333 C132.023087,286.733333 131.035714,285.748359 131.035714,284.533333 C131.035714,283.318307 132.023087,282.333333 133.241071,282.333333 Z M149.41369,282.333333 C150.631675,282.333333 151.619048,283.318307 151.619048,284.533333 C151.619048,285.748359 150.631675,286.733333 149.41369,286.733333 C148.195706,286.733333 147.208333,285.748359 147.208333,284.533333 C147.208333,283.318307 148.195706,282.333333 149.41369,282.333333 Z M36.2053571,282.333333 C37.4233423,282.333333 38.4107143,283.318307 38.4107143,284.533333 C38.4107143,285.748359 37.4233423,286.733333 36.2053571,286.733333 C34.987372,286.733333 34,285.748359 34,284.533333 C34,283.318307 34.987372,282.333333 36.2053571,282.333333 Z M52.3779762,282.333333 C53.5959613,282.333333 54.5833333,283.318307 54.5833333,284.533333 C54.5833333,285.748359 53.5959613,286.733333 52.3779762,286.733333 C51.1599911,286.733333 50.172619,285.748359 50.172619,284.533333 C50.172619,283.318307 51.1599911,282.333333 52.3779762,282.333333 Z M84.7232143,282.333333 C85.9411989,282.333333 86.9285714,283.318307 86.9285714,284.533333 C86.9285714,285.748359 85.9411989,286.733333 84.7232143,286.733333 C83.5052297,286.733333 82.5178571,285.748359 82.5178571,284.533333 C82.5178571,283.318307 83.5052297,282.333333 84.7232143,282.333333 Z M165.58631,282.333333 C166.804294,282.333333 167.791667,283.318307 167.791667,284.533333 C167.791667,285.748359 166.804294,286.733333 165.58631,286.733333 C164.368325,286.733333 163.380952,285.748359 163.380952,284.533333 C163.380952,283.318307 164.368325,282.333333 165.58631,282.333333 Z M181.758929,282.241073 C182.976913,282.241073 183.964286,283.226047 183.964286,284.441073 C183.964286,285.656099 182.976913,286.641073 181.758929,286.641073 C180.540944,286.641073 179.553571,285.656099 179.553571,284.441073 C179.553571,283.226047 180.540944,282.241073 181.758929,282.241073 Z M197.931548,282.241073 C199.149532,282.241073 200.136905,283.226047 200.136905,284.441073 C200.136905,285.656099 199.149532,286.641073 197.931548,286.641073 C196.713563,286.641073 195.72619,285.656099 195.72619,284.441073 C195.72619,283.226047 196.713563,282.241073 197.931548,282.241073 Z M214.104167,282.241073 C215.322151,282.241073 216.309524,283.226047 216.309524,284.441073 C216.309524,285.656099 215.322151,286.641073 214.104167,286.641073 C212.886182,286.641073 211.89881,285.656099 211.89881,284.441073 C211.89881,283.226047 212.886182,282.241073 214.104167,282.241073 Z M230.276786,282.241073 C231.49477,282.241073 232.482143,283.226047 232.482143,284.441073 C232.482143,285.656099 231.49477,286.641073 230.276786,286.641073 C229.058801,286.641073 228.071429,285.656099 228.071429,284.441073 C228.071429,283.226047 229.058801,282.241073 230.276786,282.241073 Z M246.449405,282.241073 C247.667389,282.241073 248.654762,283.226047 248.654762,284.441073 C248.654762,285.656099 247.667389,286.641073 246.449405,286.641073 C245.23142,286.641073 244.244048,285.656099 244.244048,284.441073 C244.244048,283.226047 245.23142,282.241073 246.449405,282.241073 Z M262.622024,282.241073 C263.840008,282.241073 264.827381,283.226047 264.827381,284.441073 C264.827381,285.656099 263.840008,286.641073 262.622024,286.641073 C261.404039,286.641073 260.416667,285.656099 260.416667,284.441073 C260.416667,283.226047 261.404039,282.241073 262.622024,282.241073 Z M278.794643,282.241073 C280.012627,282.241073 281,283.226047 281,284.441073 C281,285.656099 280.012627,286.641073 278.794643,286.641073 C277.576658,286.641073 276.589286,285.656099 276.589286,284.441073 C276.589286,283.226047 277.576658,282.241073 278.794643,282.241073 Z M36.2053571,266.2 C37.4233423,266.2 38.4107143,267.184974 38.4107143,268.4 C38.4107143,269.615026 37.4233423,270.6 36.2053571,270.6 C34.987372,270.6 34,269.615026 34,268.4 C34,267.184974 34.987372,266.2 36.2053571,266.2 Z M52.3779762,266.2 C53.5959613,266.2 54.5833333,267.184974 54.5833333,268.4 C54.5833333,269.615026 53.5959613,270.6 52.3779762,270.6 C51.1599911,270.6 50.172619,269.615026 50.172619,268.4 C50.172619,267.184974 51.1599911,266.2 52.3779762,266.2 Z M68.5505952,266.2 C69.7685798,266.2 70.7559524,267.184974 70.7559524,268.4 C70.7559524,269.615026 69.7685798,270.6 68.5505952,270.6 C67.3326101,270.6 66.3452381,269.615026 66.3452381,268.4 C66.3452381,267.184974 67.3326101,266.2 68.5505952,266.2 Z M84.7232143,266.2 C85.9411989,266.2 86.9285714,267.184974 86.9285714,268.4 C86.9285714,269.615026 85.9411989,270.6 84.7232143,270.6 C83.5052297,270.6 82.5178571,269.615026 82.5178571,268.4 C82.5178571,267.184974 83.5052297,266.2 84.7232143,266.2 Z M100.895833,266.2 C102.113818,266.2 103.10119,267.184974 103.10119,268.4 C103.10119,269.615026 102.113818,270.6 100.895833,270.6 C99.6778488,270.6 98.6904762,269.615026 98.6904762,268.4 C98.6904762,267.184974 99.6778488,266.2 100.895833,266.2 Z M117.068452,266.2 C118.286437,266.2 119.27381,267.184974 119.27381,268.4 C119.27381,269.615026 118.286437,270.6 117.068452,270.6 C115.850468,270.6 114.863095,269.615026 114.863095,268.4 C114.863095,267.184974 115.850468,266.2 117.068452,266.2 Z M133.241071,266.2 C134.459056,266.2 135.446429,267.184974 135.446429,268.4 C135.446429,269.615026 134.459056,270.6 133.241071,270.6 C132.023087,270.6 131.035714,269.615026 131.035714,268.4 C131.035714,267.184974 132.023087,266.2 133.241071,266.2 Z M149.41369,266.2 C150.631675,266.2 151.619048,267.184974 151.619048,268.4 C151.619048,269.615026 150.631675,270.6 149.41369,270.6 C148.195706,270.6 147.208333,269.615026 147.208333,268.4 C147.208333,267.184974 148.195706,266.2 149.41369,266.2 Z M165.58631,266.2 C166.804294,266.2 167.791667,267.184974 167.791667,268.4 C167.791667,269.615026 166.804294,270.6 165.58631,270.6 C164.368325,270.6 163.380952,269.615026 163.380952,268.4 C163.380952,267.184974 164.368325,266.2 165.58631,266.2 Z M181.758929,266.10774 C182.976913,266.10774 183.964286,267.092714 183.964286,268.30774 C183.964286,269.522766 182.976913,270.50774 181.758929,270.50774 C180.540944,270.50774 179.553571,269.522766 179.553571,268.30774 C179.553571,267.092714 180.540944,266.10774 181.758929,266.10774 Z M197.931548,266.10774 C199.149532,266.10774 200.136905,267.092714 200.136905,268.30774 C200.136905,269.522766 199.149532,270.50774 197.931548,270.50774 C196.713563,270.50774 195.72619,269.522766 195.72619,268.30774 C195.72619,267.092714 196.713563,266.10774 197.931548,266.10774 Z M214.104167,266.10774 C215.322151,266.10774 216.309524,267.092714 216.309524,268.30774 C216.309524,269.522766 215.322151,270.50774 214.104167,270.50774 C212.886182,270.50774 211.89881,269.522766 211.89881,268.30774 C211.89881,267.092714 212.886182,266.10774 214.104167,266.10774 Z M230.276786,266.10774 C231.49477,266.10774 232.482143,267.092714 232.482143,268.30774 C232.482143,269.522766 231.49477,270.50774 230.276786,270.50774 C229.058801,270.50774 228.071429,269.522766 228.071429,268.30774 C228.071429,267.092714 229.058801,266.10774 230.276786,266.10774 Z M246.449405,266.10774 C247.667389,266.10774 248.654762,267.092714 248.654762,268.30774 C248.654762,269.522766 247.667389,270.50774 246.449405,270.50774 C245.23142,270.50774 244.244048,269.522766 244.244048,268.30774 C244.244048,267.092714 245.23142,266.10774 246.449405,266.10774 Z M262.622024,266.10774 C263.840008,266.10774 264.827381,267.092714 264.827381,268.30774 C264.827381,269.522766 263.840008,270.50774 262.622024,270.50774 C261.404039,270.50774 260.416667,269.522766 260.416667,268.30774 C260.416667,267.092714 261.404039,266.10774 262.622024,266.10774 Z M278.794643,266.10774 C280.012627,266.10774 281,267.092714 281,268.30774 C281,269.522766 280.012627,270.50774 278.794643,270.50774 C277.576658,270.50774 276.589286,269.522766 276.589286,268.30774 C276.589286,267.092714 277.576658,266.10774 278.794643,266.10774 Z M36.2053571,250.066667 C37.4233423,250.066667 38.4107143,251.05164 38.4107143,252.266667 C38.4107143,253.481693 37.4233423,254.466667 36.2053571,254.466667 C34.987372,254.466667 34,253.481693 34,252.266667 C34,251.05164 34.987372,250.066667 36.2053571,250.066667 Z M52.3779762,250.066667 C53.5959613,250.066667 54.5833333,251.05164 54.5833333,252.266667 C54.5833333,253.481693 53.5959613,254.466667 52.3779762,254.466667 C51.1599911,254.466667 50.172619,253.481693 50.172619,252.266667 C50.172619,251.05164 51.1599911,250.066667 52.3779762,250.066667 Z M68.5505952,250.066667 C69.7685798,250.066667 70.7559524,251.05164 70.7559524,252.266667 C70.7559524,253.481693 69.7685798,254.466667 68.5505952,254.466667 C67.3326101,254.466667 66.3452381,253.481693 66.3452381,252.266667 C66.3452381,251.05164 67.3326101,250.066667 68.5505952,250.066667 Z M84.7232143,250.066667 C85.9411989,250.066667 86.9285714,251.05164 86.9285714,252.266667 C86.9285714,253.481693 85.9411989,254.466667 84.7232143,254.466667 C83.5052297,254.466667 82.5178571,253.481693 82.5178571,252.266667 C82.5178571,251.05164 83.5052297,250.066667 84.7232143,250.066667 Z M100.895833,250.066667 C102.113818,250.066667 103.10119,251.05164 103.10119,252.266667 C103.10119,253.481693 102.113818,254.466667 100.895833,254.466667 C99.6778488,254.466667 98.6904762,253.481693 98.6904762,252.266667 C98.6904762,251.05164 99.6778488,250.066667 100.895833,250.066667 Z M117.068452,250.066667 C118.286437,250.066667 119.27381,251.05164 119.27381,252.266667 C119.27381,253.481693 118.286437,254.466667 117.068452,254.466667 C115.850468,254.466667 114.863095,253.481693 114.863095,252.266667 C114.863095,251.05164 115.850468,250.066667 117.068452,250.066667 Z M133.241071,250.066667 C134.459056,250.066667 135.446429,251.05164 135.446429,252.266667 C135.446429,253.481693 134.459056,254.466667 133.241071,254.466667 C132.023087,254.466667 131.035714,253.481693 131.035714,252.266667 C131.035714,251.05164 132.023087,250.066667 133.241071,250.066667 Z M149.41369,250.066667 C150.631675,250.066667 151.619048,251.05164 151.619048,252.266667 C151.619048,253.481693 150.631675,254.466667 149.41369,254.466667 C148.195706,254.466667 147.208333,253.481693 147.208333,252.266667 C147.208333,251.05164 148.195706,250.066667 149.41369,250.066667 Z M165.58631,250.066667 C166.804294,250.066667 167.791667,251.05164 167.791667,252.266667 C167.791667,253.481693 166.804294,254.466667 165.58631,254.466667 C164.368325,254.466667 163.380952,253.481693 163.380952,252.266667 C163.380952,251.05164 164.368325,250.066667 165.58631,250.066667 Z M78.8422619,2.2 C78.8422619,3.4150259 77.8548893,4.4 76.6369048,4.4 C75.4189202,4.4 74.4315476,3.4150259 74.4315476,2.2 C74.4315476,0.98497355 75.4189202,-1.01621849e-13 76.6369048,-1.01696429e-13 C77.8548893,-1.01771009e-13 78.8422619,0.98497355 78.8422619,2.2 Z M78.8422619,18.3333333 C78.8422619,19.5483592 77.8548893,20.5333333 76.6369048,20.5333333 C75.4189202,20.5333333 74.4315476,19.5483592 74.4315476,18.3333333 C74.4315476,17.1183074 75.4189202,16.1333333 76.6369048,16.1333333 C77.8548893,16.1333333 78.8422619,17.1183074 78.8422619,18.3333333 Z M78.8422619,34.4666667 C78.8422619,35.6816926 77.8548893,36.6666667 76.6369048,36.6666667 C75.4189202,36.6666667 74.4315476,35.6816926 74.4315476,34.4666667 C74.4315476,33.2516408 75.4189202,32.2666667 76.6369048,32.2666667 C77.8548893,32.2666667 78.8422619,33.2516408 78.8422619,34.4666667 Z M78.8422619,50.6 C78.8422619,51.8150259 77.8548893,52.8 76.6369048,52.8 C75.4189202,52.8 74.4315476,51.8150259 74.4315476,50.6 C74.4315476,49.3849741 75.4189202,48.4 76.6369048,48.4 C77.8548893,48.4 78.8422619,49.3849741 78.8422619,50.6 Z M78.8422619,66.7333333 C78.8422619,67.9483592 77.8548893,68.9333333 76.6369048,68.9333333 C75.4189202,68.9333333 74.4315476,67.9483592 74.4315476,66.7333333 C74.4315476,65.5183074 75.4189202,64.5333333 76.6369048,64.5333333 C77.8548893,64.5333333 78.8422619,65.5183074 78.8422619,66.7333333 Z M78.8422619,82.8666667 C78.8422619,84.0816926 77.8548893,85.0666667 76.6369048,85.0666667 C75.4189202,85.0666667 74.4315476,84.0816926 74.4315476,82.8666667 C74.4315476,81.6516408 75.4189202,80.6666667 76.6369048,80.6666667 C77.8548893,80.6666667 78.8422619,81.6516408 78.8422619,82.8666667 Z M78.8422619,99 C78.8422619,100.215026 77.8548893,101.2 76.6369048,101.2 C75.4189202,101.2 74.4315476,100.215026 74.4315476,99 C74.4315476,97.7849741 75.4189202,96.8 76.6369048,96.8 C77.8548893,96.8 78.8422619,97.7849741 78.8422619,99 Z M78.8422619,115.133333 C78.8422619,116.348359 77.8548893,117.333333 76.6369048,117.333333 C75.4189202,117.333333 74.4315476,116.348359 74.4315476,115.133333 C74.4315476,113.918307 75.4189202,112.933333 76.6369048,112.933333 C77.8548893,112.933333 78.8422619,113.918307 78.8422619,115.133333 Z M78.8422619,131.266667 C78.8422619,132.481693 77.8548893,133.466667 76.6369048,133.466667 C75.4189202,133.466667 74.4315476,132.481693 74.4315476,131.266667 C74.4315476,130.051641 75.4189202,129.066667 76.6369048,129.066667 C77.8548893,129.066667 78.8422619,130.051641 78.8422619,131.266667 Z M78.8422619,147.4 C78.8422619,148.615026 77.8548893,149.6 76.6369048,149.6 C75.4189202,149.6 74.4315476,148.615026 74.4315476,147.4 C74.4315476,146.184974 75.4189202,145.2 76.6369048,145.2 C77.8548893,145.2 78.8422619,146.184974 78.8422619,147.4 Z M78.8422619,163.533333 C78.8422619,164.748359 77.8548893,165.733333 76.6369048,165.733333 C75.4189202,165.733333 74.4315476,164.748359 74.4315476,163.533333 C74.4315476,162.318307 75.4189202,161.333333 76.6369048,161.333333 C77.8548893,161.333333 78.8422619,162.318307 78.8422619,163.533333 Z M78.8422619,179.666667 C78.8422619,180.881693 77.8548893,181.866667 76.6369048,181.866667 C75.4189202,181.866667 74.4315476,180.881693 74.4315476,179.666667 C74.4315476,178.451641 75.4189202,177.466667 76.6369048,177.466667 C77.8548893,177.466667 78.8422619,178.451641 78.8422619,179.666667 Z M78.8422619,195.8 C78.8422619,197.015026 77.8548893,198 76.6369048,198 C75.4189202,198 74.4315476,197.015026 74.4315476,195.8 C74.4315476,194.584974 75.4189202,193.6 76.6369048,193.6 C77.8548893,193.6 78.8422619,194.584974 78.8422619,195.8 Z M78.8422619,211.933333 C78.8422619,213.148359 77.8548893,214.133333 76.6369048,214.133333 C75.4189202,214.133333 74.4315476,213.148359 74.4315476,211.933333 C74.4315476,210.718307 75.4189202,209.733333 76.6369048,209.733333 C77.8548893,209.733333 78.8422619,210.718307 78.8422619,211.933333 Z M95.014881,99 C95.014881,100.215026 94.0275084,101.2 92.8095238,101.2 C91.5915392,101.2 90.6041667,100.215026 90.6041667,99 C90.6041667,97.7849741 91.5915392,96.8 92.8095238,96.8 C94.0275084,96.8 95.014881,97.7849741 95.014881,99 Z M95.014881,115.133333 C95.014881,116.348359 94.0275084,117.333333 92.8095238,117.333333 C91.5915392,117.333333 90.6041667,116.348359 90.6041667,115.133333 C90.6041667,113.918307 91.5915392,112.933333 92.8095238,112.933333 C94.0275084,112.933333 95.014881,113.918307 95.014881,115.133333 Z M95.014881,131.266667 C95.014881,132.481693 94.0275084,133.466667 92.8095238,133.466667 C91.5915392,133.466667 90.6041667,132.481693 90.6041667,131.266667 C90.6041667,130.051641 91.5915392,129.066667 92.8095238,129.066667 C94.0275084,129.066667 95.014881,130.051641 95.014881,131.266667 Z M95.014881,147.4 C95.014881,148.615026 94.0275084,149.6 92.8095238,149.6 C91.5915392,149.6 90.6041667,148.615026 90.6041667,147.4 C90.6041667,146.184974 91.5915392,145.2 92.8095238,145.2 C94.0275084,145.2 95.014881,146.184974 95.014881,147.4 Z M95.014881,2.2 C95.014881,3.4150259 94.0275084,4.4 92.8095238,4.4 C91.5915392,4.4 90.6041667,3.4150259 90.6041667,2.2 C90.6041667,0.98497355 91.5915392,-1.69567498e-13 92.8095238,-1.69642078e-13 C94.0275084,-1.69716658e-13 95.014881,0.98497355 95.014881,2.2 Z M95.014881,34.4666667 C95.014881,35.6816926 94.0275084,36.6666667 92.8095238,36.6666667 C91.5915392,36.6666667 90.6041667,35.6816926 90.6041667,34.4666667 C90.6041667,33.2516408 91.5915392,32.2666667 92.8095238,32.2666667 C94.0275084,32.2666667 95.014881,33.2516408 95.014881,34.4666667 Z M95.014881,66.7333333 C95.014881,67.9483592 94.0275084,68.9333333 92.8095238,68.9333333 C91.5915392,68.9333333 90.6041667,67.9483592 90.6041667,66.7333333 C90.6041667,65.5183074 91.5915392,64.5333333 92.8095238,64.5333333 C94.0275084,64.5333333 95.014881,65.5183074 95.014881,66.7333333 Z M95.014881,82.8666667 C95.014881,84.0816926 94.0275084,85.0666667 92.8095238,85.0666667 C91.5915392,85.0666667 90.6041667,84.0816926 90.6041667,82.8666667 C90.6041667,81.6516408 91.5915392,80.6666667 92.8095238,80.6666667 C94.0275084,80.6666667 95.014881,81.6516408 95.014881,82.8666667 Z M95.014881,179.666667 C95.014881,180.881693 94.0275084,181.866667 92.8095238,181.866667 C91.5915392,181.866667 90.6041667,180.881693 90.6041667,179.666667 C90.6041667,178.451641 91.5915392,177.466667 92.8095238,177.466667 C94.0275084,177.466667 95.014881,178.451641 95.014881,179.666667 Z M95.014881,195.8 C95.014881,197.015026 94.0275084,198 92.8095238,198 C91.5915392,198 90.6041667,197.015026 90.6041667,195.8 C90.6041667,194.584974 91.5915392,193.6 92.8095238,193.6 C94.0275084,193.6 95.014881,194.584974 95.014881,195.8 Z M95.014881,18.3333333 C95.014881,19.5483592 94.0275084,20.5333333 92.8095238,20.5333333 C91.5915392,20.5333333 90.6041667,19.5483592 90.6041667,18.3333333 C90.6041667,17.1183074 91.5915392,16.1333333 92.8095238,16.1333333 C94.0275084,16.1333333 95.014881,17.1183074 95.014881,18.3333333 Z M95.014881,211.933333 C95.014881,213.148359 94.0275084,214.133333 92.8095238,214.133333 C91.5915392,214.133333 90.6041667,213.148359 90.6041667,211.933333 C90.6041667,210.718307 91.5915392,209.733333 92.8095238,209.733333 C94.0275084,209.733333 95.014881,210.718307 95.014881,211.933333 Z M95.014881,50.6 C95.014881,51.8150259 94.0275084,52.8 92.8095238,52.8 C91.5915392,52.8 90.6041667,51.8150259 90.6041667,50.6 C90.6041667,49.3849741 91.5915392,48.4 92.8095238,48.4 C94.0275084,48.4 95.014881,49.3849741 95.014881,50.6 Z M95.014881,163.533333 C95.014881,164.748359 94.0275084,165.733333 92.8095238,165.733333 C91.5915392,165.733333 90.6041667,164.748359 90.6041667,163.533333 C90.6041667,162.318307 91.5915392,161.333333 92.8095238,161.333333 C94.0275084,161.333333 95.014881,162.318307 95.014881,163.533333 Z M111.1875,2.2 C111.1875,3.4150259 110.200127,4.4 108.982143,4.4 C107.764158,4.4 106.776786,3.4150259 106.776786,2.2 C106.776786,0.98497355 107.764158,-2.13976419e-13 108.982143,-2.14050999e-13 C110.200127,-2.14125579e-13 111.1875,0.98497355 111.1875,2.2 Z M111.1875,34.4666667 C111.1875,35.6816926 110.200127,36.6666667 108.982143,36.6666667 C107.764158,36.6666667 106.776786,35.6816926 106.776786,34.4666667 C106.776786,33.2516408 107.764158,32.2666667 108.982143,32.2666667 C110.200127,32.2666667 111.1875,33.2516408 111.1875,34.4666667 Z M111.1875,50.6 C111.1875,51.8150259 110.200127,52.8 108.982143,52.8 C107.764158,52.8 106.776786,51.8150259 106.776786,50.6 C106.776786,49.3849741 107.764158,48.4 108.982143,48.4 C110.200127,48.4 111.1875,49.3849741 111.1875,50.6 Z M111.1875,66.7333333 C111.1875,67.9483592 110.200127,68.9333333 108.982143,68.9333333 C107.764158,68.9333333 106.776786,67.9483592 106.776786,66.7333333 C106.776786,65.5183074 107.764158,64.5333333 108.982143,64.5333333 C110.200127,64.5333333 111.1875,65.5183074 111.1875,66.7333333 Z M111.1875,82.8666667 C111.1875,84.0816926 110.200127,85.0666667 108.982143,85.0666667 C107.764158,85.0666667 106.776786,84.0816926 106.776786,82.8666667 C106.776786,81.6516408 107.764158,80.6666667 108.982143,80.6666667 C110.200127,80.6666667 111.1875,81.6516408 111.1875,82.8666667 Z M111.1875,18.3333333 C111.1875,19.5483592 110.200127,20.5333333 108.982143,20.5333333 C107.764158,20.5333333 106.776786,19.5483592 106.776786,18.3333333 C106.776786,17.1183074 107.764158,16.1333333 108.982143,16.1333333 C110.200127,16.1333333 111.1875,17.1183074 111.1875,18.3333333 Z M111.1875,99 C111.1875,100.215026 110.200127,101.2 108.982143,101.2 C107.764158,101.2 106.776786,100.215026 106.776786,99 C106.776786,97.7849741 107.764158,96.8 108.982143,96.8 C110.200127,96.8 111.1875,97.7849741 111.1875,99 Z M111.1875,115.133333 C111.1875,116.348359 110.200127,117.333333 108.982143,117.333333 C107.764158,117.333333 106.776786,116.348359 106.776786,115.133333 C106.776786,113.918307 107.764158,112.933333 108.982143,112.933333 C110.200127,112.933333 111.1875,113.918307 111.1875,115.133333 Z M111.1875,131.266667 C111.1875,132.481693 110.200127,133.466667 108.982143,133.466667 C107.764158,133.466667 106.776786,132.481693 106.776786,131.266667 C106.776786,130.051641 107.764158,129.066667 108.982143,129.066667 C110.200127,129.066667 111.1875,130.051641 111.1875,131.266667 Z M111.1875,147.4 C111.1875,148.615026 110.200127,149.6 108.982143,149.6 C107.764158,149.6 106.776786,148.615026 106.776786,147.4 C106.776786,146.184974 107.764158,145.2 108.982143,145.2 C110.200127,145.2 111.1875,146.184974 111.1875,147.4 Z M111.1875,163.533333 C111.1875,164.748359 110.200127,165.733333 108.982143,165.733333 C107.764158,165.733333 106.776786,164.748359 106.776786,163.533333 C106.776786,162.318307 107.764158,161.333333 108.982143,161.333333 C110.200127,161.333333 111.1875,162.318307 111.1875,163.533333 Z M111.1875,179.666667 C111.1875,180.881693 110.200127,181.866667 108.982143,181.866667 C107.764158,181.866667 106.776786,180.881693 106.776786,179.666667 C106.776786,178.451641 107.764158,177.466667 108.982143,177.466667 C110.200127,177.466667 111.1875,178.451641 111.1875,179.666667 Z M111.1875,195.8 C111.1875,197.015026 110.200127,198 108.982143,198 C107.764158,198 106.776786,197.015026 106.776786,195.8 C106.776786,194.584974 107.764158,193.6 108.982143,193.6 C110.200127,193.6 111.1875,194.584974 111.1875,195.8 Z M111.1875,211.933333 C111.1875,213.148359 110.200127,214.133333 108.982143,214.133333 C107.764158,214.133333 106.776786,213.148359 106.776786,211.933333 C106.776786,210.718307 107.764158,209.733333 108.982143,209.733333 C110.200127,209.733333 111.1875,210.718307 111.1875,211.933333 Z M127.360119,2.2 C127.360119,3.4150259 126.372746,4.4 125.154762,4.4 C123.936777,4.4 122.949405,3.4150259 122.949405,2.2 C122.949405,0.98497355 123.936777,1.87036137e-13 125.154762,1.86961557e-13 C126.372746,1.86886977e-13 127.360119,0.98497355 127.360119,2.2 Z M127.360119,18.3333333 C127.360119,19.5483592 126.372746,20.5333333 125.154762,20.5333333 C123.936777,20.5333333 122.949405,19.5483592 122.949405,18.3333333 C122.949405,17.1183074 123.936777,16.1333333 125.154762,16.1333333 C126.372746,16.1333333 127.360119,17.1183074 127.360119,18.3333333 Z M127.360119,34.4666667 C127.360119,35.6816926 126.372746,36.6666667 125.154762,36.6666667 C123.936777,36.6666667 122.949405,35.6816926 122.949405,34.4666667 C122.949405,33.2516408 123.936777,32.2666667 125.154762,32.2666667 C126.372746,32.2666667 127.360119,33.2516408 127.360119,34.4666667 Z M127.360119,50.6 C127.360119,51.8150259 126.372746,52.8 125.154762,52.8 C123.936777,52.8 122.949405,51.8150259 122.949405,50.6 C122.949405,49.3849741 123.936777,48.4 125.154762,48.4 C126.372746,48.4 127.360119,49.3849741 127.360119,50.6 Z M127.360119,66.7333333 C127.360119,67.9483592 126.372746,68.9333333 125.154762,68.9333333 C123.936777,68.9333333 122.949405,67.9483592 122.949405,66.7333333 C122.949405,65.5183074 123.936777,64.5333333 125.154762,64.5333333 C126.372746,64.5333333 127.360119,65.5183074 127.360119,66.7333333 Z M127.360119,82.8666667 C127.360119,84.0816926 126.372746,85.0666667 125.154762,85.0666667 C123.936777,85.0666667 122.949405,84.0816926 122.949405,82.8666667 C122.949405,81.6516408 123.936777,80.6666667 125.154762,80.6666667 C126.372746,80.6666667 127.360119,81.6516408 127.360119,82.8666667 Z M127.360119,99 C127.360119,100.215026 126.372746,101.2 125.154762,101.2 C123.936777,101.2 122.949405,100.215026 122.949405,99 C122.949405,97.7849741 123.936777,96.8 125.154762,96.8 C126.372746,96.8 127.360119,97.7849741 127.360119,99 Z M127.360119,115.133333 C127.360119,116.348359 126.372746,117.333333 125.154762,117.333333 C123.936777,117.333333 122.949405,116.348359 122.949405,115.133333 C122.949405,113.918307 123.936777,112.933333 125.154762,112.933333 C126.372746,112.933333 127.360119,113.918307 127.360119,115.133333 Z M127.360119,131.266667 C127.360119,132.481693 126.372746,133.466667 125.154762,133.466667 C123.936777,133.466667 122.949405,132.481693 122.949405,131.266667 C122.949405,130.051641 123.936777,129.066667 125.154762,129.066667 C126.372746,129.066667 127.360119,130.051641 127.360119,131.266667 Z M127.360119,147.4 C127.360119,148.615026 126.372746,149.6 125.154762,149.6 C123.936777,149.6 122.949405,148.615026 122.949405,147.4 C122.949405,146.184974 123.936777,145.2 125.154762,145.2 C126.372746,145.2 127.360119,146.184974 127.360119,147.4 Z M127.360119,163.533333 C127.360119,164.748359 126.372746,165.733333 125.154762,165.733333 C123.936777,165.733333 122.949405,164.748359 122.949405,163.533333 C122.949405,162.318307 123.936777,161.333333 125.154762,161.333333 C126.372746,161.333333 127.360119,162.318307 127.360119,163.533333 Z M127.360119,179.666667 C127.360119,180.881693 126.372746,181.866667 125.154762,181.866667 C123.936777,181.866667 122.949405,180.881693 122.949405,179.666667 C122.949405,178.451641 123.936777,177.466667 125.154762,177.466667 C126.372746,177.466667 127.360119,178.451641 127.360119,179.666667 Z M127.360119,195.8 C127.360119,197.015026 126.372746,198 125.154762,198 C123.936777,198 122.949405,197.015026 122.949405,195.8 C122.949405,194.584974 123.936777,193.6 125.154762,193.6 C126.372746,193.6 127.360119,194.584974 127.360119,195.8 Z M127.360119,211.933333 C127.360119,213.148359 126.372746,214.133333 125.154762,214.133333 C123.936777,214.133333 122.949405,213.148359 122.949405,211.933333 C122.949405,210.718307 123.936777,209.733333 125.154762,209.733333 C126.372746,209.733333 127.360119,210.718307 127.360119,211.933333 Z M143.532738,2.2 C143.532738,3.4150259 142.545366,4.4 141.327381,4.4 C140.109396,4.4 139.122024,3.4150259 139.122024,2.2 C139.122024,0.98497355 140.109396,1.10208704e-13 141.327381,1.10134124e-13 C142.545366,1.10059544e-13 143.532738,0.98497355 143.532738,2.2 Z M143.532738,18.3333333 C143.532738,19.5483592 142.545366,20.5333333 141.327381,20.5333333 C140.109396,20.5333333 139.122024,19.5483592 139.122024,18.3333333 C139.122024,17.1183074 140.109396,16.1333333 141.327381,16.1333333 C142.545366,16.1333333 143.532738,17.1183074 143.532738,18.3333333 Z M143.532738,34.4666667 C143.532738,35.6816926 142.545366,36.6666667 141.327381,36.6666667 C140.109396,36.6666667 139.122024,35.6816926 139.122024,34.4666667 C139.122024,33.2516408 140.109396,32.2666667 141.327381,32.2666667 C142.545366,32.2666667 143.532738,33.2516408 143.532738,34.4666667 Z M143.532738,50.6 C143.532738,51.8150259 142.545366,52.8 141.327381,52.8 C140.109396,52.8 139.122024,51.8150259 139.122024,50.6 C139.122024,49.3849741 140.109396,48.4 141.327381,48.4 C142.545366,48.4 143.532738,49.3849741 143.532738,50.6 Z M143.532738,66.7333333 C143.532738,67.9483592 142.545366,68.9333333 141.327381,68.9333333 C140.109396,68.9333333 139.122024,67.9483592 139.122024,66.7333333 C139.122024,65.5183074 140.109396,64.5333333 141.327381,64.5333333 C142.545366,64.5333333 143.532738,65.5183074 143.532738,66.7333333 Z M143.532738,82.8666667 C143.532738,84.0816926 142.545366,85.0666667 141.327381,85.0666667 C140.109396,85.0666667 139.122024,84.0816926 139.122024,82.8666667 C139.122024,81.6516408 140.109396,80.6666667 141.327381,80.6666667 C142.545366,80.6666667 143.532738,81.6516408 143.532738,82.8666667 Z M143.532738,99 C143.532738,100.215026 142.545366,101.2 141.327381,101.2 C140.109396,101.2 139.122024,100.215026 139.122024,99 C139.122024,97.7849741 140.109396,96.8 141.327381,96.8 C142.545366,96.8 143.532738,97.7849741 143.532738,99 Z M143.532738,115.133333 C143.532738,116.348359 142.545366,117.333333 141.327381,117.333333 C140.109396,117.333333 139.122024,116.348359 139.122024,115.133333 C139.122024,113.918307 140.109396,112.933333 141.327381,112.933333 C142.545366,112.933333 143.532738,113.918307 143.532738,115.133333 Z M143.532738,131.266667 C143.532738,132.481693 142.545366,133.466667 141.327381,133.466667 C140.109396,133.466667 139.122024,132.481693 139.122024,131.266667 C139.122024,130.051641 140.109396,129.066667 141.327381,129.066667 C142.545366,129.066667 143.532738,130.051641 143.532738,131.266667 Z M143.532738,147.4 C143.532738,148.615026 142.545366,149.6 141.327381,149.6 C140.109396,149.6 139.122024,148.615026 139.122024,147.4 C139.122024,146.184974 140.109396,145.2 141.327381,145.2 C142.545366,145.2 143.532738,146.184974 143.532738,147.4 Z M143.532738,163.533333 C143.532738,164.748359 142.545366,165.733333 141.327381,165.733333 C140.109396,165.733333 139.122024,164.748359 139.122024,163.533333 C139.122024,162.318307 140.109396,161.333333 141.327381,161.333333 C142.545366,161.333333 143.532738,162.318307 143.532738,163.533333 Z M143.532738,179.666667 C143.532738,180.881693 142.545366,181.866667 141.327381,181.866667 C140.109396,181.866667 139.122024,180.881693 139.122024,179.666667 C139.122024,178.451641 140.109396,177.466667 141.327381,177.466667 C142.545366,177.466667 143.532738,178.451641 143.532738,179.666667 Z M143.532738,195.8 C143.532738,197.015026 142.545366,198 141.327381,198 C140.109396,198 139.122024,197.015026 139.122024,195.8 C139.122024,194.584974 140.109396,193.6 141.327381,193.6 C142.545366,193.6 143.532738,194.584974 143.532738,195.8 Z M143.532738,211.933333 C143.532738,213.148359 142.545366,214.133333 141.327381,214.133333 C140.109396,214.133333 139.122024,213.148359 139.122024,211.933333 C139.122024,210.718307 140.109396,209.733333 141.327381,209.733333 C142.545366,209.733333 143.532738,210.718307 143.532738,211.933333 Z M159.705357,2.2 C159.705357,3.4150259 158.717985,4.4 157.5,4.4 C156.282015,4.4 155.294643,3.4150259 155.294643,2.2 C155.294643,0.98497355 156.282015,5.070075e-14 157.5,5.06261699e-14 C158.717985,5.05515898e-14 159.705357,0.98497355 159.705357,2.2 Z M159.705357,18.3333333 C159.705357,19.5483592 158.717985,20.5333333 157.5,20.5333333 C156.282015,20.5333333 155.294643,19.5483592 155.294643,18.3333333 C155.294643,17.1183074 156.282015,16.1333333 157.5,16.1333333 C158.717985,16.1333333 159.705357,17.1183074 159.705357,18.3333333 Z M159.705357,34.4666667 C159.705357,35.6816926 158.717985,36.6666667 157.5,36.6666667 C156.282015,36.6666667 155.294643,35.6816926 155.294643,34.4666667 C155.294643,33.2516408 156.282015,32.2666667 157.5,32.2666667 C158.717985,32.2666667 159.705357,33.2516408 159.705357,34.4666667 Z M159.705357,50.6 C159.705357,51.8150259 158.717985,52.8 157.5,52.8 C156.282015,52.8 155.294643,51.8150259 155.294643,50.6 C155.294643,49.3849741 156.282015,48.4 157.5,48.4 C158.717985,48.4 159.705357,49.3849741 159.705357,50.6 Z M159.705357,66.7333333 C159.705357,67.9483592 158.717985,68.9333333 157.5,68.9333333 C156.282015,68.9333333 155.294643,67.9483592 155.294643,66.7333333 C155.294643,65.5183074 156.282015,64.5333333 157.5,64.5333333 C158.717985,64.5333333 159.705357,65.5183074 159.705357,66.7333333 Z M159.705357,82.8666667 C159.705357,84.0816926 158.717985,85.0666667 157.5,85.0666667 C156.282015,85.0666667 155.294643,84.0816926 155.294643,82.8666667 C155.294643,81.6516408 156.282015,80.6666667 157.5,80.6666667 C158.717985,80.6666667 159.705357,81.6516408 159.705357,82.8666667 Z M159.705357,99 C159.705357,100.215026 158.717985,101.2 157.5,101.2 C156.282015,101.2 155.294643,100.215026 155.294643,99 C155.294643,97.7849741 156.282015,96.8 157.5,96.8 C158.717985,96.8 159.705357,97.7849741 159.705357,99 Z M159.705357,115.133333 C159.705357,116.348359 158.717985,117.333333 157.5,117.333333 C156.282015,117.333333 155.294643,116.348359 155.294643,115.133333 C155.294643,113.918307 156.282015,112.933333 157.5,112.933333 C158.717985,112.933333 159.705357,113.918307 159.705357,115.133333 Z M159.705357,131.266667 C159.705357,132.481693 158.717985,133.466667 157.5,133.466667 C156.282015,133.466667 155.294643,132.481693 155.294643,131.266667 C155.294643,130.051641 156.282015,129.066667 157.5,129.066667 C158.717985,129.066667 159.705357,130.051641 159.705357,131.266667 Z M159.705357,147.4 C159.705357,148.615026 158.717985,149.6 157.5,149.6 C156.282015,149.6 155.294643,148.615026 155.294643,147.4 C155.294643,146.184974 156.282015,145.2 157.5,145.2 C158.717985,145.2 159.705357,146.184974 159.705357,147.4 Z M159.705357,163.533333 C159.705357,164.748359 158.717985,165.733333 157.5,165.733333 C156.282015,165.733333 155.294643,164.748359 155.294643,163.533333 C155.294643,162.318307 156.282015,161.333333 157.5,161.333333 C158.717985,161.333333 159.705357,162.318307 159.705357,163.533333 Z M159.705357,179.666667 C159.705357,180.881693 158.717985,181.866667 157.5,181.866667 C156.282015,181.866667 155.294643,180.881693 155.294643,179.666667 C155.294643,178.451641 156.282015,177.466667 157.5,177.466667 C158.717985,177.466667 159.705357,178.451641 159.705357,179.666667 Z M159.705357,195.8 C159.705357,197.015026 158.717985,198 157.5,198 C156.282015,198 155.294643,197.015026 155.294643,195.8 C155.294643,194.584974 156.282015,193.6 157.5,193.6 C158.717985,193.6 159.705357,194.584974 159.705357,195.8 Z M159.705357,211.933333 C159.705357,213.148359 158.717985,214.133333 157.5,214.133333 C156.282015,214.133333 155.294643,213.148359 155.294643,211.933333 C155.294643,210.718307 156.282015,209.733333 157.5,209.733333 C158.717985,209.733333 159.705357,210.718307 159.705357,211.933333 Z M175.877976,2.2 C175.877976,3.4150259 174.890604,4.4 173.672619,4.4 C172.454634,4.4 171.467262,3.4150259 171.467262,2.2 C171.467262,0.98497355 172.454634,5.84773981e-15 173.672619,5.77315973e-15 C174.890604,5.69857965e-15 175.877976,0.98497355 175.877976,2.2 Z M175.877976,18.3333333 C175.877976,19.5483592 174.890604,20.5333333 173.672619,20.5333333 C172.454634,20.5333333 171.467262,19.5483592 171.467262,18.3333333 C171.467262,17.1183074 172.454634,16.1333333 173.672619,16.1333333 C174.890604,16.1333333 175.877976,17.1183074 175.877976,18.3333333 Z M175.877976,34.4666667 C175.877976,35.6816926 174.890604,36.6666667 173.672619,36.6666667 C172.454634,36.6666667 171.467262,35.6816926 171.467262,34.4666667 C171.467262,33.2516408 172.454634,32.2666667 173.672619,32.2666667 C174.890604,32.2666667 175.877976,33.2516408 175.877976,34.4666667 Z M175.877976,50.6 C175.877976,51.8150259 174.890604,52.8 173.672619,52.8 C172.454634,52.8 171.467262,51.8150259 171.467262,50.6 C171.467262,49.3849741 172.454634,48.4 173.672619,48.4 C174.890604,48.4 175.877976,49.3849741 175.877976,50.6 Z M175.877976,66.7333333 C175.877976,67.9483592 174.890604,68.9333333 173.672619,68.9333333 C172.454634,68.9333333 171.467262,67.9483592 171.467262,66.7333333 C171.467262,65.5183074 172.454634,64.5333333 173.672619,64.5333333 C174.890604,64.5333333 175.877976,65.5183074 175.877976,66.7333333 Z M175.877976,82.8666667 C175.877976,84.0816926 174.890604,85.0666667 173.672619,85.0666667 C172.454634,85.0666667 171.467262,84.0816926 171.467262,82.8666667 C171.467262,81.6516408 172.454634,80.6666667 173.672619,80.6666667 C174.890604,80.6666667 175.877976,81.6516408 175.877976,82.8666667 Z M175.877976,99 C175.877976,100.215026 174.890604,101.2 173.672619,101.2 C172.454634,101.2 171.467262,100.215026 171.467262,99 C171.467262,97.7849741 172.454634,96.8 173.672619,96.8 C174.890604,96.8 175.877976,97.7849741 175.877976,99 Z M175.877976,115.133333 C175.877976,116.348359 174.890604,117.333333 173.672619,117.333333 C172.454634,117.333333 171.467262,116.348359 171.467262,115.133333 C171.467262,113.918307 172.454634,112.933333 173.672619,112.933333 C174.890604,112.933333 175.877976,113.918307 175.877976,115.133333 Z M175.877976,131.266667 C175.877976,132.481693 174.890604,133.466667 173.672619,133.466667 C172.454634,133.466667 171.467262,132.481693 171.467262,131.266667 C171.467262,130.051641 172.454634,129.066667 173.672619,129.066667 C174.890604,129.066667 175.877976,130.051641 175.877976,131.266667 Z M175.877976,147.4 C175.877976,148.615026 174.890604,149.6 173.672619,149.6 C172.454634,149.6 171.467262,148.615026 171.467262,147.4 C171.467262,146.184974 172.454634,145.2 173.672619,145.2 C174.890604,145.2 175.877976,146.184974 175.877976,147.4 Z M175.877976,163.533333 C175.877976,164.748359 174.890604,165.733333 173.672619,165.733333 C172.454634,165.733333 171.467262,164.748359 171.467262,163.533333 C171.467262,162.318307 172.454634,161.333333 173.672619,161.333333 C174.890604,161.333333 175.877976,162.318307 175.877976,163.533333 Z M175.877976,179.666667 C175.877976,180.881693 174.890604,181.866667 173.672619,181.866667 C172.454634,181.866667 171.467262,180.881693 171.467262,179.666667 C171.467262,178.451641 172.454634,177.466667 173.672619,177.466667 C174.890604,177.466667 175.877976,178.451641 175.877976,179.666667 Z M175.877976,195.8 C175.877976,197.015026 174.890604,198 173.672619,198 C172.454634,198 171.467262,197.015026 171.467262,195.8 C171.467262,194.584974 172.454634,193.6 173.672619,193.6 C174.890604,193.6 175.877976,194.584974 175.877976,195.8 Z M175.877976,211.933333 C175.877976,213.148359 174.890604,214.133333 173.672619,214.133333 C172.454634,214.133333 171.467262,213.148359 171.467262,211.933333 C171.467262,210.718307 172.454634,209.733333 173.672619,209.733333 C174.890604,209.733333 175.877976,210.718307 175.877976,211.933333 Z M192.050595,2.2 C192.050595,3.4150259 191.063223,4.4 189.845238,4.4 C188.627253,4.4 187.639881,3.4150259 187.639881,2.2 C187.639881,0.98497355 188.627253,-7.80851209e-14 189.845238,-7.81597009e-14 C191.063223,-7.8234281e-14 192.050595,0.98497355 192.050595,2.2 Z M192.050595,18.3333333 C192.050595,19.5483592 191.063223,20.5333333 189.845238,20.5333333 C188.627253,20.5333333 187.639881,19.5483592 187.639881,18.3333333 C187.639881,17.1183074 188.627253,16.1333333 189.845238,16.1333333 C191.063223,16.1333333 192.050595,17.1183074 192.050595,18.3333333 Z M192.050595,34.4666667 C192.050595,35.6816926 191.063223,36.6666667 189.845238,36.6666667 C188.627253,36.6666667 187.639881,35.6816926 187.639881,34.4666667 C187.639881,33.2516408 188.627253,32.2666667 189.845238,32.2666667 C191.063223,32.2666667 192.050595,33.2516408 192.050595,34.4666667 Z M192.050595,50.6 C192.050595,51.8150259 191.063223,52.8 189.845238,52.8 C188.627253,52.8 187.639881,51.8150259 187.639881,50.6 C187.639881,49.3849741 188.627253,48.4 189.845238,48.4 C191.063223,48.4 192.050595,49.3849741 192.050595,50.6 Z M192.050595,66.7333333 C192.050595,67.9483592 191.063223,68.9333333 189.845238,68.9333333 C188.627253,68.9333333 187.639881,67.9483592 187.639881,66.7333333 C187.639881,65.5183074 188.627253,64.5333333 189.845238,64.5333333 C191.063223,64.5333333 192.050595,65.5183074 192.050595,66.7333333 Z M192.050595,82.8666667 C192.050595,84.0816926 191.063223,85.0666667 189.845238,85.0666667 C188.627253,85.0666667 187.639881,84.0816926 187.639881,82.8666667 C187.639881,81.6516408 188.627253,80.6666667 189.845238,80.6666667 C191.063223,80.6666667 192.050595,81.6516408 192.050595,82.8666667 Z M192.050595,99 C192.050595,100.215026 191.063223,101.2 189.845238,101.2 C188.627253,101.2 187.639881,100.215026 187.639881,99 C187.639881,97.7849741 188.627253,96.8 189.845238,96.8 C191.063223,96.8 192.050595,97.7849741 192.050595,99 Z M192.050595,115.133333 C192.050595,116.348359 191.063223,117.333333 189.845238,117.333333 C188.627253,117.333333 187.639881,116.348359 187.639881,115.133333 C187.639881,113.918307 188.627253,112.933333 189.845238,112.933333 C191.063223,112.933333 192.050595,113.918307 192.050595,115.133333 Z M192.050595,131.266667 C192.050595,132.481693 191.063223,133.466667 189.845238,133.466667 C188.627253,133.466667 187.639881,132.481693 187.639881,131.266667 C187.639881,130.051641 188.627253,129.066667 189.845238,129.066667 C191.063223,129.066667 192.050595,130.051641 192.050595,131.266667 Z M192.050595,147.4 C192.050595,148.615026 191.063223,149.6 189.845238,149.6 C188.627253,149.6 187.639881,148.615026 187.639881,147.4 C187.639881,146.184974 188.627253,145.2 189.845238,145.2 C191.063223,145.2 192.050595,146.184974 192.050595,147.4 Z M192.050595,163.533333 C192.050595,164.748359 191.063223,165.733333 189.845238,165.733333 C188.627253,165.733333 187.639881,164.748359 187.639881,163.533333 C187.639881,162.318307 188.627253,161.333333 189.845238,161.333333 C191.063223,161.333333 192.050595,162.318307 192.050595,163.533333 Z M192.050595,179.666667 C192.050595,180.881693 191.063223,181.866667 189.845238,181.866667 C188.627253,181.866667 187.639881,180.881693 187.639881,179.666667 C187.639881,178.451641 188.627253,177.466667 189.845238,177.466667 C191.063223,177.466667 192.050595,178.451641 192.050595,179.666667 Z M192.050595,195.8 C192.050595,197.015026 191.063223,198 189.845238,198 C188.627253,198 187.639881,197.015026 187.639881,195.8 C187.639881,194.584974 188.627253,193.6 189.845238,193.6 C191.063223,193.6 192.050595,194.584974 192.050595,195.8 Z M192.050595,211.933333 C192.050595,213.148359 191.063223,214.133333 189.845238,214.133333 C188.627253,214.133333 187.639881,213.148359 187.639881,211.933333 C187.639881,210.718307 188.627253,209.733333 189.845238,209.733333 C191.063223,209.733333 192.050595,210.718307 192.050595,211.933333 Z" id="Trame" fill="#F6F6F6"></path>
                    <path d="M227.941049,59.1506424 C256.169436,71.0343999 276.033856,99.3457047 280.843136,128.880337 C285.652418,158.41497 275.19746,189.172931 254.496642,211.018073 C233.795825,232.863216 202.849148,245.970301 171.066076,254.708359 C139.073904,263.621176 106.245336,268.164967 81.153436,258.902625 C56.0615364,249.640285 38.7063059,226.397054 23.6511662,202.8043 C8.59602645,179.386307 -4.1590226,155.618792 1.27755572,135.3465 C6.9232331,115.074207 30.5514385,98.471899 54.3887431,86.063858 C78.2260478,73.6558172 101.854253,65.2672823 132.173631,58.8011202 C162.49301,52.1601968 199.503563,47.4416461 227.941049,59.1506424 Z" id="Blob" fill="#F6F6F6"></path>
                    <path d="M4.40625,249.671429 C5.48303896,249.671429 6.45940364,250.110533 7.16664984,250.819069 C7.87412714,251.527836 8.3125,252.50636 8.3125,253.585714 C8.3125,254.66485 7.87404647,255.643424 7.16648672,256.352274 C6.45925677,257.060794 5.48296316,257.5 4.40625,257.5 C3.32953684,257.5 2.35324323,257.060794 1.64601328,256.352274 C0.938453534,255.643424 0.5,254.66485 0.5,253.585714 C0.5,252.50636 0.938372859,251.527836 1.64585016,250.819069 C2.35309636,250.110533 3.32946104,249.671429 4.40625,249.671429 Z M4.40625,249.998435 C3.41884568,249.998435 2.52308962,250.400615 1.87433653,251.050551 C1.22603639,251.700033 0.82459041,252.596769 0.82459041,253.585714 C0.82459041,254.57466 1.22603639,255.471395 1.87433653,256.120878 C2.52308962,256.770814 3.41884568,257.172994 4.40625,257.172994 C5.39394654,257.172994 6.28961049,256.770862 6.9382487,256.121041 C7.58655715,255.47155 7.98790959,254.574753 7.98790959,253.585714 C7.98790959,252.596676 7.58655715,251.699878 6.9382487,251.050388 C6.28961049,250.400566 5.39394654,249.998435 4.40625,249.998435 Z M232.729886,198.171429 C232.806652,198.171429 232.883331,198.2009 232.94272,198.260554 C233.001733,198.319532 233.03117,198.396901 233.03117,198.474272 C233.03117,198.551971 233.001509,198.629688 232.942334,198.688978 L232.942334,198.688978 L229.551236,202.085388 L232.942347,205.482584 C233.001538,205.54189 233.03125,205.619443 233.03125,205.697056 C233.03125,205.774669 233.001538,205.852222 232.942347,205.911528 C232.883687,205.970303 232.806717,206 232.729666,206 C232.652614,206 232.575644,205.970303 232.516987,205.911531 L232.516987,205.911531 L229.124721,202.512597 L225.733016,205.911528 C225.674356,205.970303 225.597386,206 225.520334,206 C225.443283,206 225.366313,205.970303 225.307653,205.911528 C225.248462,205.852222 225.21875,205.774669 225.21875,205.697056 C225.21875,205.619443 225.248462,205.54189 225.307655,205.482582 L225.307655,205.482582 L228.698206,202.085388 L225.307733,198.689046 C225.248491,198.629688 225.21883,198.551971 225.21883,198.474272 C225.21883,198.396901 225.248267,198.319532 225.308185,198.259648 C225.366669,198.2009 225.443348,198.171429 225.520114,198.171429 L225.520114,198.171429 L229.124721,201.657063 L232.516904,198.260101 C232.575767,198.201124 232.652792,198.171429 232.729886,198.171429 Z M56.4796492,189.342857 C56.5567547,189.342857 56.633793,189.372554 56.692665,189.431538 C56.7516532,189.490638 56.7809695,189.568196 56.7809695,189.645701 C56.7809695,189.723533 56.7514291,189.801439 56.6927467,189.860384 L56.6927467,189.860384 L53.3012141,193.256794 L56.6923444,196.65402 C56.7515356,196.713324 56.78125,196.790874 56.78125,196.868484 C56.78125,196.946095 56.7515356,197.023645 56.6923444,197.082948 C56.6336747,197.14173 56.5566923,197.171429 56.4796291,197.171429 C56.402566,197.171429 56.3255835,197.14173 56.2669288,197.082963 L56.2669288,197.082963 L52.8747209,193.684019 L49.4830862,197.082948 C49.4244165,197.14173 49.347434,197.171429 49.2703709,197.171429 C49.1933077,197.171429 49.1163253,197.14173 49.0576556,197.082948 C48.9984644,197.023645 48.96875,196.946095 48.96875,196.868484 C48.96875,196.790874 48.9984644,196.713324 49.0576664,196.65401 L49.0576664,196.65401 L52.448228,193.256794 L49.057787,189.860919 C48.9985709,189.801439 48.9690305,189.723533 48.9690305,189.645701 C48.9690305,189.568196 48.9983468,189.490638 49.057335,189.431538 C49.116207,189.372554 49.1932453,189.342857 49.2703508,189.342857 L49.2703508,189.342857 L52.8747209,192.829568 L56.2676864,189.431085 C56.3261796,189.37233 56.4028711,189.342857 56.4796492,189.342857 Z M229.124669,114.3 C230.2017,114.3 231.178037,114.739094 231.885251,115.447491 C232.592867,116.156291 233.03125,117.134842 233.03125,118.213954 C233.03125,119.293355 232.592897,120.272061 231.885298,120.98095 C231.178083,121.689455 230.201725,122.128571 229.124669,122.128571 C228.047901,122.128571 227.071698,121.689425 226.364573,120.980904 C225.65708,120.272015 225.21875,119.29333 225.21875,118.213954 C225.21875,117.134868 225.65711,116.156337 226.364619,115.447538 C227.071744,114.739124 228.047927,114.3 229.124669,114.3 Z M229.124669,114.626906 C228.137218,114.626906 227.241616,115.029036 226.593001,115.678876 C225.944783,116.328318 225.54344,117.225025 225.54344,118.213954 C225.54344,119.202892 225.944801,120.0998 226.593053,120.749416 C227.241673,121.3994 228.137257,121.801665 229.124669,121.801665 C230.11209,121.801665 231.007874,121.399382 231.656667,120.749364 C232.305064,120.099743 232.70656,119.202853 232.70656,118.213954 C232.70656,117.225064 232.305082,116.328375 231.656719,115.678928 C231.007931,115.029054 230.112128,114.626906 229.124669,114.626906 Z M281.198636,52.5 C281.275539,52.5 281.352411,52.5293468 281.411021,52.5880693 C281.47026,52.6474223 281.49992,52.7251326 281.49992,52.8028255 C281.49992,52.8801907 281.470484,52.9575538 281.411047,53.0169532 L281.411047,53.0169532 L278.020025,56.4139948 L281.411101,59.8111904 C281.470288,59.8704917 281.5,59.9480385 281.5,60.0256456 C281.5,60.1032526 281.470288,60.1807995 281.411101,60.2401007 C281.35244,60.2988751 281.275468,60.3285714 281.198416,60.3285714 C281.121363,60.3285714 281.044392,60.2988751 280.985738,60.2401083 L280.985738,60.2401083 L277.593471,56.8411682 L274.20177,60.2401007 C274.143108,60.2988751 274.066137,60.3285714 273.989084,60.3285714 C273.912032,60.3285714 273.83506,60.2988751 273.776399,60.2401007 C273.717212,60.1807995 273.6875,60.1032526 273.6875,60.0256456 C273.6875,59.9480385 273.717212,59.8704917 273.776407,59.8111824 L273.776407,59.8111824 L277.166917,56.4139948 L273.776026,53.0165267 C273.717016,52.9575538 273.68758,52.8801907 273.68758,52.8028255 C273.68758,52.7251326 273.71724,52.6474223 273.776479,52.5880693 C273.835089,52.5293468 273.911961,52.5 273.988864,52.5 L273.988864,52.5 L277.593471,55.9857049 L280.985197,52.5885221 C281.044186,52.5295709 281.121406,52.5 281.198636,52.5 Z M55.4547855,53.471953 C56.2642433,54.1846121 56.7085967,55.1608725 56.7730524,56.1614413 C56.8375065,57.161986 56.5221013,58.1871673 55.81067,58.9978915 C55.1250725,59.7796007 54.17769,60.2490035 53.1415219,60.3193768 C51.9343947,60.3249008 51.021262,59.9918912 50.2972421,59.3535901 C49.5130876,58.6639211 49.0445544,57.7093808 48.9770247,56.6651708 C48.9100603,55.6217956 49.2524428,54.6142803 49.9422503,53.8284409 C50.652987,53.0178796 51.6266678,52.5727498 52.6248474,52.508206 C53.622971,52.4436658 54.645746,52.7596621 55.4547855,53.471953 Z M52.878097,52.8269317 C51.8827367,52.8269317 50.8921431,53.2389957 50.1847433,54.0448536 C49.5534524,54.7652227 49.2395069,55.6880385 49.3018385,56.644765 C49.3633815,57.6004263 49.7929265,58.475431 50.5109277,59.1076245 C51.2305098,59.7413036 52.1544569,60.0584698 53.1080645,59.993648 C54.0617685,59.9320588 54.9356151,59.5010158 55.5669148,58.7814077 C56.2186239,58.0387053 56.5082791,57.0996453 56.4493385,56.1827917 C56.3903965,55.2659159 55.9828557,54.3715628 55.2414446,53.718222 C54.5619319,53.1208251 53.718093,52.8269317 52.878097,52.8269317 Z" id="Forme" stroke="#E5E5E5"></path>
                    <g id="Pictogramme" transform="translate(83.399942, 91.400000)">
                        <path d="M90.0000579,3.6 C89.0075376,3.6 88.2000579,2.7925202 88.2000579,1.8 C88.2000579,0.807395226 89.0075376,-1.42108547e-14 90.0000579,-1.42108547e-14 C90.9925781,-1.42108547e-14 91.8000579,0.807395226 91.8000579,1.8 C91.8000579,2.7925202 90.9925781,3.6 90.0000579,3.6 Z M25.2000579,133.2 C24.2075376,133.2 23.4000579,132.39252 23.4000579,131.4 C23.4000579,130.407395 24.2075376,129.6 25.2000579,129.6 C26.1925781,129.6 27.0000579,130.407395 27.0000579,131.4 C27.0000579,132.39252 26.1925781,133.2 25.2000579,133.2 Z M7.20005785,18 C6.20753765,18 5.40005785,17.1925202 5.40005785,16.2 C5.40005785,15.2073952 6.20753765,14.4 7.20005785,14.4 C8.19257805,14.4 9.00005785,15.2073952 9.00005785,16.2 C9.00005785,17.1925202 8.19257805,18 7.20005785,18 Z" id="Couleur-dcorative" fill="#ECECFE"></path>
                        <path d="M59.4000579,18 C60.3941704,18 61.2000579,18.8058875 61.2000579,19.8 C61.2000579,20.7941125 60.3941704,21.6 59.4000579,21.6 C47.4707073,21.6 37.8000579,31.2706494 37.8000579,43.2 C37.8000579,55.1293506 47.4707073,64.8 59.4000579,64.8 C71.3294084,64.8 81.0000579,55.1293506 81.0000579,43.2 C81.0000579,39.5581394 80.0992233,36.0505449 78.4028278,32.9214456 C77.929032,32.0475021 78.2534159,30.9549435 79.1273595,30.4811477 C80.001303,30.007352 81.0938616,30.3317359 81.5676574,31.2056794 C83.5478981,34.8583474 84.6000579,38.9551596 84.6000579,43.2 C84.6000579,57.1175757 73.3176335,68.4 59.4000579,68.4 C45.4824822,68.4 34.2000579,57.1175757 34.2000579,43.2 C34.2000579,29.2824243 45.4824822,18 59.4000579,18 Z M65.8822692,30.7738563 C67.1867949,29.8474587 68.9611725,30.9562128 68.7003982,32.5348188 L68.7003982,32.5348188 L64.886575,55.6219311 C64.6266357,57.1954828 62.6000005,57.6786404 61.6580886,56.3916145 L61.6580886,56.3916145 L56.3586183,49.1503395 L47.5270686,47.5615732 C46.0227937,47.2909496 45.5430144,45.4122578 46.6501284,44.4434245 L46.6501284,44.4434245 L46.8035802,44.3224218 Z M64.4444444,36.2103129 L52.3823249,44.7766319 L56.5040579,45.518 L57.7658619,43.4991185 C58.2926613,42.6560632 59.4031479,42.3996872 60.2462032,42.9264866 C61.0290402,43.4156574 61.3060161,44.4081096 60.9198049,45.22239 L60.8188351,45.4068278 L59.5570579,47.425 L62.032773,50.8069011 L64.4444444,36.2103129 Z" id="Couleur-mineure-(Indice--main)" fill="#E1000F"></path>
                        <path d="M106.200058,113.4 C107.19417,113.4 108.000058,114.205887 108.000058,115.2 C108.000058,116.123105 107.305186,116.883913 106.409976,116.98789 L106.200058,117 L91.8000579,117 C90.8059453,117 90.0000579,116.194113 90.0000579,115.2 C90.0000579,114.276895 90.6949302,113.516087 91.5901398,113.41211 L91.8000579,113.4 L106.200058,113.4 Z M27.0000579,41.4 C27.9941704,41.4 28.8000579,42.2058875 28.8000579,43.2 C28.8000579,44.1231045 28.1051855,44.8839129 27.2099759,44.9878901 L27.0000579,45 L6.87,44.9999421 L59.3622579,87.6492 L108.574,44.9999421 L91.8000579,45 C90.8769533,45 90.116145,44.3051277 90.0121678,43.409918 L90.0000579,43.2 C90.0000579,42.2768955 90.6949302,41.5160871 91.5901398,41.4121099 L91.8000579,41.4 L113.400058,41.4 L113.450627,41.4007001 C113.480922,41.4015596 113.51119,41.4031795 113.541399,41.4055575 L113.400058,41.4 C113.483351,41.4 113.565322,41.4056574 113.645609,41.416609 C113.659215,41.4186734 113.672557,41.4206592 113.685878,41.4227943 C113.779253,41.4374325 113.870801,41.459666 113.959329,41.4885773 C113.966409,41.4911085 113.97402,41.4936418 113.981617,41.4962269 C114.077524,41.5287699 114.169383,41.5691715 114.256869,41.6166122 C114.270482,41.6238143 114.283909,41.6313023 114.297254,41.6389732 C114.325518,41.655473 114.353242,41.6724651 114.380456,41.6901731 C114.403839,41.7050718 114.426662,41.7206712 114.44918,41.736846 C114.468223,41.7508626 114.487089,41.7649837 114.505664,41.7794612 C114.524597,41.7939016 114.543038,41.8088847 114.561233,41.8242809 C114.584229,41.8439968 114.606885,41.8641362 114.629019,41.8848279 C114.64211,41.8968977 114.655116,41.909447 114.667968,41.9222272 C114.692792,41.9469918 114.716607,41.9720306 114.739693,41.9977375 C114.74626,42.0050692 114.753307,42.0130585 114.760298,42.021125 L114.776456,42.0399693 C114.795089,42.0620548 114.8132,42.084595 114.83077,42.1075709 L114.760298,42.021125 C114.80159,42.0687691 114.839936,42.117964 114.875353,42.1684875 C114.887859,42.1862996 114.90055,42.205143 114.912889,42.2242348 C114.92826,42.2479989 114.942687,42.2714979 114.956518,42.2952308 C115.011529,42.3905142 115.055726,42.4848409 115.091592,42.5831741 C115.09528,42.5933013 115.098936,42.6036232 115.102494,42.6139694 C115.115011,42.650302 115.126378,42.6871383 115.136574,42.7244579 C115.140417,42.7386619 115.144154,42.7530432 115.147709,42.767457 C115.156486,42.8028563 115.164216,42.8388911 115.17085,42.8753081 C115.175105,42.8988199 115.178884,42.9221611 115.182201,42.9455484 C115.184248,42.9598956 115.186192,42.9749602 115.187948,42.990082 L115.191033,43.0184789 C115.195272,43.0606664 115.198019,43.1029542 115.199281,43.145258 L115.200058,43.2 L115.200058,108 C115.200058,108.994113 114.39417,109.8 113.400058,109.8 C112.476953,109.8 111.716145,109.105128 111.612168,108.209918 L111.600058,108 L111.6,47.1409421 L75.571,78.3659421 L107.395913,106.654663 L107.555352,106.815151 C108.144914,107.487815 108.155043,108.51 107.545395,109.195855 C106.921634,109.897586 105.872153,109.996266 105.131543,109.448686 L105.004203,109.345337 L72.828,80.7439421 L60.5789328,91.3602403 C59.9787602,91.8803899 59.1178204,91.9404883 58.4568293,91.5332155 L58.2649911,91.3970052 L43.1995549,79.1562608 C43.2098919,79.5892569 43.0647717,80.0238878 42.7685047,80.3696332 L42.6108689,80.5318921 L6.454,113.399942 L70.2000579,113.4 C71.1231624,113.4 71.8839707,114.094872 71.9879479,114.990082 L72.0000579,115.2 C72.0000579,116.123105 71.3051855,116.883913 70.4099759,116.98789 L70.2000579,117 L1.80005785,117 L1.681,116.994942 L1.60924669,116.990006 L1.5353176,116.98048 C1.50251013,116.975824 1.47042381,116.970184 1.4386421,116.963706 L1.39096494,116.953065 C1.35672317,116.945348 1.32297917,116.936446 1.28963809,116.926606 C1.27487449,116.922041 1.25990352,116.91742 1.24498516,116.9126 C1.21680456,116.903658 1.1891565,116.893938 1.16182651,116.883572 C1.13921831,116.874913 1.11665054,116.865852 1.09424251,116.85632 C1.07183233,116.846793 1.04931098,116.836631 1.02704185,116.826025 C1.00418034,116.81523 0.981324189,116.803774 0.958676877,116.791805 C0.938183423,116.780795 0.918371805,116.769807 0.898793729,116.75846 C0.87561448,116.74527 0.852381697,116.73112 0.829419331,116.716402 C0.746463037,116.662936 0.667902968,116.602886 0.594781363,116.536923 C0.579244867,116.523036 0.564208408,116.508972 0.549365251,116.494604 C0.524044794,116.470065 0.499016128,116.444418 0.47476454,116.418045 L0.468165719,116.410811 L0.46,116.400942 L0.453320646,116.394308 L0.413,116.346942 L0.454,116.393942 L0.381,116.306942 L0.344385041,116.259041 C0.322687205,116.229218 0.301934555,116.198833 0.282107468,116.1678 C0.272562495,116.152993 0.263233406,116.137912 0.254149504,116.122729 C0.239447457,116.097996 0.225380489,116.073151 0.211895914,116.047948 C0.199699331,116.025301 0.188133115,116.002505 0.177086726,115.97953 C0.155105052,115.933732 0.134853217,115.886628 0.116602782,115.838539 L0.0689381821,115.694634 L0.0505551061,115.624808 C0.0445853587,115.600456 0.0391997875,115.575963 0.0343185041,115.551288 C0.0127875588,115.442194 0.00138912342,115.331432 0.00015713857,115.220667 L5.78507014e-05,43.2 L0.004,43.0769421 L0.0115980495,42.9950471 C0.0204715127,42.9164591 0.0345932501,42.8382829 0.0539652025,42.7610159 C0.0908532884,42.6137857 0.145937832,42.4736264 0.216670074,42.3431887 C0.226016509,42.3260059 0.235668252,42.3088906 0.24562704,42.2918923 C0.261833554,42.2641433 0.278705152,42.2370194 0.296265119,42.2103894 C0.308810944,42.1914938 0.321711447,42.1727176 0.335014539,42.1541202 C0.352734024,42.1292109 0.371049103,42.1049279 0.389953694,42.0811344 C0.39412024,42.0759924 0.398567398,42.0704536 0.40305265,42.0649333 L0.421981199,42.0419619 C0.444733619,42.0149144 0.468267705,41.9885463 0.492548658,41.9628924 L0.477,41.9789421 L0.527906024,41.926367 C0.549487802,41.9049987 0.571887982,41.8837283 0.59482316,41.8630396 C0.611981256,41.8472032 0.629731938,41.8317836 0.647723817,41.8167618 C0.66417222,41.8034331 0.680377284,41.7903908 0.696809423,41.7776269 C0.720635889,41.7587162 0.74484004,41.7408804 0.769401079,41.7237152 C0.782205411,41.7151249 0.795754704,41.7059094 0.809434571,41.6968755 C0.838164142,41.6776084 0.866865014,41.6598514 0.895964779,41.6429617 C0.913960856,41.6327095 0.932144546,41.622545 0.950519169,41.6126901 C0.969739059,41.6022866 0.988950099,41.5924626 1.00830565,41.5830006 L1.02844,41.5733094 C1.07187052,41.5526716 1.11625855,41.5337218 1.1615193,41.5165449 L1.27252418,41.4788446 C1.2795878,41.4766866 1.28666303,41.4745726 1.29374945,41.4725025 C1.38313022,41.4460361 1.47542411,41.4266288 1.57001153,41.4145626 L1.5847612,41.4129205 L1.59013982,41.4121099 L1.60961527,41.4101029 C1.6673204,41.4039642 1.72531903,41.4005988 1.78339406,41.4000292 L27.0000579,41.4 Z M114.200058,113.4 C114.752343,113.4 115.200058,113.847715 115.200058,114.4 L115.200058,116 C115.200058,116.552285 114.752343,117 114.200058,117 L112.600058,117 C112.047773,117 111.600058,116.552285 111.600058,116 L111.600058,114.4 C111.600058,113.847715 112.047773,113.4 112.600058,113.4 L114.200058,113.4 Z M3.6,46.9829421 L3.6,111.130942 L40.1892468,77.8681079 C40.4473464,77.6334719 40.7550394,77.4878384 41.0746348,77.4294125 L3.6,46.9829421 Z" id="Couleur-majeure" fill="#000091"></path>
                    </g>
                </g>
            </g>
        </g>
    </g>
</svg>