<svg width="80" height="80" viewBox="0 0 80 80" fill="none" xmlns="http://www.w3.org/2000/svg">
<path fill-rule="evenodd" clip-rule="evenodd" d="M73 17.9995C72.4486 17.9995 72 17.5509 72 16.9995C72 16.4481 72.4486 15.9995 73 15.9995C73.5514 15.9995 74 16.4481 74 16.9995C74 17.5509 73.5514 17.9995 73 17.9995Z" fill="#CACAFB"/>
<path fill-rule="evenodd" clip-rule="evenodd" d="M7 17.9995C6.4486 17.9995 6 17.5509 6 16.9995C6 16.4481 6.4486 15.9995 7 15.9995C7.5514 15.9995 8 16.4481 8 16.9995C8 17.5509 7.5514 17.9995 7 17.9995Z" fill="#CACAFB"/>
<path fill-rule="evenodd" clip-rule="evenodd" d="M11 67.9995C10.4486 67.9995 10 67.5509 10 66.9995C10 66.4481 10.4486 65.9995 11 65.9995C11.5514 65.9995 12 66.4481 12 66.9995C12 67.5509 11.5514 67.9995 11 67.9995Z" fill="#CACAFB"/>
<path fill-rule="evenodd" clip-rule="evenodd" d="M65 71.9995C64.4486 71.9995 64 71.5509 64 70.9995C64 70.4481 64.4486 69.9995 65 69.9995C65.5514 69.9995 66 70.4481 66 70.9995C66 71.5509 65.5514 71.9995 65 71.9995Z" fill="#CACAFB"/>
<path fill-rule="evenodd" clip-rule="evenodd" d="M19 5.99951C18.4486 5.99951 18 5.55091 18 4.99951C18 4.44806 18.4486 3.99951 19 3.99951C19.5514 3.99951 20 4.44806 20 4.99951C20 5.55091 19.5514 5.99951 19 5.99951Z" fill="#CACAFB"/>
<path fill-rule="evenodd" clip-rule="evenodd" d="M55 77.9995C54.4486 77.9995 54 77.5509 54 76.9995C54 76.4481 54.4486 75.9995 55 75.9995C55.5514 75.9995 56 76.4481 56 76.9995C56 77.5509 55.5514 77.9995 55 77.9995Z" fill="#CACAFB"/>
<path fill-rule="evenodd" clip-rule="evenodd" d="M16 29.9995C16 27.7929 17.7935 25.9995 20 25.9995C22.2065 25.9995 24 27.7929 24 29.9995C24 32.206 22.2065 33.9995 20 33.9995C17.7935 33.9995 16 32.206 16 29.9995ZM22 29.9995C22 28.8975 21.102 27.9995 20 27.9995C18.898 27.9995 18 28.8975 18 29.9995C18 31.1014 18.8981 31.9995 20 31.9995C21.1019 31.9995 22 31.1014 22 29.9995Z" fill="#E1000F"/>
<path fill-rule="evenodd" clip-rule="evenodd" d="M26 25.9995C26 23.7929 27.7935 21.9995 30 21.9995C32.2065 21.9995 34 23.7929 34 25.9995C34 28.206 32.2065 29.9995 30 29.9995C27.7935 29.9995 26 28.206 26 25.9995ZM32 25.9995C32 24.8975 31.102 23.9995 30 23.9995C28.898 23.9995 28 24.8975 28 25.9995C28 27.1014 28.8981 27.9995 30 27.9995C31.1019 27.9995 32 27.1014 32 25.9995Z" fill="#E1000F"/>
<path d="M26.5528 26.1051C27.0468 25.8581 27.6474 26.0583 27.8944 26.5523C28.1238 27.011 27.9675 27.5617 27.5485 27.8358L27.4472 27.8939L23.4472 29.8939C22.9532 30.1409 22.3526 29.9407 22.1056 29.4467C21.8762 28.988 22.0325 28.4373 22.4515 28.1633L22.5528 28.1051L26.5528 26.1051Z" fill="#E1000F"/>
<path d="M32.2929 27.2924C32.6534 26.9319 33.2206 26.9042 33.6129 27.2092L33.7071 27.2924L37.7071 31.2924C38.0976 31.6829 38.0976 32.3161 37.7071 32.7066C37.3466 33.0671 36.7794 33.0948 36.3871 32.7898L36.2929 32.7066L32.2929 28.7066C31.9024 28.3161 31.9024 27.6829 32.2929 27.2924Z" fill="#E1000F"/>
<path fill-rule="evenodd" clip-rule="evenodd" d="M50 33.9995C50 28.4843 54.485 23.9995 60 23.9995C65.515 23.9995 70 28.4843 70 33.9995C70 39.5144 65.5149 43.9995 60 43.9995C54.4851 43.9995 50 39.5144 50 33.9995ZM68 33.9995C68 29.5889 64.4105 25.9995 60 25.9995C55.5895 25.9995 52 29.5889 52 33.9995C52 38.4098 55.5897 41.9995 60 41.9995C64.4103 41.9995 68 38.4098 68 33.9995Z" fill="#E1000F"/>
<path d="M60.0366 28.7313C60.1848 28.1992 60.7362 27.888 61.2682 28.0362C63.6078 28.6876 65.4014 30.5225 65.8762 32.7978C65.989 33.3384 65.6422 33.8681 65.1016 33.981C64.5609 34.0938 64.0312 33.747 63.9184 33.2063C63.5998 31.6799 62.3664 30.418 60.7318 29.9629C60.1997 29.8147 59.8885 29.2633 60.0366 28.7313Z" fill="#E1000F"/>
<path d="M65.9641 40.1335C66.4082 39.8771 66.9673 40.0001 67.266 40.4019L67.3301 40.4995L73.3301 50.8918C74.1586 52.3267 73.6669 54.1615 72.2321 54.9899C70.8484 55.7887 69.0929 55.3601 68.2265 54.0419L68.134 53.8918L62.134 43.4995C61.8578 43.0212 62.0217 42.4096 62.5 42.1335C62.9441 41.8771 63.5032 42.0001 63.8019 42.4019L63.866 42.4995L69.866 52.8918C70.1422 53.3701 70.7538 53.534 71.2321 53.2578C71.6762 53.0014 71.8492 52.4558 71.6506 51.9962L71.5981 51.8918L65.5981 41.4995C65.3219 41.0212 65.4858 40.4096 65.9641 40.1335Z" fill="#E1000F"/>
<path d="M44.5528 30.1051C45.0468 29.8581 45.6474 30.0583 45.8944 30.5523C46.1238 31.011 45.9675 31.5617 45.5485 31.8358L45.4472 31.8939L43.4472 32.8939C42.9532 33.1409 42.3526 32.9407 42.1056 32.4467C41.8762 31.988 42.0325 31.4373 42.4515 31.1633L42.5528 31.1051L44.5528 30.1051Z" fill="#E1000F"/>
<path fill-rule="evenodd" clip-rule="evenodd" d="M36 31.9995C36 29.7929 37.7935 27.9995 40 27.9995C42.2065 27.9995 44 29.7929 44 31.9995C44 34.206 42.2065 35.9995 40 35.9995C37.7935 35.9995 36 34.206 36 31.9995ZM42 31.9995C42 30.8975 41.102 29.9995 40 29.9995C38.898 29.9995 38 30.8975 38 31.9995C38 33.1014 38.8981 33.9995 40 33.9995C41.1019 33.9995 42 33.1014 42 31.9995Z" fill="#E1000F"/>
<path d="M59 15.9995C59.5128 15.9995 59.9355 16.3856 59.9933 16.8829L60 16.9995V18.9995C60 19.5518 59.5523 19.9995 59 19.9995C58.4872 19.9995 58.0645 19.6135 58.0067 19.1161L58 18.9995V17.9995H12V53.9995H58V48.9995C58 48.4867 58.386 48.064 58.8834 48.0062L59 47.9995C59.5128 47.9995 59.9355 48.3856 59.9933 48.8829L60 48.9995V54.9995C60 55.5123 59.614 55.935 59.1166 55.9928L59 55.9995H11C10.4872 55.9995 10.0645 55.6135 10.0067 55.1161L10 54.9995V16.9995C10 16.4867 10.386 16.064 10.8834 16.0062L11 15.9995H59Z" fill="#000091"/>
<path d="M39 17.9995C39.5128 17.9995 39.9355 17.6135 39.9933 17.1161L40 16.9995V14.9995C40 13.4018 38.7511 12.0959 37.1763 12.0046L37 11.9995H33C31.4023 11.9995 30.0963 13.2484 30.0051 14.8232L30 14.9995V16.9995C30 17.5518 30.4477 17.9995 31 17.9995C31.5128 17.9995 31.9355 17.6135 31.9933 17.1161L32 16.9995V14.9995C32 14.4867 32.386 14.064 32.8834 14.0062L33 13.9995H37C37.5128 13.9995 37.9355 14.3856 37.9933 14.8829L38 14.9995V16.9995C38 17.5518 38.4477 17.9995 39 17.9995Z" fill="#000091"/>
<path d="M51 53.9995C51.5128 53.9995 51.9355 54.3856 51.9933 54.8829L52 54.9995V56.9995C52 58.5972 50.7511 59.9032 49.1763 59.9944L49 59.9995H21C19.4023 59.9995 18.0963 58.7506 18.0051 57.1758L18 56.9995V54.9995C18 54.4472 18.4477 53.9995 19 53.9995C19.5128 53.9995 19.9355 54.3856 19.9933 54.8829L20 54.9995V56.9995C20 57.5123 20.386 57.935 20.8834 57.9928L21 57.9995H49C49.5128 57.9995 49.9355 57.6135 49.9933 57.1161L50 56.9995V54.9995C50 54.4472 50.4477 53.9995 51 53.9995Z" fill="#000091"/>
<path d="M37.8 58.3995C37.4686 57.9577 36.8418 57.8681 36.4 58.1995C35.9922 58.5054 35.8845 59.063 36.131 59.4945L36.2 59.5995L42.2 67.5995C42.5314 68.0413 43.1582 68.1309 43.6 67.7995C44.0078 67.4936 44.1155 66.936 43.869 66.5045L43.8 66.3995L37.8 58.3995Z" fill="#000091"/>
<path d="M23 37.9995C23.5128 37.9995 23.9355 38.3856 23.9933 38.8829L24 38.9995V40.9995C24 41.5518 23.5523 41.9995 23 41.9995C22.4872 41.9995 22.0645 41.6135 22.0067 41.1161L22 40.9995V39.9995H18V47.9995H22V44.9995C22 44.4867 22.386 44.064 22.8834 44.0062L23 43.9995C23.5128 43.9995 23.9355 44.3856 23.9933 44.8829L24 44.9995V48.9995C24 49.5123 23.614 49.935 23.1166 49.9928L23 49.9995H17C16.4872 49.9995 16.0645 49.6135 16.0067 49.1161L16 48.9995V38.9995C16 38.4867 16.386 38.064 16.8834 38.0062L17 37.9995H23Z" fill="#000091"/>
<path d="M29 33.9995C29.5523 33.9995 30 34.4472 30 34.9995C30 35.5123 29.614 35.935 29.1166 35.9928L29 35.9995H28V47.9995H32V36.9995C32 36.4867 32.386 36.064 32.8834 36.0062L33 35.9995C33.5128 35.9995 33.9355 36.3856 33.9933 36.8829L34 36.9995V48.9995C34 49.5123 33.614 49.935 33.1166 49.9928L33 49.9995H27C26.4872 49.9995 26.0645 49.6135 26.0067 49.1161L26 48.9995V34.9995C26 34.4867 26.386 34.064 26.8834 34.0062L27 33.9995H29Z" fill="#000091"/>
<path d="M39 41.9995C39.5523 41.9995 40 42.4472 40 42.9995C40 43.5123 39.614 43.935 39.1166 43.9928L39 43.9995H38V47.9995H42V42.9995C42 42.4867 42.386 42.064 42.8834 42.0062L43 41.9995C43.5128 41.9995 43.9355 42.3856 43.9933 42.8829L44 42.9995V48.9995C44 49.5123 43.614 49.935 43.1166 49.9928L43 49.9995H37C36.4872 49.9995 36.0645 49.6135 36.0067 49.1161L36 48.9995V42.9995C36 42.4867 36.386 42.064 36.8834 42.0062L37 41.9995H39Z" fill="#000091"/>
<path d="M47 39.9995C47.5128 39.9995 47.9355 40.3856 47.9933 40.8829L48 40.9995V47.9995H52V46.9995C52 46.4867 52.386 46.064 52.8834 46.0062L53 45.9995C53.5128 45.9995 53.9355 46.3856 53.9933 46.8829L54 46.9995V48.9995C54 49.5123 53.614 49.935 53.1166 49.9928L53 49.9995H47C46.4872 49.9995 46.0645 49.6135 46.0067 49.1161L46 48.9995V40.9995C46 40.4472 46.4477 39.9995 47 39.9995Z" fill="#000091"/>
<path d="M32.2 58.3995C32.5314 57.9577 33.1582 57.8681 33.6 58.1995C34.0078 58.5054 34.1155 59.063 33.869 59.4945L33.8 59.5995L27.8 67.5995C27.4686 68.0413 26.8418 68.1309 26.4 67.7995C25.9922 67.4936 25.8845 66.936 26.131 66.5045L26.2 66.3995L32.2 58.3995Z" fill="#000091"/>
</svg>
