<svg width="449" height="316" viewBox="0 0 449 316" fill="none" xmlns="http://www.w3.org/2000/svg">
<g clip-path="url(#clip0_916_44782)">
<mask id="path-1-inside-1_916_44782" fill="white">
<path d="M0.0400391 8.00001C0.0400391 3.58173 3.62176 0 8.04004 0H440.04C444.458 0 448.04 3.58172 448.04 8V308C448.04 312.418 444.458 316 440.04 316H8.04004C3.62176 316 0.0400391 312.418 0.0400391 308V8.00001Z"/>
</mask>
<path d="M0.0400391 8.00001C0.0400391 3.58173 3.62176 0 8.04004 0H440.04C444.458 0 448.04 3.58172 448.04 8V308C448.04 312.418 444.458 316 440.04 316H8.04004C3.62176 316 0.0400391 312.418 0.0400391 308V8.00001Z" fill="white"/>
<path d="M0.540039 8C0.540039 3.85786 3.8979 0.5 8.04004 0.5H440.04C444.182 0.5 447.54 3.85786 447.54 8V23.5H0.540039V8Z" fill="#F6F6F6"/>
<circle cx="12.04" cy="12" r="4" fill="#929292"/>
<circle cx="26.04" cy="12" r="4" fill="#929292"/>
<circle cx="40.04" cy="12" r="4" fill="#929292"/>
<path d="M0.540039 8C0.540039 3.85786 3.8979 0.5 8.04004 0.5H440.04C444.182 0.5 447.54 3.85786 447.54 8V23.5H0.540039V8Z" stroke="#929292"/>
<path d="M31.482 69H33.47V64.828H36.634V63.176H33.47V60.852H37.194V59.2H31.482V69ZM40.3791 69.21C41.2051 69.21 42.0451 68.86 42.4931 68.314V69H44.2711V64.436C44.2711 62.882 43.2211 61.664 41.1771 61.664C39.8891 61.664 38.8531 62.196 38.2231 63.064L39.5251 64.058C39.9031 63.54 40.4351 63.218 41.1211 63.218C41.9331 63.218 42.4931 63.694 42.4931 64.436V64.618L40.3371 64.982C38.8251 65.234 37.9991 66.032 37.9991 67.096C37.9991 68.398 38.9651 69.21 40.3791 69.21ZM39.7631 67.012C39.7631 66.578 40.0711 66.27 40.8131 66.144L42.4931 65.864V66.858C42.1431 67.418 41.5551 67.796 40.7431 67.796C40.1411 67.796 39.7631 67.488 39.7631 67.012ZM49.6952 67.6C48.5052 67.6 47.6512 66.718 47.6512 65.472C47.6512 64.24 48.5052 63.344 49.6672 63.344C50.3952 63.344 50.9552 63.666 51.2912 64.156L52.6772 63.092C52.0192 62.224 50.9832 61.664 49.6952 61.664C47.2592 61.664 45.8032 63.414 45.8032 65.472C45.8032 67.53 47.2592 69.28 49.6952 69.28C50.9832 69.28 52.0192 68.72 52.6772 67.852L51.2912 66.788C50.9552 67.278 50.3952 67.6 49.6952 67.6ZM54.9004 60.712C55.5304 60.712 56.0484 60.18 56.0484 59.55C56.0484 58.92 55.5304 58.388 54.9004 58.388C54.2704 58.388 53.7384 58.92 53.7384 59.55C53.7384 60.18 54.2704 60.712 54.9004 60.712ZM54.0044 69H55.7824V61.944H54.0044V69ZM57.9146 69H59.6926V58.5H57.9146V69ZM62.7207 60.712C63.3507 60.712 63.8687 60.18 63.8687 59.55C63.8687 58.92 63.3507 58.388 62.7207 58.388C62.0907 58.388 61.5587 58.92 61.5587 59.55C61.5587 60.18 62.0907 60.712 62.7207 60.712ZM61.8247 69H63.6027V61.944H61.8247V69ZM66.1829 66.424C66.1829 68.146 67.0229 69.14 68.7869 69.14C69.3749 69.14 69.7949 69.07 70.1449 68.916V67.362C69.9069 67.46 69.5849 67.516 69.0949 67.516C68.3949 67.516 67.9749 67.208 67.9749 66.424V63.54H70.1309V61.944H67.9749V60.18H66.1829V61.944H64.8669V63.54H66.1829V66.424ZM75.6885 60.824L77.3685 58.5H75.4365L73.9805 60.824H75.6885ZM78.0825 67.852L76.8085 66.844C76.4305 67.348 75.7585 67.684 74.9885 67.684C73.8825 67.684 73.0705 67.152 72.9025 65.836H77.8445C77.9005 65.598 77.9565 65.234 77.9565 64.842C77.9565 62.994 76.6685 61.664 74.7085 61.664C72.3985 61.664 71.0825 63.386 71.0825 65.472C71.0825 67.53 72.4965 69.28 75.0025 69.28C76.3325 69.28 77.4245 68.734 78.0825 67.852ZM74.6665 63.12C75.6605 63.12 76.1785 63.834 76.2065 64.548H72.9585C73.1545 63.624 73.7565 63.12 74.6665 63.12ZM82.9633 65.472C82.9633 67.53 84.3213 69.28 86.5473 69.28C87.4993 69.28 88.1853 68.986 88.7313 68.44V69H90.5233V58.5H88.7313V62.504C88.1853 61.958 87.4993 61.664 86.5473 61.664C84.3213 61.664 82.9633 63.414 82.9633 65.472ZM84.8253 65.472C84.8253 64.24 85.5953 63.344 86.7993 63.344C87.5973 63.344 88.2553 63.68 88.7313 64.324V66.62C88.2553 67.264 87.5973 67.6 86.7993 67.6C85.5953 67.6 84.8253 66.704 84.8253 65.472ZM93.6042 63.232L95.2282 59.2H93.2122L91.9522 63.232H93.6042ZM100.912 65.948C100.912 66.97 100.38 67.6 99.4142 67.6C98.4342 67.6 97.9022 66.97 97.9022 65.948V61.944H96.1102V65.864C96.1102 67.978 97.3282 69.28 99.4002 69.28C101.472 69.28 102.704 67.978 102.704 65.864V61.944H100.912V65.948ZM104.002 67.978C104.674 68.776 105.57 69.28 106.83 69.28C108.16 69.28 109.35 68.468 109.378 66.984C109.378 64.548 106.004 64.968 106.004 63.764C106.004 63.4 106.27 63.092 106.83 63.092C107.376 63.092 107.838 63.456 108.202 63.904L109.378 62.868C108.874 62.182 107.894 61.664 106.816 61.664C105.346 61.664 104.296 62.602 104.296 63.848C104.296 66.326 107.67 65.864 107.67 67.096C107.67 67.516 107.376 67.852 106.802 67.852C106.13 67.852 105.612 67.46 105.178 66.914L104.002 67.978ZM112.949 69.21C113.775 69.21 114.615 68.86 115.063 68.314V69H116.841V64.436C116.841 62.882 115.791 61.664 113.747 61.664C112.459 61.664 111.423 62.196 110.793 63.064L112.095 64.058C112.473 63.54 113.005 63.218 113.691 63.218C114.503 63.218 115.063 63.694 115.063 64.436V64.618L112.907 64.982C111.395 65.234 110.569 66.032 110.569 67.096C110.569 68.398 111.535 69.21 112.949 69.21ZM112.333 67.012C112.333 66.578 112.641 66.27 113.383 66.144L115.063 65.864V66.858C114.713 67.418 114.125 67.796 113.313 67.796C112.711 67.796 112.333 67.488 112.333 67.012ZM118.177 70.232C118.177 71.716 119.507 72.5 121.761 72.5C123.959 72.5 125.457 71.296 125.457 69.728C125.457 68.412 124.491 67.46 122.713 67.46H120.935C120.613 67.46 120.459 67.32 120.459 67.04C120.459 66.886 120.543 66.732 120.697 66.592C120.907 66.634 121.131 66.648 121.369 66.648C123.189 66.648 124.225 65.528 124.225 64.142C124.225 63.904 124.197 63.68 124.127 63.456H125.373V61.944H122.797C122.391 61.762 121.915 61.664 121.369 61.664C119.605 61.664 118.541 62.77 118.541 64.142C118.541 64.926 118.877 65.626 119.493 66.088C118.961 66.48 118.723 66.928 118.723 67.488C118.723 67.852 118.877 68.23 119.157 68.51C118.527 68.972 118.177 69.532 118.177 70.232ZM121.397 65.304C120.627 65.304 120.165 64.842 120.165 64.142C120.165 63.456 120.627 62.994 121.397 62.994C122.139 62.994 122.615 63.442 122.615 64.142C122.615 64.842 122.139 65.304 121.397 65.304ZM119.857 69.98C119.857 69.546 120.067 69.238 120.333 68.986H122.517C123.371 68.986 123.693 69.364 123.693 69.896C123.693 70.596 123.035 71.072 121.747 71.072C120.501 71.072 119.857 70.652 119.857 69.98ZM132.838 67.852L131.564 66.844C131.186 67.348 130.514 67.684 129.744 67.684C128.638 67.684 127.826 67.152 127.658 65.836H132.6C132.656 65.598 132.712 65.234 132.712 64.842C132.712 62.994 131.424 61.664 129.464 61.664C127.154 61.664 125.838 63.386 125.838 65.472C125.838 67.53 127.252 69.28 129.758 69.28C131.088 69.28 132.18 68.734 132.838 67.852ZM129.422 63.12C130.416 63.12 130.934 63.834 130.962 64.548H127.714C127.91 63.624 128.512 63.12 129.422 63.12Z" fill="black"/>
<path d="M31.482 226H35.332C38.44 226 40.54 223.746 40.54 221.1C40.54 218.454 38.44 216.2 35.332 216.2H31.482V226ZM35.36 218.006C37.18 218.006 38.496 219.35 38.496 221.1C38.496 222.836 37.18 224.194 35.36 224.194H33.47V218.006H35.36ZM43.1153 217.712C43.7453 217.712 44.2633 217.18 44.2633 216.55C44.2633 215.92 43.7453 215.388 43.1153 215.388C42.4853 215.388 41.9533 215.92 41.9533 216.55C41.9533 217.18 42.4853 217.712 43.1153 217.712ZM42.2193 226H43.9973V218.944H42.2193V226ZM45.2614 218.944V220.54H46.5774V226H48.3694V220.54H50.5254V218.944H48.3694V218.16C48.3694 217.516 48.7614 217.096 49.3634 217.096C49.7274 217.096 50.0074 217.222 50.2174 217.376L50.9734 215.892C50.5254 215.654 49.9794 215.5 49.3354 215.5C47.5714 215.5 46.5774 216.704 46.5774 218.202V218.944H45.2614ZM51.2224 218.944V220.54H52.5384V226H54.3304V220.54H56.4864V218.944H54.3304V218.16C54.3304 217.516 54.7224 217.096 55.3244 217.096C55.6884 217.096 55.9684 217.222 56.1784 217.376L56.9344 215.892C56.4864 215.654 55.9404 215.5 55.2964 215.5C53.5324 215.5 52.5384 216.704 52.5384 218.202V218.944H51.2224ZM58.7149 217.712C59.3449 217.712 59.8629 217.18 59.8629 216.55C59.8629 215.92 59.3449 215.388 58.7149 215.388C58.0849 215.388 57.5529 215.92 57.5529 216.55C57.5529 217.18 58.0849 217.712 58.7149 217.712ZM57.8189 226H59.5969V218.944H57.8189V226ZM65.117 224.6C63.927 224.6 63.073 223.718 63.073 222.472C63.073 221.24 63.927 220.344 65.089 220.344C65.817 220.344 66.377 220.666 66.713 221.156L68.099 220.092C67.441 219.224 66.405 218.664 65.117 218.664C62.681 218.664 61.225 220.414 61.225 222.472C61.225 224.53 62.681 226.28 65.117 226.28C66.405 226.28 67.441 225.72 68.099 224.852L66.713 223.788C66.377 224.278 65.817 224.6 65.117 224.6ZM74.0743 222.948C74.0743 223.97 73.5423 224.6 72.5763 224.6C71.5963 224.6 71.0643 223.97 71.0643 222.948V218.944H69.2723V222.864C69.2723 224.978 70.4903 226.28 72.5623 226.28C74.6343 226.28 75.8663 224.978 75.8663 222.864V218.944H74.0743V222.948ZM77.8345 226H79.6125V215.5H77.8345V226ZM82.1927 223.424C82.1927 225.146 83.0327 226.14 84.7967 226.14C85.3847 226.14 85.8047 226.07 86.1547 225.916V224.362C85.9167 224.46 85.5947 224.516 85.1047 224.516C84.4047 224.516 83.9847 224.208 83.9847 223.424V220.54H86.1407V218.944H83.9847V217.18H82.1927V218.944H80.8767V220.54H82.1927V223.424ZM91.6982 217.824L93.3782 215.5H91.4462L89.9902 217.824H91.6982ZM94.0922 224.852L92.8182 223.844C92.4402 224.348 91.7682 224.684 90.9982 224.684C89.8922 224.684 89.0802 224.152 88.9122 222.836H93.8542C93.9102 222.598 93.9662 222.234 93.9662 221.842C93.9662 219.994 92.6782 218.664 90.7182 218.664C88.4082 218.664 87.0922 220.386 87.0922 222.472C87.0922 224.53 88.5062 226.28 91.0122 226.28C92.3422 226.28 93.4342 225.734 94.0922 224.852ZM90.6762 220.12C91.6702 220.12 92.1882 220.834 92.2162 221.548H88.9682C89.1642 220.624 89.7662 220.12 90.6762 220.12ZM94.9919 224.978C95.6639 225.776 96.5599 226.28 97.8199 226.28C99.1499 226.28 100.34 225.468 100.368 223.984C100.368 221.548 96.9939 221.968 96.9939 220.764C96.9939 220.4 97.2599 220.092 97.8199 220.092C98.3659 220.092 98.8279 220.456 99.1919 220.904L100.368 219.868C99.8639 219.182 98.8839 218.664 97.8059 218.664C96.3359 218.664 95.2859 219.602 95.2859 220.848C95.2859 223.326 98.6599 222.864 98.6599 224.096C98.6599 224.516 98.3659 224.852 97.7919 224.852C97.1199 224.852 96.6019 224.46 96.1679 223.914L94.9919 224.978ZM105.78 226H107.558V221.478C107.824 221.03 108.384 220.554 109.252 220.554C109.574 220.554 109.812 220.596 110.036 220.652V218.902C109.868 218.846 109.658 218.804 109.42 218.804C108.622 218.804 108.02 219.168 107.558 219.644V218.944H105.78V226ZM117.663 224.852L116.389 223.844C116.011 224.348 115.339 224.684 114.569 224.684C113.463 224.684 112.651 224.152 112.483 222.836H117.425C117.481 222.598 117.537 222.234 117.537 221.842C117.537 219.994 116.249 218.664 114.289 218.664C111.979 218.664 110.663 220.386 110.663 222.472C110.663 224.53 112.077 226.28 114.583 226.28C115.913 226.28 117.005 225.734 117.663 224.852ZM114.247 220.12C115.241 220.12 115.759 220.834 115.787 221.548H112.539C112.735 220.624 113.337 220.12 114.247 220.12ZM119.274 226H121.052V221.394C121.318 220.946 121.794 220.344 122.69 220.344C123.558 220.344 124.09 220.932 124.09 221.87V226H125.882V221.8C125.882 219.714 124.664 218.664 123.138 218.664C122.2 218.664 121.542 219.028 121.052 219.504V218.944H119.274V226ZM131.289 224.6C130.099 224.6 129.245 223.718 129.245 222.472C129.245 221.24 130.099 220.344 131.261 220.344C131.989 220.344 132.549 220.666 132.885 221.156L134.271 220.092C133.613 219.224 132.577 218.664 131.289 218.664C128.853 218.664 127.397 220.414 127.397 222.472C127.397 224.53 128.853 226.28 131.289 226.28C132.577 226.28 133.613 225.72 134.271 224.852L132.885 223.788C132.549 224.278 131.989 224.6 131.289 224.6ZM138.685 218.664C136.389 218.664 134.821 220.358 134.821 222.472C134.821 224.586 136.389 226.28 138.685 226.28C140.981 226.28 142.549 224.586 142.549 222.472C142.549 220.358 140.981 218.664 138.685 218.664ZM138.713 224.6C137.537 224.6 136.669 223.704 136.669 222.472C136.669 221.24 137.537 220.344 138.713 220.344C139.847 220.344 140.701 221.24 140.701 222.472C140.701 223.69 139.847 224.6 138.713 224.6ZM144.17 226H145.948V221.394C146.214 220.946 146.69 220.344 147.586 220.344C148.454 220.344 148.986 220.932 148.986 221.87V226H150.778V221.8C150.778 219.714 149.56 218.664 148.034 218.664C147.096 218.664 146.438 219.028 145.948 219.504V218.944H144.17V226ZM153.245 223.424C153.245 225.146 154.085 226.14 155.849 226.14C156.437 226.14 156.857 226.07 157.207 225.916V224.362C156.969 224.46 156.647 224.516 156.157 224.516C155.457 224.516 155.037 224.208 155.037 223.424V220.54H157.193V218.944H155.037V217.18H153.245V218.944H151.929V220.54H153.245V223.424ZM158.786 226H160.564V221.478C160.83 221.03 161.39 220.554 162.258 220.554C162.58 220.554 162.818 220.596 163.042 220.652V218.902C162.874 218.846 162.664 218.804 162.426 218.804C161.628 218.804 161.026 219.168 160.564 219.644V218.944H158.786V226ZM168.274 217.824L169.954 215.5H168.022L166.566 217.824H168.274ZM170.668 224.852L169.394 223.844C169.016 224.348 168.344 224.684 167.574 224.684C166.468 224.684 165.656 224.152 165.488 222.836H170.43C170.486 222.598 170.542 222.234 170.542 221.842C170.542 219.994 169.254 218.664 167.294 218.664C164.984 218.664 163.668 220.386 163.668 222.472C163.668 224.53 165.082 226.28 167.588 226.28C168.918 226.28 170.01 225.734 170.668 224.852ZM167.252 220.12C168.246 220.12 168.764 220.834 168.792 221.548H165.544C165.74 220.624 166.342 220.12 167.252 220.12ZM178.721 224.852L177.447 223.844C177.069 224.348 176.397 224.684 175.627 224.684C174.521 224.684 173.709 224.152 173.541 222.836H178.483C178.539 222.598 178.595 222.234 178.595 221.842C178.595 219.994 177.307 218.664 175.347 218.664C173.037 218.664 171.721 220.386 171.721 222.472C171.721 224.53 173.135 226.28 175.641 226.28C176.971 226.28 178.063 225.734 178.721 224.852ZM175.305 220.12C176.299 220.12 176.817 220.834 176.845 221.548H173.597C173.793 220.624 174.395 220.12 175.305 220.12ZM179.621 224.978C180.293 225.776 181.189 226.28 182.449 226.28C183.779 226.28 184.969 225.468 184.997 223.984C184.997 221.548 181.623 221.968 181.623 220.764C181.623 220.4 181.889 220.092 182.449 220.092C182.995 220.092 183.457 220.456 183.821 220.904L184.997 219.868C184.493 219.182 183.513 218.664 182.435 218.664C180.965 218.664 179.915 219.602 179.915 220.848C179.915 223.326 183.289 222.864 183.289 224.096C183.289 224.516 182.995 224.852 182.421 224.852C181.749 224.852 181.231 224.46 180.797 223.914L179.621 224.978Z" fill="black"/>
<rect x="68.04" y="84" width="16" height="24" rx="8" fill="#CE0500"/>
<path d="M99.036 101.986H100.926V92.186H99.092L96.068 93.936L97.006 95.28L99.036 94.132V101.986Z" fill="black"/>
<path d="M53.04 96C53.04 102.075 48.1152 107 42.04 107C35.9649 107 31.04 102.075 31.04 96C31.04 89.9249 35.9649 85 42.04 85C48.1152 85 53.04 89.9249 53.04 96Z" fill="#FFE9E9" stroke="#CE0500" stroke-width="2"/>
<path d="M38.4401 94.9203C39.4342 94.9203 40.2401 94.1144 40.2401 93.1203C40.2401 92.1262 39.4342 91.3203 38.4401 91.3203C37.446 91.3203 36.6401 92.1262 36.6401 93.1203C36.6401 94.1144 37.446 94.9203 38.4401 94.9203Z" fill="#CE0500"/>
<path d="M45.6401 94.9203C46.6342 94.9203 47.4401 94.1144 47.4401 93.1203C47.4401 92.1262 46.6342 91.3203 45.6401 91.3203C44.646 91.3203 43.8401 92.1262 43.8401 93.1203C43.8401 94.1144 44.646 94.9203 45.6401 94.9203Z" fill="#CE0500"/>
<path d="M38.1401 101.7C38.4401 100.509 39.641 99 42.0401 99C44.4392 99 45.6401 100.509 45.9401 101.7" stroke="#CE0500" stroke-width="2.3" stroke-linecap="round"/>
<rect x="68.04" y="118" width="48" height="24" rx="12" fill="#B34000"/>
<path d="M131.036 135.986H132.926V126.186H131.092L128.068 127.936L129.006 129.28L131.036 128.132V135.986ZM138.652 125.92C136.468 125.92 135.334 127.18 135.334 128.566C135.334 129.462 135.768 130.232 136.636 130.694C135.502 131.156 134.9 132.066 134.9 133.256C134.9 134.964 136.23 136.28 138.652 136.28C141.088 136.28 142.404 134.964 142.404 133.256C142.404 132.066 141.802 131.156 140.682 130.694C141.536 130.232 141.97 129.462 141.97 128.566C141.97 127.18 140.85 125.92 138.652 125.92ZM138.68 129.98C137.812 129.98 137.28 129.504 137.28 128.776C137.28 128.034 137.798 127.544 138.68 127.544C139.492 127.544 140.024 128.034 140.024 128.776C140.024 129.504 139.492 129.98 138.68 129.98ZM138.666 134.642C137.546 134.642 136.846 134.068 136.846 133.158C136.846 132.234 137.546 131.604 138.666 131.604C139.772 131.604 140.458 132.234 140.458 133.158C140.458 134.054 139.772 134.642 138.666 134.642Z" fill="black"/>
<path d="M53.04 130C53.04 136.075 48.1152 141 42.04 141C35.9649 141 31.04 136.075 31.04 130C31.04 123.925 35.9649 119 42.04 119C48.1152 119 53.04 123.925 53.04 130Z" fill="#FFDECB" stroke="#B34000" stroke-width="2"/>
<path d="M38.4401 128.92C39.4342 128.92 40.2401 128.114 40.2401 127.12C40.2401 126.126 39.4342 125.32 38.4401 125.32C37.446 125.32 36.6401 126.126 36.6401 127.12C36.6401 128.114 37.446 128.92 38.4401 128.92Z" fill="#B34000"/>
<path d="M45.6401 128.92C46.6342 128.92 47.4401 128.114 47.4401 127.12C47.4401 126.126 46.6342 125.32 45.6401 125.32C44.646 125.32 43.8401 126.126 43.8401 127.12C43.8401 128.114 44.646 128.92 45.6401 128.92Z" fill="#B34000"/>
<path d="M38.4399 134.2C39.6466 134.2 40.8496 134.2 42.049 134.2C43.2484 134.2 44.4454 134.2 45.6399 134.2" stroke="#B34000" stroke-width="2.3" stroke-linecap="round"/>
<rect x="68.04" y="152" width="214" height="24" rx="12" fill="#18753C"/>
<path d="M297.036 169.986H298.926V160.186H297.092L294.068 161.936L295.006 163.28L297.036 162.132V169.986ZM301.25 170H308.026V168.292H303.56L305.926 166.01C306.892 165.072 307.774 164.036 307.774 162.692C307.774 161.012 306.402 159.92 304.694 159.92C302.986 159.92 301.768 160.76 300.942 162.104L302.482 163.042C303 162.174 303.574 161.6 304.512 161.6C305.282 161.6 305.842 162.076 305.842 162.888C305.842 163.686 305.366 164.218 304.61 164.988L301.25 168.292V170ZM311.6 170L316.346 161.908V160.2H309.29V161.908H314.344L309.416 170H311.6Z" fill="black"/>
<path d="M53.04 164C53.04 170.075 48.1152 175 42.04 175C35.9649 175 31.04 170.075 31.04 164C31.04 157.925 35.9649 153 42.04 153C48.1152 153 53.04 157.925 53.04 164Z" fill="#B8FEC9" stroke="#18753C" stroke-width="2"/>
<path d="M38.2507 162.862C39.2971 162.862 40.1454 162.013 40.1454 160.967C40.1454 159.921 39.2971 159.072 38.2507 159.072C37.2043 159.072 36.356 159.921 36.356 160.967C36.356 162.013 37.2043 162.862 38.2507 162.862Z" fill="#18753C"/>
<path d="M45.8296 162.862C46.876 162.862 47.7243 162.013 47.7243 160.967C47.7243 159.921 46.876 159.072 45.8296 159.072C44.7831 159.072 43.9348 159.921 43.9348 160.967C43.9348 162.013 44.7831 162.862 45.8296 162.862Z" fill="#18753C"/>
<path d="M37.9348 167.158C38.2506 168.411 39.5147 170 42.0401 170C44.5654 170 45.8296 168.411 46.1453 167.158" stroke="#18753C" stroke-width="2.3" stroke-linecap="round"/>
<path d="M31.372 247H32.5V240.112L34.948 244.12H35.812L38.26 240.112V247H39.388V238.6H37.948L35.38 242.836L32.812 238.6H31.372V247ZM43.3812 247.168C44.1612 247.168 44.9532 246.82 45.4092 246.232V247H46.4292V242.944C46.4292 241.612 45.5172 240.712 43.9812 240.712C42.9252 240.712 42.0732 241.156 41.5452 241.876L42.3132 242.464C42.6852 241.948 43.2492 241.624 43.9452 241.624C44.8092 241.624 45.4092 242.104 45.4092 242.944V243.364L43.3692 243.7C42.0852 243.916 41.3892 244.564 41.3892 245.476C41.3892 246.508 42.1932 247.168 43.3812 247.168ZM42.4212 245.44C42.4212 244.924 42.7932 244.552 43.6212 244.408L45.4092 244.108V245.296C45.0132 245.944 44.3532 246.328 43.5492 246.328C42.8412 246.328 42.4212 245.956 42.4212 245.44ZM48.4755 247H49.4955V242.812C49.8795 242.176 50.4315 241.672 51.3075 241.672C52.2435 241.672 52.8555 242.296 52.8555 243.376V247H53.8755V243.34C53.8755 241.624 52.8675 240.712 51.5115 240.712C50.6115 240.712 49.9875 241.096 49.4955 241.636V240.952H48.4755V247ZM55.4126 243.976C55.4126 245.74 56.6246 247.24 58.5206 247.24C59.4206 247.24 60.1286 246.892 60.6686 246.268V249.952H61.6886V240.952H60.6686V241.684C60.1286 241.06 59.4206 240.712 58.5206 240.712C56.6246 240.712 55.4126 242.212 55.4126 243.976ZM56.4806 243.976C56.4806 242.692 57.3566 241.672 58.6286 241.672C59.4686 241.672 60.2006 242.068 60.6686 242.8V245.152C60.2126 245.872 59.4806 246.28 58.6286 246.28C57.3566 246.28 56.4806 245.26 56.4806 243.976ZM68.0625 244.408C68.0625 245.596 67.4145 246.28 66.4065 246.28C65.3745 246.28 64.7385 245.596 64.7385 244.408V240.952H63.7185V244.372C63.7185 246.184 64.7625 247.24 66.3945 247.24C68.0385 247.24 69.0825 246.184 69.0825 244.372V240.952H68.0625V244.408ZM76.4687 246.004L75.7127 245.416C75.3167 245.956 74.6567 246.316 73.8767 246.316C72.5807 246.316 71.6567 245.44 71.6207 243.988H76.2647C76.3007 243.82 76.3367 243.592 76.3367 243.352C76.3367 241.864 75.2687 240.712 73.6247 240.712C71.7527 240.712 70.5767 242.14 70.5767 243.976C70.5767 245.74 71.8367 247.24 73.8767 247.24C75.0047 247.24 75.9047 246.76 76.4687 246.004ZM73.6007 241.576C74.6687 241.576 75.2807 242.32 75.3167 243.208H71.6927C71.9087 242.164 72.6047 241.576 73.6007 241.576ZM80.7837 243.976C80.7837 245.74 81.9957 247.24 83.8917 247.24C84.7917 247.24 85.4997 246.892 86.0397 246.28V247H87.0597V238H86.0397V241.672C85.4997 241.06 84.7917 240.712 83.8917 240.712C81.9957 240.712 80.7837 242.212 80.7837 243.976ZM81.8637 243.976C81.8637 242.692 82.7277 241.672 84.0117 241.672C84.8397 241.672 85.5717 242.068 86.0397 242.788V245.164C85.5957 245.872 84.8517 246.28 84.0117 246.28C82.7277 246.28 81.8637 245.26 81.8637 243.976ZM89.6528 241.816L90.8888 238.6H89.7248L88.7048 241.816H89.6528ZM93.054 239.38C93.45 239.38 93.762 239.056 93.762 238.66C93.762 238.276 93.45 237.952 93.054 237.952C92.658 237.952 92.334 238.276 92.334 238.66C92.334 239.056 92.658 239.38 93.054 239.38ZM92.538 247H93.558V240.952H92.538V247ZM95.7138 247H96.7338V242.812C97.1178 242.176 97.6698 241.672 98.5458 241.672C99.4818 241.672 100.094 242.296 100.094 243.376V247H101.114V243.34C101.114 241.624 100.106 240.712 98.7498 240.712C97.8498 240.712 97.2258 241.096 96.7338 241.636V240.952H95.7138V247ZM102.375 240.952V241.876H103.515V247H104.547V241.876H106.647V240.952H104.547V240.184C104.547 239.392 105.003 238.924 105.687 238.924C106.035 238.924 106.311 239.032 106.539 239.2L106.995 238.348C106.659 238.156 106.215 238 105.663 238C104.343 238 103.515 238.924 103.515 240.208V240.952H102.375ZM110.31 240.712C108.354 240.712 107.034 242.212 107.034 243.976C107.034 245.74 108.354 247.24 110.31 247.24C112.254 247.24 113.586 245.74 113.586 243.976C113.586 242.212 112.254 240.712 110.31 240.712ZM110.322 246.28C109.026 246.28 108.102 245.236 108.102 243.976C108.102 242.716 109.026 241.672 110.322 241.672C111.582 241.672 112.506 242.716 112.506 243.976C112.506 245.224 111.582 246.28 110.322 246.28ZM115.226 247H116.246V242.848C116.618 242.236 117.134 241.828 117.926 241.828C118.166 241.828 118.346 241.852 118.526 241.9V240.904C118.382 240.856 118.202 240.832 118.01 240.832C117.242 240.832 116.69 241.18 116.246 241.708V240.952H115.226V247ZM119.995 247H121.015V242.812C121.363 242.188 121.879 241.672 122.707 241.672C123.583 241.672 124.135 242.248 124.135 243.256V247H125.155V243.22C125.155 243.076 125.143 242.944 125.131 242.812C125.527 242.104 126.067 241.672 126.835 241.672C127.699 241.672 128.263 242.248 128.263 243.256V247H129.283V243.22C129.283 241.576 128.335 240.712 127.039 240.712C125.995 240.712 125.359 241.216 124.879 241.876C124.507 241.108 123.787 240.712 122.911 240.712C122.071 240.712 121.471 241.084 121.015 241.612V240.952H119.995V247ZM132.983 247.168C133.763 247.168 134.555 246.82 135.011 246.232V247H136.031V242.944C136.031 241.612 135.119 240.712 133.583 240.712C132.527 240.712 131.675 241.156 131.147 241.876L131.915 242.464C132.287 241.948 132.851 241.624 133.547 241.624C134.411 241.624 135.011 242.104 135.011 242.944V243.364L132.971 243.7C131.687 243.916 130.991 244.564 130.991 245.476C130.991 246.508 131.795 247.168 132.983 247.168ZM132.023 245.44C132.023 244.924 132.395 244.552 133.223 244.408L135.011 244.108V245.296C134.615 245.944 133.955 246.328 133.151 246.328C132.443 246.328 132.023 245.956 132.023 245.44ZM138.425 244.972C138.425 246.448 139.181 247.12 140.525 247.12C140.957 247.12 141.281 247.072 141.569 246.952V246.04C141.341 246.136 141.065 246.184 140.669 246.184C139.937 246.184 139.457 245.92 139.457 244.972V241.876H141.557V240.952H139.457V239.44H138.425V240.952H137.285V241.876H138.425V244.972ZM143.632 239.38C144.028 239.38 144.34 239.056 144.34 238.66C144.34 238.276 144.028 237.952 143.632 237.952C143.236 237.952 142.912 238.276 142.912 238.66C142.912 239.056 143.236 239.38 143.632 239.38ZM143.116 247H144.136V240.952H143.116V247ZM149.052 240.712C147.096 240.712 145.776 242.212 145.776 243.976C145.776 245.74 147.096 247.24 149.052 247.24C150.996 247.24 152.328 245.74 152.328 243.976C152.328 242.212 150.996 240.712 149.052 240.712ZM149.064 246.28C147.768 246.28 146.844 245.236 146.844 243.976C146.844 242.716 147.768 241.672 149.064 241.672C150.324 241.672 151.248 242.716 151.248 243.976C151.248 245.224 150.324 246.28 149.064 246.28ZM153.968 247H154.988V242.812C155.372 242.176 155.924 241.672 156.8 241.672C157.736 241.672 158.348 242.296 158.348 243.376V247H159.368V243.34C159.368 241.624 158.36 240.712 157.004 240.712C156.104 240.712 155.48 241.096 154.988 241.636V240.952H153.968V247ZM160.773 246.172C161.325 246.856 162.081 247.24 163.041 247.24C164.169 247.24 165.069 246.532 165.081 245.404C165.081 243.34 162.045 243.772 162.045 242.416C162.045 241.948 162.393 241.564 163.041 241.564C163.569 241.564 164.025 241.852 164.349 242.308L165.057 241.708C164.637 241.12 163.893 240.712 163.029 240.712C161.865 240.712 161.061 241.492 161.061 242.44C161.061 244.576 164.085 244.096 164.085 245.452C164.085 245.98 163.701 246.388 163.029 246.388C162.417 246.388 161.913 246.088 161.493 245.56L160.773 246.172ZM171.62 247.168C172.4 247.168 173.192 246.82 173.648 246.232V247H174.668V242.944C174.668 241.612 173.756 240.712 172.22 240.712C171.164 240.712 170.312 241.156 169.784 241.876L170.552 242.464C170.924 241.948 171.488 241.624 172.184 241.624C173.048 241.624 173.648 242.104 173.648 242.944V243.364L171.608 243.7C170.324 243.916 169.628 244.564 169.628 245.476C169.628 246.508 170.432 247.168 171.62 247.168ZM170.66 245.44C170.66 244.924 171.032 244.552 171.86 244.408L173.648 244.108V245.296C173.252 245.944 172.592 246.328 171.788 246.328C171.08 246.328 170.66 245.956 170.66 245.44ZM175.743 240.952L178.107 247H179.451L181.815 240.952H180.711L178.779 245.932L176.847 240.952H175.743ZM184.592 247.168C185.372 247.168 186.164 246.82 186.62 246.232V247H187.64V242.944C187.64 241.612 186.728 240.712 185.192 240.712C184.136 240.712 183.284 241.156 182.756 241.876L183.524 242.464C183.896 241.948 184.46 241.624 185.156 241.624C186.02 241.624 186.62 242.104 186.62 242.944V243.364L184.58 243.7C183.296 243.916 182.6 244.564 182.6 245.476C182.6 246.508 183.404 247.168 184.592 247.168ZM183.632 245.44C183.632 244.924 184.004 244.552 184.832 244.408L186.62 244.108V245.296C186.224 245.944 185.564 246.328 184.76 246.328C184.052 246.328 183.632 245.956 183.632 245.44ZM189.686 247H190.706V242.812C191.09 242.176 191.642 241.672 192.518 241.672C193.454 241.672 194.066 242.296 194.066 243.376V247H195.086V243.34C195.086 241.624 194.078 240.712 192.722 240.712C191.822 240.712 191.198 241.096 190.706 241.636V240.952H189.686V247ZM197.488 244.972C197.488 246.448 198.244 247.12 199.588 247.12C200.02 247.12 200.344 247.072 200.632 246.952V246.04C200.404 246.136 200.128 246.184 199.732 246.184C199 246.184 198.52 245.92 198.52 244.972V241.876H200.62V240.952H198.52V239.44H197.488V240.952H196.348V241.876H197.488V244.972ZM204.897 243.976C204.897 245.74 206.109 247.24 208.005 247.24C208.905 247.24 209.613 246.892 210.153 246.28V247H211.173V238H210.153V241.672C209.613 241.06 208.905 240.712 208.005 240.712C206.109 240.712 204.897 242.212 204.897 243.976ZM205.977 243.976C205.977 242.692 206.841 241.672 208.125 241.672C208.953 241.672 209.685 242.068 210.153 242.788V245.164C209.709 245.872 208.965 246.28 208.125 246.28C206.841 246.28 205.977 245.26 205.977 243.976ZM218.699 246.004L217.943 245.416C217.547 245.956 216.887 246.316 216.107 246.316C214.811 246.316 213.887 245.44 213.851 243.988H218.495C218.531 243.82 218.567 243.592 218.567 243.352C218.567 241.864 217.499 240.712 215.855 240.712C213.983 240.712 212.807 242.14 212.807 243.976C212.807 245.74 214.067 247.24 216.107 247.24C217.235 247.24 218.135 246.76 218.699 246.004ZM215.831 241.576C216.899 241.576 217.511 242.32 217.547 243.208H213.923C214.139 242.164 214.835 241.576 215.831 241.576ZM226.314 246.28C225.006 246.28 224.082 245.272 224.082 243.976C224.082 242.692 225.006 241.672 226.302 241.672C227.058 241.672 227.67 242.032 228.042 242.56L228.846 241.948C228.282 241.204 227.394 240.712 226.302 240.712C224.298 240.712 223.014 242.212 223.014 243.976C223.014 245.74 224.298 247.24 226.302 247.24C227.406 247.24 228.282 246.76 228.846 246.004L228.042 245.392C227.67 245.92 227.058 246.28 226.314 246.28ZM232.771 240.712C230.815 240.712 229.495 242.212 229.495 243.976C229.495 245.74 230.815 247.24 232.771 247.24C234.715 247.24 236.047 245.74 236.047 243.976C236.047 242.212 234.715 240.712 232.771 240.712ZM232.783 246.28C231.487 246.28 230.563 245.236 230.563 243.976C230.563 242.716 231.487 241.672 232.783 241.672C234.043 241.672 234.967 242.716 234.967 243.976C234.967 245.224 234.043 246.28 232.783 246.28ZM237.686 247H238.706V242.812C239.054 242.188 239.57 241.672 240.398 241.672C241.274 241.672 241.826 242.248 241.826 243.256V247H242.846V243.22C242.846 243.076 242.834 242.944 242.822 242.812C243.218 242.104 243.758 241.672 244.526 241.672C245.39 241.672 245.954 242.248 245.954 243.256V247H246.974V243.22C246.974 241.576 246.026 240.712 244.73 240.712C243.686 240.712 243.05 241.216 242.57 241.876C242.198 241.108 241.478 240.712 240.602 240.712C239.762 240.712 239.162 241.084 238.706 241.612V240.952H237.686V247ZM249.03 247H250.05V242.812C250.398 242.188 250.914 241.672 251.742 241.672C252.618 241.672 253.17 242.248 253.17 243.256V247H254.19V243.22C254.19 243.076 254.178 242.944 254.166 242.812C254.562 242.104 255.102 241.672 255.87 241.672C256.734 241.672 257.298 242.248 257.298 243.256V247H258.318V243.22C258.318 241.576 257.37 240.712 256.074 240.712C255.03 240.712 254.394 241.216 253.914 241.876C253.542 241.108 252.822 240.712 251.946 240.712C251.106 240.712 250.506 241.084 250.05 241.612V240.952H249.03V247ZM265.75 246.004L264.994 245.416C264.598 245.956 263.938 246.316 263.158 246.316C261.862 246.316 260.938 245.44 260.902 243.988H265.546C265.582 243.82 265.618 243.592 265.618 243.352C265.618 241.864 264.55 240.712 262.906 240.712C261.034 240.712 259.858 242.14 259.858 243.976C259.858 245.74 261.118 247.24 263.158 247.24C264.286 247.24 265.186 246.76 265.75 246.004ZM262.882 241.576C263.95 241.576 264.562 242.32 264.598 243.208H260.974C261.19 242.164 261.886 241.576 262.882 241.576ZM267.347 247H268.367V242.812C268.751 242.176 269.303 241.672 270.179 241.672C271.115 241.672 271.727 242.296 271.727 243.376V247H272.747V243.34C272.747 241.624 271.739 240.712 270.383 240.712C269.483 240.712 268.859 241.096 268.367 241.636V240.952H267.347V247ZM277.584 246.28C276.276 246.28 275.352 245.272 275.352 243.976C275.352 242.692 276.276 241.672 277.572 241.672C278.328 241.672 278.94 242.032 279.312 242.56L280.116 241.948C279.552 241.204 278.664 240.712 277.572 240.712C275.568 240.712 274.284 242.212 274.284 243.976C274.284 245.74 275.568 247.24 277.572 247.24C278.676 247.24 279.552 246.76 280.116 246.004L279.312 245.392C278.94 245.92 278.328 246.28 277.584 246.28ZM286.656 246.004L285.9 245.416C285.504 245.956 284.844 246.316 284.064 246.316C282.768 246.316 281.844 245.44 281.808 243.988H286.452C286.488 243.82 286.524 243.592 286.524 243.352C286.524 241.864 285.456 240.712 283.812 240.712C281.94 240.712 280.764 242.14 280.764 243.976C280.764 245.74 282.024 247.24 284.064 247.24C285.192 247.24 286.092 246.76 286.656 246.004ZM283.788 241.576C284.856 241.576 285.468 242.32 285.504 243.208H281.88C282.096 242.164 282.792 241.576 283.788 241.576ZM288.253 247H289.273V242.848C289.645 242.236 290.161 241.828 290.953 241.828C291.193 241.828 291.373 241.852 291.553 241.9V240.904C291.409 240.856 291.229 240.832 291.037 240.832C290.269 240.832 289.717 241.18 289.273 241.708V240.952H288.253V247ZM296.257 247H297.277V238H296.257V247ZM301.077 247.168C301.857 247.168 302.649 246.82 303.105 246.232V247H304.125V242.944C304.125 241.612 303.213 240.712 301.677 240.712C300.621 240.712 299.769 241.156 299.241 241.876L300.009 242.464C300.381 241.948 300.945 241.624 301.641 241.624C302.505 241.624 303.105 242.104 303.105 242.944V243.364L301.065 243.7C299.781 243.916 299.085 244.564 299.085 245.476C299.085 246.508 299.889 247.168 301.077 247.168ZM300.117 245.44C300.117 244.924 300.489 244.552 301.317 244.408L303.105 244.108V245.296C302.709 245.944 302.049 246.328 301.245 246.328C300.537 246.328 300.117 245.956 300.117 245.44ZM308.889 243.976C308.889 245.74 310.101 247.24 311.997 247.24C312.897 247.24 313.605 246.892 314.145 246.28V247H315.165V238H314.145V241.672C313.605 241.06 312.897 240.712 311.997 240.712C310.101 240.712 308.889 242.212 308.889 243.976ZM309.969 243.976C309.969 242.692 310.833 241.672 312.117 241.672C312.945 241.672 313.677 242.068 314.145 242.788V245.164C313.701 245.872 312.957 246.28 312.117 246.28C310.833 246.28 309.969 245.26 309.969 243.976ZM320.387 239.992L321.791 238H320.639L319.391 239.992H320.387ZM322.691 246.004L321.935 245.416C321.539 245.956 320.879 246.316 320.099 246.316C318.803 246.316 317.879 245.44 317.843 243.988H322.487C322.523 243.82 322.559 243.592 322.559 243.352C322.559 241.864 321.491 240.712 319.847 240.712C317.975 240.712 316.799 242.14 316.799 243.976C316.799 245.74 318.059 247.24 320.099 247.24C321.227 247.24 322.127 246.76 322.691 246.004ZM319.823 241.576C320.891 241.576 321.503 242.32 321.539 243.208H317.915C318.131 242.164 318.827 241.576 319.823 241.576ZM324.288 247H325.308V242.812C325.656 242.188 326.172 241.672 327 241.672C327.876 241.672 328.428 242.248 328.428 243.256V247H329.448V243.22C329.448 243.076 329.436 242.944 329.424 242.812C329.82 242.104 330.36 241.672 331.128 241.672C331.992 241.672 332.556 242.248 332.556 243.256V247H333.576V243.22C333.576 241.576 332.628 240.712 331.332 240.712C330.288 240.712 329.652 241.216 329.172 241.876C328.8 241.108 328.08 240.712 327.204 240.712C326.364 240.712 325.764 241.084 325.308 241.612V240.952H324.288V247ZM337.276 247.168C338.056 247.168 338.848 246.82 339.304 246.232V247H340.324V242.944C340.324 241.612 339.412 240.712 337.876 240.712C336.82 240.712 335.968 241.156 335.44 241.876L336.208 242.464C336.58 241.948 337.144 241.624 337.84 241.624C338.704 241.624 339.304 242.104 339.304 242.944V243.364L337.264 243.7C335.98 243.916 335.284 244.564 335.284 245.476C335.284 246.508 336.088 247.168 337.276 247.168ZM336.316 245.44C336.316 244.924 336.688 244.552 337.516 244.408L339.304 244.108V245.296C338.908 245.944 338.248 246.328 337.444 246.328C336.736 246.328 336.316 245.956 336.316 245.44ZM342.37 247H343.39V242.848C343.762 242.236 344.278 241.828 345.07 241.828C345.31 241.828 345.49 241.852 345.67 241.9V240.904C345.526 240.856 345.346 240.832 345.154 240.832C344.386 240.832 343.834 241.18 343.39 241.708V240.952H342.37V247ZM349.56 246.28C348.252 246.28 347.328 245.272 347.328 243.976C347.328 242.692 348.252 241.672 349.548 241.672C350.304 241.672 350.916 242.032 351.288 242.56L352.092 241.948C351.528 241.204 350.64 240.712 349.548 240.712C347.544 240.712 346.26 242.212 346.26 243.976C346.26 245.74 347.544 247.24 349.548 247.24C350.652 247.24 351.528 246.76 352.092 246.004L351.288 245.392C350.916 245.92 350.304 246.28 349.56 246.28ZM353.491 247H354.511V242.812C354.895 242.188 355.435 241.672 356.323 241.672C357.271 241.672 357.871 242.296 357.871 243.376V247H358.891V243.34C358.891 241.624 357.883 240.712 356.527 240.712C355.627 240.712 355.003 241.096 354.511 241.636V238H353.491V247ZM366.32 246.004L365.564 245.416C365.168 245.956 364.508 246.316 363.728 246.316C362.432 246.316 361.508 245.44 361.472 243.988H366.116C366.152 243.82 366.188 243.592 366.188 243.352C366.188 241.864 365.12 240.712 363.476 240.712C361.604 240.712 360.428 242.14 360.428 243.976C360.428 245.74 361.688 247.24 363.728 247.24C364.856 247.24 365.756 246.76 366.32 246.004ZM363.452 241.576C364.52 241.576 365.132 242.32 365.168 243.208H361.544C361.76 242.164 362.456 241.576 363.452 241.576Z" fill="black"/>
<rect x="30.04" y="256" width="214" height="24" rx="12" fill="#313178"/>
<path d="M261.036 273.986H262.926V264.186H261.092L258.068 265.936L259.006 267.28L261.036 266.132V273.986ZM269.211 263.92C266.215 263.92 264.955 266.09 264.955 269.142C264.955 272.418 266.369 274.28 268.917 274.28C271.157 274.28 272.487 272.74 272.487 270.892C272.487 269.1 271.255 267.714 269.309 267.714C268.343 267.714 267.545 268.022 266.915 268.568C267.041 266.65 267.797 265.628 269.211 265.628C269.981 265.628 270.555 266.048 271.059 266.72L272.515 265.516C271.871 264.662 270.849 263.92 269.211 263.92ZM268.959 269.394C269.897 269.394 270.541 270.052 270.541 270.962C270.541 271.886 269.911 272.572 268.875 272.572C267.881 272.572 267.195 271.956 266.971 270.36C267.475 269.702 268.161 269.394 268.959 269.394Z" fill="black"/>
<rect x="0.540039" y="0.5" width="447" height="315" rx="7.5" stroke="#929292"/>
</g>
<path d="M0.0400391 0H448.04H0.0400391ZM449.04 308C449.04 312.971 445.011 317 440.04 317H8.04004C3.06948 317 -0.959961 312.971 -0.959961 308H1.04004C1.04004 311.866 4.17405 315 8.04004 315H440.04C443.906 315 447.04 311.866 447.04 308H449.04ZM8.04004 317C3.06948 317 -0.959961 312.971 -0.959961 308V9C-0.959961 4.02944 3.06948 0 8.04004 0C4.17405 0 1.04004 3.58172 1.04004 8V308C1.04004 311.866 4.17405 315 8.04004 315V317ZM440.04 0C445.011 0 449.04 4.02944 449.04 9V308C449.04 312.971 445.011 317 440.04 317V315C443.906 315 447.04 311.866 447.04 308V8C447.04 3.58172 443.906 0 440.04 0Z" fill="#929292" mask="url(#path-1-inside-1_916_44782)"/>
<defs>
<clipPath id="clip0_916_44782">
<path d="M0.0400391 8.00001C0.0400391 3.58173 3.62176 0 8.04004 0H440.04C444.458 0 448.04 3.58172 448.04 8V308C448.04 312.418 444.458 316 440.04 316H8.04004C3.62176 316 0.0400391 312.418 0.0400391 308V8.00001Z" fill="white"/>
</clipPath>
</defs>
</svg>
